icoadaia.sfdir
StartChar: space
Encoding: 32 32 1
Width: 512
GlyphClass: 1
Flags: W
LayerCount: 2
Fore
SplineSet
0 0 m 1,0,-1
 0 0 l 1,1,-1
 0 0 l 1,2,-1
 0 0 l 1,0,-1
EndSplineSet
EndChar
StartChar: A
Encoding: 65 65 30
Width: 1024
Flags: W
LayerCount: 2
Fore
SplineSet
849 134 m 1,0,1
 845 134 845 134 841.5 135 c 128,-1,2
 838 136 838 136 834.5 138 c 128,-1,3
 831 140 831 140 828.5 142.5 c 128,-1,4
 826 145 826 145 824 149 c 2,5,-1
 512 676 l 1,6,-1
 200 149 l 2,7,8
 197 144 197 144 192.5 140.5 c 128,-1,9
 188 137 188 137 182.5 135.5 c 128,-1,10
 177 134 177 134 171.5 134.5 c 128,-1,11
 166 135 166 135 160 138 c 0,12,13
 155 141 155 141 151.5 145.5 c 128,-1,14
 148 150 148 150 146.5 155.5 c 128,-1,15
 145 161 145 161 146 166.5 c 128,-1,16
 147 172 147 172 150 177 c 2,17,-1
 487 747 l 2,18,19
 489 751 489 751 491.5 753.5 c 128,-1,20
 494 756 494 756 497.5 758 c 128,-1,21
 501 760 501 760 504.5 761 c 128,-1,22
 508 762 508 762 512 762 c 256,23,24
 516 762 516 762 519.5 761 c 128,-1,25
 523 760 523 760 526.5 758 c 128,-1,26
 530 756 530 756 532.5 753.5 c 128,-1,27
 535 751 535 751 537 747 c 2,28,-1
 874 177 l 2,29,30
 877 172 877 172 878 166.5 c 128,-1,31
 879 161 879 161 877.5 155.5 c 128,-1,32
 876 150 876 150 872.5 145.5 c 128,-1,33
 869 141 869 141 863 138 c 0,34,35
 862 137 862 137 860 136.5 c 128,-1,36
 858 136 858 136 856 135.5 c 128,-1,37
 854 135 854 135 852.5 134.5 c 128,-1,38
 851 134 851 134 849 134 c 1,39,-1
 849 134 l 1,0,1
EndSplineSet
EndChar
StartChar: I
Encoding: 73 73 32
Width: 1024
Flags: W
LayerCount: 2
Fore
SplineSet
512 134 m 1,0,1
 506 134 506 134 500.5 136.5 c 128,-1,2
 495 139 495 139 491 143 c 128,-1,3
 487 147 487 147 485 152 c 128,-1,4
 483 157 483 157 483 163 c 2,5,-1
 483 733 l 2,6,7
 483 739 483 739 485 744 c 128,-1,8
 487 749 487 749 491 753 c 128,-1,9
 495 757 495 757 500.5 759.5 c 128,-1,10
 506 762 506 762 512 762 c 256,11,12
 518 762 518 762 523.5 759.5 c 128,-1,13
 529 757 529 757 533 753 c 128,-1,14
 537 749 537 749 539 744 c 128,-1,15
 541 739 541 739 541 733 c 2,16,-1
 541 163 l 2,17,18
 541 157 541 157 539 152 c 128,-1,19
 537 147 537 147 533 143 c 128,-1,20
 529 139 529 139 523.5 136.5 c 128,-1,21
 518 134 518 134 512 134 c 1,22,-1
 512 134 l 1,0,1
EndSplineSet
EndChar
StartChar: uniE600
Encoding: 58880 58880 2
Width: 1024
GlyphClass: 1
Flags: W
LayerCount: 2
Fore
SplineSet
512 778 m 1,0,1
 444 778 444 778 384 752 c 128,-1,2
 324 726 324 726 279 681 c 128,-1,3
 234 636 234 636 208 576 c 128,-1,4
 182 516 182 516 182 448 c 256,5,6
 182 380 182 380 208 320 c 128,-1,7
 234 260 234 260 279 215 c 128,-1,8
 324 170 324 170 384 144 c 128,-1,9
 444 118 444 118 512 118 c 256,10,11
 580 118 580 118 640 144 c 128,-1,12
 700 170 700 170 745 215 c 128,-1,13
 790 260 790 260 816 320 c 128,-1,14
 842 380 842 380 842 448 c 256,15,16
 842 516 842 516 816 576 c 128,-1,17
 790 636 790 636 745 681 c 128,-1,18
 700 726 700 726 640 752 c 128,-1,19
 580 778 580 778 512 778 c 1,20,-1
 512 778 l 1,0,1
512 138 m 1,21,22
 448 138 448 138 391.5 162 c 128,-1,23
 335 186 335 186 292.5 228.5 c 128,-1,24
 250 271 250 271 226 327.5 c 128,-1,25
 202 384 202 384 202 448 c 256,26,27
 202 512 202 512 226 568.5 c 128,-1,28
 250 625 250 625 292.5 667.5 c 128,-1,29
 335 710 335 710 391.5 734 c 128,-1,30
 448 758 448 758 512 758 c 256,31,32
 576 758 576 758 632.5 734 c 128,-1,33
 689 710 689 710 731.5 667.5 c 128,-1,34
 774 625 774 625 798 568.5 c 128,-1,35
 822 512 822 512 822 448 c 256,36,37
 822 384 822 384 798 327.5 c 128,-1,38
 774 271 774 271 731.5 228.5 c 128,-1,39
 689 186 689 186 632.5 162 c 128,-1,40
 576 138 576 138 512 138 c 1,41,-1
 512 138 l 1,21,22
512 488 m 1,42,43
 504 488 504 488 496.5 485 c 128,-1,44
 489 482 489 482 483.5 476.5 c 128,-1,45
 478 471 478 471 475 463.5 c 128,-1,46
 472 456 472 456 472 448 c 256,47,48
 472 440 472 440 475 432.5 c 128,-1,49
 478 425 478 425 483.5 419.5 c 128,-1,50
 489 414 489 414 496.5 411 c 128,-1,51
 504 408 504 408 512 408 c 256,52,53
 520 408 520 408 527.5 411 c 128,-1,54
 535 414 535 414 540.5 419.5 c 128,-1,55
 546 425 546 425 549 432.5 c 128,-1,56
 552 440 552 440 552 448 c 256,57,58
 552 456 552 456 549 463.5 c 128,-1,59
 546 471 546 471 540.5 476.5 c 128,-1,60
 535 482 535 482 527.5 485 c 128,-1,61
 520 488 520 488 512 488 c 1,62,-1
 512 488 l 1,42,43
EndSplineSet
EndChar
StartChar: uniE601
Encoding: 58881 58881 3
Width: 1024
GlyphClass: 1
Flags: W
LayerCount: 2
Fore
SplineSet
512 778 m 1,0,1
 444 778 444 778 384 752 c 128,-1,2
 324 726 324 726 279 681 c 128,-1,3
 234 636 234 636 208 576 c 128,-1,4
 182 516 182 516 182 448 c 256,5,6
 182 380 182 380 208 320 c 128,-1,7
 234 260 234 260 279 215 c 128,-1,8
 324 170 324 170 384 144 c 128,-1,9
 444 118 444 118 512 118 c 256,10,11
 580 118 580 118 640 144 c 128,-1,12
 700 170 700 170 745 215 c 128,-1,13
 790 260 790 260 816 320 c 128,-1,14
 842 380 842 380 842 448 c 256,15,16
 842 516 842 516 816 576 c 128,-1,17
 790 636 790 636 745 681 c 128,-1,18
 700 726 700 726 640 752 c 128,-1,19
 580 778 580 778 512 778 c 1,20,-1
 512 778 l 1,0,1
512 138 m 1,21,22
 448 138 448 138 391.5 162 c 128,-1,23
 335 186 335 186 292.5 228.5 c 128,-1,24
 250 271 250 271 226 327.5 c 128,-1,25
 202 384 202 384 202 448 c 256,26,27
 202 512 202 512 226 568.5 c 128,-1,28
 250 625 250 625 292.5 667.5 c 128,-1,29
 335 710 335 710 391.5 734 c 128,-1,30
 448 758 448 758 512 758 c 256,31,32
 576 758 576 758 632.5 734 c 128,-1,33
 689 710 689 710 731.5 667.5 c 128,-1,34
 774 625 774 625 798 568.5 c 128,-1,35
 822 512 822 512 822 448 c 256,36,37
 822 384 822 384 798 327.5 c 128,-1,38
 774 271 774 271 731.5 228.5 c 128,-1,39
 689 186 689 186 632.5 162 c 128,-1,40
 576 138 576 138 512 138 c 1,41,-1
 512 138 l 1,21,22
512 488 m 1,42,43
 504 488 504 488 496.5 485 c 128,-1,44
 489 482 489 482 483.5 476.5 c 128,-1,45
 478 471 478 471 475 463.5 c 128,-1,46
 472 456 472 456 472 448 c 256,47,48
 472 440 472 440 475 432.5 c 128,-1,49
 478 425 478 425 483.5 419.5 c 128,-1,50
 489 414 489 414 496.5 411 c 128,-1,51
 504 408 504 408 512 408 c 256,52,53
 520 408 520 408 527.5 411 c 128,-1,54
 535 414 535 414 540.5 419.5 c 128,-1,55
 546 425 546 425 549 432.5 c 128,-1,56
 552 440 552 440 552 448 c 256,57,58
 552 456 552 456 549 463.5 c 128,-1,59
 546 471 546 471 540.5 476.5 c 128,-1,60
 535 482 535 482 527.5 485 c 128,-1,61
 520 488 520 488 512 488 c 1,62,-1
 512 488 l 1,42,43
374 626 m 1,63,64
 365 626 365 626 358 623 c 128,-1,65
 351 620 351 620 345.5 614.5 c 128,-1,66
 340 609 340 609 337 602 c 128,-1,67
 334 595 334 595 334 586 c 0,68,69
 334 578 334 578 337 570.5 c 128,-1,70
 340 563 340 563 345.5 557.5 c 128,-1,71
 351 552 351 552 358 549 c 128,-1,72
 365 546 365 546 374 546 c 0,73,74
 382 546 382 546 389.5 549 c 128,-1,75
 397 552 397 552 402.5 557.5 c 128,-1,76
 408 563 408 563 411 570.5 c 128,-1,77
 414 578 414 578 414 586 c 0,78,79
 414 595 414 595 411 602 c 128,-1,80
 408 609 408 609 402.5 614.5 c 128,-1,81
 397 620 397 620 389.5 623 c 128,-1,82
 382 626 382 626 374 626 c 1,83,-1
 374 626 l 1,63,64
650 350 m 1,84,85
 642 350 642 350 634.5 347 c 128,-1,86
 627 344 627 344 621.5 338.5 c 128,-1,87
 616 333 616 333 613 325.5 c 128,-1,88
 610 318 610 318 610 310 c 0,89,90
 610 301 610 301 613 294 c 128,-1,91
 616 287 616 287 621.5 281.5 c 128,-1,92
 627 276 627 276 634.5 273 c 128,-1,93
 642 270 642 270 650 270 c 0,94,95
 659 270 659 270 666 273 c 128,-1,96
 673 276 673 276 678.5 281.5 c 128,-1,97
 684 287 684 287 687 294 c 128,-1,98
 690 301 690 301 690 310 c 0,99,100
 690 318 690 318 687 325.5 c 128,-1,101
 684 333 684 333 678.5 338.5 c 128,-1,102
 673 344 673 344 666 347 c 128,-1,103
 659 350 659 350 650 350 c 1,104,-1
 650 350 l 1,84,85
EndSplineSet
EndChar
StartChar: uniE602
Encoding: 58882 58882 4
Width: 1024
GlyphClass: 1
Flags: W
LayerCount: 2
Fore
SplineSet
512 938 m 1,0,1
 411 938 411 938 321.5 899.5 c 128,-1,2
 232 861 232 861 165.5 794.5 c 128,-1,3
 99 728 99 728 60.5 638.5 c 128,-1,4
 22 549 22 549 22 448 c 256,5,6
 22 347 22 347 60.5 257.5 c 128,-1,7
 99 168 99 168 165.5 101.5 c 128,-1,8
 232 35 232 35 321.5 -3.5 c 128,-1,9
 411 -42 411 -42 512 -42 c 256,10,11
 613 -42 613 -42 702.5 -3.5 c 128,-1,12
 792 35 792 35 858.5 101.5 c 128,-1,13
 925 168 925 168 963.5 257.5 c 128,-1,14
 1002 347 1002 347 1002 448 c 256,15,16
 1002 549 1002 549 963.5 638.5 c 128,-1,17
 925 728 925 728 858.5 794.5 c 128,-1,18
 792 861 792 861 702.5 899.5 c 128,-1,19
 613 938 613 938 512 938 c 1,20,-1
 512 938 l 1,0,1
512 -22 m 1,21,22
 415 -22 415 -22 329 15 c 128,-1,23
 243 52 243 52 179.5 115.5 c 128,-1,24
 116 179 116 179 79 265 c 128,-1,25
 42 351 42 351 42 448 c 256,26,27
 42 545 42 545 79 631 c 128,-1,28
 116 717 116 717 179.5 780.5 c 128,-1,29
 243 844 243 844 329 881 c 128,-1,30
 415 918 415 918 512 918 c 256,31,32
 609 918 609 918 695 881 c 128,-1,33
 781 844 781 844 844.5 780.5 c 128,-1,34
 908 717 908 717 945 631 c 128,-1,35
 982 545 982 545 982 448 c 256,36,37
 982 351 982 351 945 265 c 128,-1,38
 908 179 908 179 844.5 115.5 c 128,-1,39
 781 52 781 52 695 15 c 128,-1,40
 609 -22 609 -22 512 -22 c 1,41,-1
 512 -22 l 1,21,22
628 661 m 1,42,43
 612 661 612 661 596.5 658.5 c 128,-1,44
 581 656 581 656 566.5 651.5 c 128,-1,45
 552 647 552 647 538.5 640.5 c 128,-1,46
 525 634 525 634 512 626 c 1,47,48
 499 634 499 634 485.5 640.5 c 128,-1,49
 472 647 472 647 457.5 651.5 c 128,-1,50
 443 656 443 656 427.5 658.5 c 128,-1,51
 412 661 412 661 396 661 c 0,52,53
 352 661 352 661 313 644 c 128,-1,54
 274 627 274 627 245.5 598 c 128,-1,55
 217 569 217 569 200 530.5 c 128,-1,56
 183 492 183 492 183 448 c 256,57,58
 183 404 183 404 200 365.5 c 128,-1,59
 217 327 217 327 245.5 298 c 128,-1,60
 274 269 274 269 313 252 c 128,-1,61
 352 235 352 235 396 235 c 0,62,63
 412 235 412 235 427.5 237.5 c 128,-1,64
 443 240 443 240 457.5 244.5 c 128,-1,65
 472 249 472 249 485.5 255.5 c 128,-1,66
 499 262 499 262 512 270 c 1,67,68
 525 262 525 262 538.5 255.5 c 128,-1,69
 552 249 552 249 566.5 244.5 c 128,-1,70
 581 240 581 240 596.5 237.5 c 128,-1,71
 612 235 612 235 628 235 c 0,72,73
 672 235 672 235 711 252 c 128,-1,74
 750 269 750 269 778.5 298 c 128,-1,75
 807 327 807 327 824 365.5 c 128,-1,76
 841 404 841 404 841 448 c 256,77,78
 841 492 841 492 824 530.5 c 128,-1,79
 807 569 807 569 778.5 598 c 128,-1,80
 750 627 750 627 711 644 c 128,-1,81
 672 661 672 661 628 661 c 1,82,-1
 628 661 l 1,42,43
396 254 m 1,83,84
 356 254 356 254 320.5 269.5 c 128,-1,85
 285 285 285 285 259 311.5 c 128,-1,86
 233 338 233 338 217.5 373 c 128,-1,87
 202 408 202 408 202 448 c 256,88,89
 202 488 202 488 217.5 523 c 128,-1,90
 233 558 233 558 259 584.5 c 128,-1,91
 285 611 285 611 320.5 626.5 c 128,-1,92
 356 642 356 642 396 642 c 0,93,94
 409 642 409 642 422.5 640 c 128,-1,95
 436 638 436 638 448.5 634.5 c 128,-1,96
 461 631 461 631 472.5 625.5 c 128,-1,97
 484 620 484 620 495 614 c 1,98,99
 477 599 477 599 462.5 580.5 c 128,-1,100
 448 562 448 562 437.5 541 c 128,-1,101
 427 520 427 520 421.5 496.5 c 128,-1,102
 416 473 416 473 416 448 c 256,103,104
 416 423 416 423 421.5 399.5 c 128,-1,105
 427 376 427 376 437.5 355 c 128,-1,106
 448 334 448 334 462.5 315.5 c 128,-1,107
 477 297 477 297 495 282 c 1,108,109
 484 276 484 276 472.5 270.5 c 128,-1,110
 461 265 461 265 448.5 261.5 c 128,-1,111
 436 258 436 258 422.5 256 c 128,-1,112
 409 254 409 254 396 254 c 1,113,-1
 396 254 l 1,83,84
512 602 m 1,114,115
 530 589 530 589 544 572 c 128,-1,116
 558 555 558 555 568 535.5 c 128,-1,117
 578 516 578 516 583.5 494 c 128,-1,118
 589 472 589 472 589 448 c 256,119,120
 589 424 589 424 583.5 402 c 128,-1,121
 578 380 578 380 568 360.5 c 128,-1,122
 558 341 558 341 544 324 c 128,-1,123
 530 307 530 307 512 294 c 1,124,125
 494 307 494 307 480 324 c 128,-1,126
 466 341 466 341 456 360.5 c 128,-1,127
 446 380 446 380 440.5 402 c 128,-1,128
 435 424 435 424 435 448 c 256,129,130
 435 472 435 472 440.5 494 c 128,-1,131
 446 516 446 516 456 535.5 c 128,-1,132
 466 555 466 555 480 572 c 128,-1,133
 494 589 494 589 512 602 c 1,134,-1
 512 602 l 1,114,115
628 254 m 1,135,136
 615 254 615 254 601.5 256 c 128,-1,137
 588 258 588 258 575.5 261.5 c 128,-1,138
 563 265 563 265 551.5 270.5 c 128,-1,139
 540 276 540 276 529 282 c 1,140,141
 547 297 547 297 561.5 315.5 c 128,-1,142
 576 334 576 334 586.5 355 c 128,-1,143
 597 376 597 376 602.5 399.5 c 128,-1,144
 608 423 608 423 608 448 c 256,145,146
 608 473 608 473 602.5 496.5 c 128,-1,147
 597 520 597 520 586.5 541 c 128,-1,148
 576 562 576 562 561.5 580.5 c 128,-1,149
 547 599 547 599 529 614 c 1,150,151
 540 620 540 620 551.5 625.5 c 128,-1,152
 563 631 563 631 575.5 634.5 c 128,-1,153
 588 638 588 638 601.5 640 c 128,-1,154
 615 642 615 642 628 642 c 0,155,156
 668 642 668 642 703.5 626.5 c 128,-1,157
 739 611 739 611 765 584.5 c 128,-1,158
 791 558 791 558 806.5 523 c 128,-1,159
 822 488 822 488 822 448 c 256,160,161
 822 408 822 408 806.5 373 c 128,-1,162
 791 338 791 338 765 311.5 c 128,-1,163
 739 285 739 285 703.5 269.5 c 128,-1,164
 668 254 668 254 628 254 c 1,165,-1
 628 254 l 1,135,136
EndSplineSet
EndChar
StartChar: uniE603
Encoding: 58883 58883 5
Width: 1024
GlyphClass: 1
Flags: MW
HStem: 1036 60
LayerCount: 2
Fore
SplineSet
503.474609375 756.248046875 m 128,-1,1
 503.474609375 786.560773356 503.474609375 786.560773356 524.904776326 807.990347616 c 128,-1,2
 546.334943278 829.419921875 546.334943278 829.419921875 576.6484375 829.419921875 c 128,-1,3
 606.961274794 829.419921875 606.961274794 829.419921875 628.391281928 807.99030987 c 128,-1,4
 649.821289062 786.560697864 649.821289062 786.560697864 649.821289062 756.248046875 c 128,-1,5
 649.821289062 725.934645807 649.821289062 725.934645807 628.391273098 704.504432279 c 128,-1,6
 606.961257134 683.07421875 606.961257134 683.07421875 576.6484375 683.07421875 c 128,-1,7
 546.334960938 683.07421875 546.334960938 683.07421875 524.904785156 704.504394531 c 128,-1,0
 503.474609375 725.934570312 503.474609375 725.934570312 503.474609375 756.248046875 c 128,-1,1
487.99609375 756.248046875 m 128,-1,9
 487.99609375 719.530273438 487.99609375 719.530273438 513.963378906 693.562988281 c 128,-1,10
 539.930664062 667.595703125 539.930664062 667.595703125 576.6484375 667.595703125 c 128,-1,11
 613.365554023 667.595703125 613.365554023 667.595703125 639.332679355 693.563026035 c 128,-1,12
 665.299804688 719.530348946 665.299804688 719.530348946 665.299804688 756.248046875 c 128,-1,13
 665.299804688 792.965087891 665.299804688 792.965087891 639.332641602 818.932250977 c 128,-1,14
 613.365478516 844.899414062 613.365478516 844.899414062 576.6484375 844.899414062 c 128,-1,15
 539.930739571 844.899414062 539.930739571 844.899414062 513.96341666 818.93228873 c 128,-1,8
 487.99609375 792.965163398 487.99609375 792.965163398 487.99609375 756.248046875 c 128,-1,9
163.811523438 580.3203125 m 0,16,17
 160.888437326 576.543410326 160.888437326 576.543410326 162.855215567 572.528899016 c 128,-1,18
 164.821993808 568.514387707 164.821993808 568.514387707 168.746346933 567.96556713 c 128,-1,19
 172.670700058 567.416746553 172.670700058 567.416746553 176.059570312 570.858398438 c 0,20,21
 178.894692013 574.49488538 178.894692013 574.49488538 184.101242752 580.69972786 c 128,-1,22
 189.30779349 586.90457034 189.30779349 586.90457034 205.979874436 603.90389714 c 128,-1,23
 222.651955382 620.90322394 222.651955382 620.90322394 239.947742752 635.436805985 c 128,-1,24
 257.243530122 649.97038803 257.243530122 649.97038803 282.579343186 665.66542839 c 128,-1,25
 307.91515625 681.36046875 307.91515625 681.36046875 332.126953125 689.555664062 c 0,26,27
 353.524021202 696.798064324 353.524021202 696.798064324 392.142744534 685.068993872 c 128,-1,28
 430.761467867 673.339923419 430.761467867 673.339923419 462.177893486 657.417008732 c 128,-1,29
 493.594319106 641.494094045 493.594319106 641.494094045 546.610351562 611.71484375 c 0,30,31
 591.361712911 586.577866773 591.361712911 586.577866773 612.517199529 575.459572998 c 128,-1,32
 633.672686148 564.341279222 633.672686148 564.341279222 658.774467137 555.208070231 c 128,-1,33
 683.876248127 546.074861241 683.876248127 546.074861241 699.401367188 547.672851562 c 0,34,35
 720.090428313 549.803018081 720.090428313 549.803018081 741.299603362 558.251327259 c 128,-1,36
 762.508778411 566.699636436 762.508778411 566.699636436 776.662498201 575.707563366 c 128,-1,37
 790.816217991 584.715490297 790.816217991 584.715490297 804.477853362 596.218374134 c 128,-1,38
 818.139488733 607.72125797 818.139488733 607.72125797 822.174498201 611.921953991 c 128,-1,39
 826.209507668 616.122650013 826.209507668 616.122650013 828.740234375 618.995117188 c 0,40,41
 832.029551046 622.729003906 832.029551046 622.729003906 829.967285156 627.288330078 c 128,-1,42
 827.905019266 631.84765625 827.905019266 631.84765625 822.932617188 631.84765625 c 0,43,44
 819.438853211 631.84765625 819.438853211 631.84765625 817.125 629.221679688 c 0,45,46
 811.203482901 622.579658679 811.203482901 622.579658679 800.608921941 612.546770139 c 128,-1,47
 790.01436098 602.513881598 790.01436098 602.513881598 758.702927018 584.315534549 c 128,-1,48
 727.391493056 566.1171875 727.391493056 566.1171875 697.80078125 563.0703125 c 0,49,50
 669.928944157 560.201168232 669.928944157 560.201168232 554.173828125 625.220703125 c 0,51,52
 529.45908865 639.102826566 529.45908865 639.102826566 516.707563144 646.140221933 c 128,-1,53
 503.956037638 653.1776173 503.956037638 653.1776173 481.258675695 665.029053645 c 128,-1,54
 458.561313753 676.880489991 458.561313753 676.880489991 444.997582277 682.742450659 c 128,-1,55
 431.4338508 688.604411328 431.4338508 688.604411328 412.390611282 695.792406643 c 128,-1,56
 393.347371764 702.980401958 393.347371764 702.980401958 380.121785083 705.323724575 c 128,-1,57
 366.896198401 707.667047192 366.896198401 707.667047192 352.657432073 707.848398124 c 128,-1,58
 338.418665744 708.029749056 338.418665744 708.029749056 327.16796875 704.221679688 c 0,59,60
 301.360220756 695.486463504 301.360220756 695.486463504 274.676970553 679.037957164 c 128,-1,61
 247.99372035 662.589450824 247.99372035 662.589450824 230.06216226 647.575972523 c 128,-1,62
 212.130604169 632.562494223 212.130604169 632.562494223 194.742017428 614.738129039 c 128,-1,63
 177.353430686 596.913763855 177.353430686 596.913763855 172.185646635 590.685441273 c 128,-1,64
 167.017862583 584.457118692 167.017862583 584.457118692 163.811523438 580.3203125 c 0,16,17
433.126953125 390.68359375 m 0,65,66
 427.554898079 410.482024448 427.554898079 410.482024448 449.599643214 462.218246694 c 128,-1,67
 471.644388349 513.954468941 471.644388349 513.954468941 487.536750015 541.579930389 c 128,-1,68
 503.429111681 569.205391838 503.429111681 569.205391838 513.104492188 584.625 c 0,69,70
 515.640734973 588.668319028 515.640734973 588.668319028 513.288411458 592.470052083 c 128,-1,71
 510.936087944 596.271785139 510.936087944 596.271785139 506.976888021 596.432942708 c 128,-1,72
 503.017688098 596.594100278 503.017688098 596.594100278 499.982421875 592.833984375 c 0,73,74
 486.5876236 571.484751703 486.5876236 571.484751703 470.31784374 543.016452436 c 128,-1,75
 454.04806388 514.548153169 454.04806388 514.548153169 432.90871876 461.986477252 c 128,-1,76
 411.769373639 409.424801334 411.769373639 409.424801334 418.224609375 386.487304688 c 0,77,78
 421.260473621 375.701032962 421.260473621 375.701032962 429.994671426 368.083600115 c 128,-1,79
 438.728869232 360.466167269 438.728869232 360.466167269 455.256732382 355.499224592 c 128,-1,80
 471.784595532 350.532281914 471.784595532 350.532281914 483.747967325 348.177838397 c 128,-1,81
 495.711339118 345.823394879 495.711339118 345.823394879 519.012695312 342.28125 c 0,82,83
 544.053516384 338.474886018 544.053516384 338.474886018 557.324290726 335.908970175 c 128,-1,84
 570.595065068 333.343054332 570.595065068 333.343054332 586.108000941 327.067592325 c 128,-1,85
 601.620936813 320.792130318 601.620936813 320.792130318 605.723632812 312.41015625 c 0,86,87
 616.572633148 290.248316435 616.572633148 290.248316435 595.364340347 217.887416269 c 128,-1,88
 574.156047547 145.526516103 574.156047547 145.526516103 549.926757812 86.263671875 c 0,89,90
 548.103465026 81.8486557972 548.103465026 81.8486557972 550.928652189 78.5503530572 c 128,-1,91
 553.753839353 75.2520503171 553.753839353 75.2520503171 558.08274104 75.5948292345 c 128,-1,92
 562.411642726 75.9376081518 562.411642726 75.9376081518 564.240234375 80.365234375 c 0,93,94
 576.282262621 109.52282364 576.282262621 109.52282364 589.392355638 145.078632357 c 128,-1,95
 602.502448656 180.634441074 602.502448656 180.634441074 616.14605582 239.546367643 c 128,-1,96
 629.789662984 298.458294212 629.789662984 298.458294212 619.634765625 319.201171875 c 0,97,98
 611.045585552 336.74789824 611.045585552 336.74789824 582.160627493 345.318702401 c 128,-1,99
 553.275669433 353.889506562 553.275669433 353.889506562 513.512875112 359.343732495 c 128,-1,100
 473.75008079 364.797958427 473.75008079 364.797958427 456.418945312 371.440429688 c 0,101,102
 436.382101881 379.119288511 436.382101881 379.119288511 433.126953125 390.68359375 c 0,65,66
412.78125 341.59375 m 0,103,104
 414.335465638 346.114811097 414.335465638 346.114811097 411.315728428 349.236147235 c 128,-1,105
 408.295991218 352.357483372 408.295991218 352.357483372 403.995469489 351.753436099 c 128,-1,106
 399.69494776 351.149388825 399.69494776 351.149388825 398.138671875 346.623046875 c 0,107,108
 370.252316942 266.270299096 370.252316942 266.270299096 341.607421875 227.392578125 c 0,109,110
 328.914713542 210.166883681 328.914713542 210.166883681 295.91813151 179.962537977 c 128,-1,111
 262.921549479 149.758192274 262.921549479 149.758192274 236.271321615 128.166693793 c 2,112,-1
 209.62109375 106.575195312 l 2,113,114
 205.863068926 103.606586255 205.863068926 103.606586255 206.802625868 99.2355324074 c 128,-1,115
 207.74218281 94.8644785597 207.74218281 94.8644785597 211.419704861 93.3865379051 c 128,-1,116
 215.097226912 91.9085972505 215.097226912 91.9085972505 219.204101562 94.421875 c 0,117,118
 323.817789573 177.158175784 323.817789573 177.158175784 354.076171875 218.224609375 c 0,119,120
 384.657644337 259.728996882 384.657644337 259.728996882 412.78125 341.59375 c 0,103,104
EndSplineSet
EndChar
StartChar: uniE604
Encoding: 58884 58884 6
Width: 1024
GlyphClass: 1
Flags: W
LayerCount: 2
Fore
SplineSet
512 938 m 1,0,1
 411 938 411 938 321.5 899.5 c 128,-1,2
 232 861 232 861 165.5 794.5 c 128,-1,3
 99 728 99 728 60.5 638.5 c 128,-1,4
 22 549 22 549 22 448 c 256,5,6
 22 347 22 347 60.5 257.5 c 128,-1,7
 99 168 99 168 165.5 101.5 c 128,-1,8
 232 35 232 35 321.5 -3.5 c 128,-1,9
 411 -42 411 -42 512 -42 c 256,10,11
 613 -42 613 -42 702.5 -3.5 c 128,-1,12
 792 35 792 35 858.5 101.5 c 128,-1,13
 925 168 925 168 963.5 257.5 c 128,-1,14
 1002 347 1002 347 1002 448 c 256,15,16
 1002 549 1002 549 963.5 638.5 c 128,-1,17
 925 728 925 728 858.5 794.5 c 128,-1,18
 792 861 792 861 702.5 899.5 c 128,-1,19
 613 938 613 938 512 938 c 1,20,-1
 512 938 l 1,0,1
512 -22 m 1,21,22
 415 -22 415 -22 329 15 c 128,-1,23
 243 52 243 52 179.5 115.5 c 128,-1,24
 116 179 116 179 79 265 c 128,-1,25
 42 351 42 351 42 448 c 256,26,27
 42 545 42 545 79 631 c 128,-1,28
 116 717 116 717 179.5 780.5 c 128,-1,29
 243 844 243 844 329 881 c 128,-1,30
 415 918 415 918 512 918 c 256,31,32
 609 918 609 918 695 881 c 128,-1,33
 781 844 781 844 844.5 780.5 c 128,-1,34
 908 717 908 717 945 631 c 128,-1,35
 982 545 982 545 982 448 c 256,36,37
 982 351 982 351 945 265 c 128,-1,38
 908 179 908 179 844.5 115.5 c 128,-1,39
 781 52 781 52 695 15 c 128,-1,40
 609 -22 609 -22 512 -22 c 1,41,-1
 512 -22 l 1,21,22
775 660 m 1,42,43
 746 655 746 655 722.5 640.5 c 128,-1,44
 699 626 699 626 682 603.5 c 128,-1,45
 665 581 665 581 656 551.5 c 128,-1,46
 647 522 647 522 647 488 c 0,47,48
 647 451 647 451 639 422.5 c 128,-1,49
 631 394 631 394 614.5 374.5 c 128,-1,50
 598 355 598 355 574 345 c 128,-1,51
 550 335 550 335 517 334 c 1,52,-1
 517 621 l 2,53,54
 517 623 517 623 516.5 625 c 128,-1,55
 516 627 516 627 514.5 628 c 128,-1,56
 513 629 513 629 511.5 630 c 128,-1,57
 510 631 510 631 508 631 c 256,58,59
 506 631 506 631 504 630 c 128,-1,60
 502 629 502 629 501 628 c 128,-1,61
 500 627 500 627 499 625 c 128,-1,62
 498 623 498 623 498 621 c 2,63,-1
 498 334 l 1,64,65
 466 335 466 335 441.5 345 c 128,-1,66
 417 355 417 355 400.5 374.5 c 128,-1,67
 384 394 384 394 376 422.5 c 128,-1,68
 368 451 368 451 368 488 c 0,69,70
 368 522 368 522 359 551.5 c 128,-1,71
 350 581 350 581 333 603.5 c 128,-1,72
 316 626 316 626 292.5 640.5 c 128,-1,73
 269 655 269 655 240 660 c 0,74,75
 238 660 238 660 236 659.5 c 128,-1,76
 234 659 234 659 232.5 658 c 128,-1,77
 231 657 231 657 230 655.5 c 128,-1,78
 229 654 229 654 229 652 c 256,79,80
 229 650 229 650 229 648 c 128,-1,81
 229 646 229 646 230.5 644.5 c 128,-1,82
 232 643 232 643 233.5 642 c 128,-1,83
 235 641 235 641 237 641 c 0,84,85
 263 636 263 636 283.5 623.5 c 128,-1,86
 304 611 304 611 318.5 591 c 128,-1,87
 333 571 333 571 341 545 c 128,-1,88
 349 519 349 519 349 488 c 0,89,90
 349 447 349 447 358.5 415 c 128,-1,91
 368 383 368 383 387 361 c 128,-1,92
 406 339 406 339 434 327.5 c 128,-1,93
 462 316 462 316 498 314 c 1,94,-1
 498 131 l 2,95,96
 498 129 498 129 499 127.5 c 128,-1,97
 500 126 500 126 501 124.5 c 128,-1,98
 502 123 502 123 504 122 c 128,-1,99
 506 121 506 121 508 121 c 256,100,101
 510 121 510 121 511.5 122 c 128,-1,102
 513 123 513 123 514.5 124.5 c 128,-1,103
 516 126 516 126 516.5 127.5 c 128,-1,104
 517 129 517 129 517 131 c 2,105,-1
 517 314 l 1,106,107
 553 316 553 316 581 327.5 c 128,-1,108
 609 339 609 339 628 361.5 c 128,-1,109
 647 384 647 384 656.5 415.5 c 128,-1,110
 666 447 666 447 666 488 c 0,111,112
 666 519 666 519 674 545 c 128,-1,113
 682 571 682 571 696.5 591 c 128,-1,114
 711 611 711 611 731.5 623.5 c 128,-1,115
 752 636 752 636 778 641 c 0,116,117
 780 641 780 641 781.5 642 c 128,-1,118
 783 643 783 643 784.5 644.5 c 128,-1,119
 786 646 786 646 786 648 c 128,-1,120
 786 650 786 650 786 652 c 256,121,122
 786 654 786 654 785 655.5 c 128,-1,123
 784 657 784 657 782.5 658 c 128,-1,124
 781 659 781 659 779 659.5 c 128,-1,125
 777 660 777 660 775 660 c 1,126,-1
 775 660 l 1,42,43
EndSplineSet
EndChar
StartChar: uniE607
Encoding: 58887 58887 9
Width: 1024
GlyphClass: 1
Flags: W
LayerCount: 2
Fore
SplineSet
409 134 m 1,0,-1
 323 134 l 2,1,2
 317 134 317 134 311.5 136.5 c 128,-1,3
 306 139 306 139 302 143 c 128,-1,4
 298 147 298 147 296 152 c 128,-1,5
 294 157 294 157 294 163 c 256,6,7
 294 169 294 169 296 174 c 128,-1,8
 298 179 298 179 302 183 c 128,-1,9
 306 187 306 187 311.5 189 c 128,-1,10
 317 191 317 191 323 191 c 2,11,-1
 409 191 l 2,12,13
 464 191 464 191 511.5 211.5 c 128,-1,14
 559 232 559 232 595 267 c 128,-1,15
 631 302 631 302 651.5 348.5 c 128,-1,16
 672 395 672 395 672 448 c 256,17,18
 672 501 672 501 651.5 548 c 128,-1,19
 631 595 631 595 595 629.5 c 128,-1,20
 559 664 559 664 511.5 684.5 c 128,-1,21
 464 705 464 705 409 705 c 2,22,-1
 323 705 l 2,23,24
 317 705 317 705 311.5 707 c 128,-1,25
 306 709 306 709 302 713 c 128,-1,26
 298 717 298 717 296 722 c 128,-1,27
 294 727 294 727 294 733 c 256,28,29
 294 739 294 739 296 744 c 128,-1,30
 298 749 298 749 302 753 c 128,-1,31
 306 757 306 757 311.5 759.5 c 128,-1,32
 317 762 317 762 323 762 c 2,33,-1
 409 762 l 2,34,35
 476 762 476 762 534.5 737 c 128,-1,36
 593 712 593 712 636.5 669.5 c 128,-1,37
 680 627 680 627 705 570 c 128,-1,38
 730 513 730 513 730 448 c 256,39,40
 730 383 730 383 705 326 c 128,-1,41
 680 269 680 269 636.5 226.5 c 128,-1,42
 593 184 593 184 534.5 159 c 128,-1,43
 476 134 476 134 409 134 c 1,44,-1
 409 134 l 1,0,-1
EndSplineSet
EndChar
StartChar: uniE608
Encoding: 58888 58888 10
Width: 1024
GlyphClass: 1
Flags: W
LayerCount: 2
Fore
SplineSet
512 938 m 1,0,1
 411 938 411 938 321.5 899.5 c 128,-1,2
 232 861 232 861 165.5 794.5 c 128,-1,3
 99 728 99 728 60.5 638.5 c 128,-1,4
 22 549 22 549 22 448 c 256,5,6
 22 347 22 347 60.5 257.5 c 128,-1,7
 99 168 99 168 165.5 101.5 c 128,-1,8
 232 35 232 35 321.5 -3.5 c 128,-1,9
 411 -42 411 -42 512 -42 c 256,10,11
 613 -42 613 -42 702.5 -3.5 c 128,-1,12
 792 35 792 35 858.5 101.5 c 128,-1,13
 925 168 925 168 963.5 257.5 c 128,-1,14
 1002 347 1002 347 1002 448 c 256,15,16
 1002 549 1002 549 963.5 638.5 c 128,-1,17
 925 728 925 728 858.5 794.5 c 128,-1,18
 792 861 792 861 702.5 899.5 c 128,-1,19
 613 938 613 938 512 938 c 1,20,-1
 512 938 l 1,0,1
512 -22 m 1,21,22
 415 -22 415 -22 329 15 c 128,-1,23
 243 52 243 52 179.5 115.5 c 128,-1,24
 116 179 116 179 79 265 c 128,-1,25
 42 351 42 351 42 448 c 256,26,27
 42 545 42 545 79 631 c 128,-1,28
 116 717 116 717 179.5 780.5 c 128,-1,29
 243 844 243 844 329 881 c 128,-1,30
 415 918 415 918 512 918 c 256,31,32
 609 918 609 918 695 881 c 128,-1,33
 781 844 781 844 844.5 780.5 c 128,-1,34
 908 717 908 717 945 631 c 128,-1,35
 982 545 982 545 982 448 c 256,36,37
 982 351 982 351 945 265 c 128,-1,38
 908 179 908 179 844.5 115.5 c 128,-1,39
 781 52 781 52 695 15 c 128,-1,40
 609 -22 609 -22 512 -22 c 1,41,-1
 512 -22 l 1,21,22
771 402 m 1,42,43
 771 406 771 406 771.5 409.5 c 128,-1,44
 772 413 772 413 772 417 c 128,-1,45
 772 421 772 421 772.5 424.5 c 128,-1,46
 773 428 773 428 773 432 c 0,47,48
 773 471 773 471 761 508 c 128,-1,49
 749 545 749 545 728 576.5 c 128,-1,50
 707 608 707 608 677.5 632.5 c 128,-1,51
 648 657 648 657 611 672 c 1,52,53
 612 674 612 674 612 675.5 c 128,-1,54
 612 677 612 677 612 679 c 128,-1,55
 612 681 612 681 612 682.5 c 128,-1,56
 612 684 612 684 612 686 c 0,57,58
 612 707 612 707 604 725.5 c 128,-1,59
 596 744 596 744 582 758 c 128,-1,60
 568 772 568 772 549.5 780 c 128,-1,61
 531 788 531 788 509 788 c 0,62,63
 488 788 488 788 469.5 780 c 128,-1,64
 451 772 451 772 437 758 c 128,-1,65
 423 744 423 744 415 725.5 c 128,-1,66
 407 707 407 707 407 686 c 0,67,68
 407 684 407 684 407 682 c 128,-1,69
 407 680 407 680 407 678 c 128,-1,70
 407 676 407 676 407.5 674 c 128,-1,71
 408 672 408 672 408 670 c 0,72,73
 372 655 372 655 343 630.5 c 128,-1,74
 314 606 314 606 294 575 c 128,-1,75
 274 544 274 544 262.5 507.5 c 128,-1,76
 251 471 251 471 251 432 c 0,77,78
 251 428 251 428 251.5 424.5 c 128,-1,79
 252 421 252 421 252 417 c 128,-1,80
 252 413 252 413 252.5 409.5 c 128,-1,81
 253 406 253 406 253 402 c 0,82,83
 240 396 240 396 229.5 386.5 c 128,-1,84
 219 377 219 377 211.5 365 c 128,-1,85
 204 353 204 353 199.5 339 c 128,-1,86
 195 325 195 325 195 310 c 0,87,88
 195 289 195 289 203 270 c 128,-1,89
 211 251 211 251 225 237 c 128,-1,90
 239 223 239 223 258 215 c 128,-1,91
 277 207 277 207 298 207 c 0,92,93
 306 207 306 207 313.5 208.5 c 128,-1,94
 321 210 321 210 328 212 c 128,-1,95
 335 214 335 214 341.5 217 c 128,-1,96
 348 220 348 220 355 224 c 1,97,98
 371 211 371 211 390 201.5 c 128,-1,99
 409 192 409 192 429 185 c 128,-1,100
 449 178 449 178 470 174.5 c 128,-1,101
 491 171 491 171 512 171 c 256,102,103
 533 171 533 171 554 174.5 c 128,-1,104
 575 178 575 178 595 185 c 128,-1,105
 615 192 615 192 634 201.5 c 128,-1,106
 653 211 653 211 669 224 c 1,107,108
 676 220 676 220 682.5 217 c 128,-1,109
 689 214 689 214 696 212 c 128,-1,110
 703 210 703 210 710.5 208.5 c 128,-1,111
 718 207 718 207 726 207 c 0,112,113
 747 207 747 207 766 215 c 128,-1,114
 785 223 785 223 799 237 c 128,-1,115
 813 251 813 251 821 270 c 128,-1,116
 829 289 829 289 829 310 c 0,117,118
 829 325 829 325 824.5 339 c 128,-1,119
 820 353 820 353 812.5 365 c 128,-1,120
 805 377 805 377 794.5 386.5 c 128,-1,121
 784 396 784 396 771 402 c 1,122,-1
 771 402 l 1,42,43
509 769 m 1,123,124
 527 769 527 769 542 762.5 c 128,-1,125
 557 756 557 756 568.5 744.5 c 128,-1,126
 580 733 580 733 586.5 718 c 128,-1,127
 593 703 593 703 593 686 c 0,128,129
 593 668 593 668 586.5 653 c 128,-1,130
 580 638 580 638 568.5 626.5 c 128,-1,131
 557 615 557 615 542 608.5 c 128,-1,132
 527 602 527 602 509 602 c 0,133,134
 492 602 492 602 477 608.5 c 128,-1,135
 462 615 462 615 450.5 626.5 c 128,-1,136
 439 638 439 638 432.5 653 c 128,-1,137
 426 668 426 668 426 686 c 0,138,139
 426 703 426 703 432.5 718 c 128,-1,140
 439 733 439 733 450.5 744.5 c 128,-1,141
 462 756 462 756 477 762.5 c 128,-1,142
 492 769 492 769 509 769 c 1,143,-1
 509 769 l 1,123,124
214 310 m 1,144,145
 214 327 214 327 220.5 342.5 c 128,-1,146
 227 358 227 358 238.5 369 c 128,-1,147
 250 380 250 380 265.5 387 c 128,-1,148
 281 394 281 394 298 394 c 256,149,150
 315 394 315 394 330.5 387 c 128,-1,151
 346 380 346 380 357 369 c 128,-1,152
 368 358 368 358 375 342.5 c 128,-1,153
 382 327 382 327 382 310 c 256,154,155
 382 293 382 293 375 277.5 c 128,-1,156
 368 262 368 262 357 251 c 128,-1,157
 346 240 346 240 330.5 233 c 128,-1,158
 315 226 315 226 298 226 c 256,159,160
 281 226 281 226 265.5 233 c 128,-1,161
 250 240 250 240 238.5 251 c 128,-1,162
 227 262 227 262 220.5 277.5 c 128,-1,163
 214 293 214 293 214 310 c 1,164,-1
 214 310 l 1,144,145
512 190 m 1,165,166
 493 190 493 190 474 193 c 128,-1,167
 455 196 455 196 437 202 c 128,-1,168
 419 208 419 208 402 216.5 c 128,-1,169
 385 225 385 225 370 237 c 1,170,171
 377 244 377 244 382.5 252 c 128,-1,172
 388 260 388 260 392 269.5 c 128,-1,173
 396 279 396 279 398.5 289 c 128,-1,174
 401 299 401 299 401 310 c 0,175,176
 401 331 401 331 393 350 c 128,-1,177
 385 369 385 369 371 383 c 128,-1,178
 357 397 357 397 338 405 c 128,-1,179
 319 413 319 413 298 413 c 0,180,181
 295 413 295 413 291.5 412.5 c 128,-1,182
 288 412 288 412 284.5 411.5 c 128,-1,183
 281 411 281 411 278 410.5 c 128,-1,184
 275 410 275 410 272 409 c 1,185,186
 271 412 271 412 271 415 c 128,-1,187
 271 418 271 418 271 420.5 c 128,-1,188
 271 423 271 423 271 426 c 128,-1,189
 271 429 271 429 271 432 c 0,190,191
 271 468 271 468 281 501 c 128,-1,192
 291 534 291 534 309.5 562.5 c 128,-1,193
 328 591 328 591 354 614 c 128,-1,194
 380 637 380 637 413 651 c 1,195,196
 418 637 418 637 427.5 624 c 128,-1,197
 437 611 437 611 449.5 602 c 128,-1,198
 462 593 462 593 477.5 588 c 128,-1,199
 493 583 493 583 509 583 c 0,200,201
 526 583 526 583 541.5 588 c 128,-1,202
 557 593 557 593 570 602.5 c 128,-1,203
 583 612 583 612 592.5 625 c 128,-1,204
 602 638 602 638 607 653 c 1,205,206
 640 639 640 639 667 616 c 128,-1,207
 694 593 694 593 713 564 c 128,-1,208
 732 535 732 535 742.5 501.5 c 128,-1,209
 753 468 753 468 753 432 c 0,210,211
 753 429 753 429 753 426 c 128,-1,212
 753 423 753 423 753 420.5 c 128,-1,213
 753 418 753 418 752.5 415 c 128,-1,214
 752 412 752 412 752 409 c 1,215,216
 749 410 749 410 746 410.5 c 128,-1,217
 743 411 743 411 739.5 411.5 c 128,-1,218
 736 412 736 412 732.5 412.5 c 128,-1,219
 729 413 729 413 726 413 c 0,220,221
 705 413 705 413 686 405 c 128,-1,222
 667 397 667 397 653 383 c 128,-1,223
 639 369 639 369 631 350 c 128,-1,224
 623 331 623 331 623 310 c 0,225,226
 623 299 623 299 625.5 289 c 128,-1,227
 628 279 628 279 632 269.5 c 128,-1,228
 636 260 636 260 641.5 252 c 128,-1,229
 647 244 647 244 654 237 c 1,230,231
 639 226 639 226 622 217 c 128,-1,232
 605 208 605 208 587 202 c 128,-1,233
 569 196 569 196 550 193 c 128,-1,234
 531 190 531 190 512 190 c 1,235,-1
 512 190 l 1,165,166
726 226 m 1,236,237
 709 226 709 226 693.5 233 c 128,-1,238
 678 240 678 240 667 251 c 128,-1,239
 656 262 656 262 649 277.5 c 128,-1,240
 642 293 642 293 642 310 c 256,241,242
 642 327 642 327 649 342.5 c 128,-1,243
 656 358 656 358 667 369 c 128,-1,244
 678 380 678 380 693.5 387 c 128,-1,245
 709 394 709 394 726 394 c 256,246,247
 743 394 743 394 758.5 387 c 128,-1,248
 774 380 774 380 785.5 369 c 128,-1,249
 797 358 797 358 803.5 342.5 c 128,-1,250
 810 327 810 327 810 310 c 256,251,252
 810 293 810 293 803.5 277.5 c 128,-1,253
 797 262 797 262 785.5 251 c 128,-1,254
 774 240 774 240 758.5 233 c 128,-1,255
 743 226 743 226 726 226 c 1,256,-1
 726 226 l 1,236,237
EndSplineSet
EndChar
StartChar: uniE609
Encoding: 58889 58889 11
Width: 1024
GlyphClass: 1
Flags: W
LayerCount: 2
Fore
SplineSet
512 778 m 1,0,1
 444 778 444 778 384 752 c 128,-1,2
 324 726 324 726 279 681 c 128,-1,3
 234 636 234 636 208 576 c 128,-1,4
 182 516 182 516 182 448 c 256,5,6
 182 380 182 380 208 320 c 128,-1,7
 234 260 234 260 279 215 c 128,-1,8
 324 170 324 170 384 144 c 128,-1,9
 444 118 444 118 512 118 c 256,10,11
 580 118 580 118 640 144 c 128,-1,12
 700 170 700 170 745 215 c 128,-1,13
 790 260 790 260 816 320 c 128,-1,14
 842 380 842 380 842 448 c 256,15,16
 842 516 842 516 816 576 c 128,-1,17
 790 636 790 636 745 681 c 128,-1,18
 700 726 700 726 640 752 c 128,-1,19
 580 778 580 778 512 778 c 1,20,-1
 512 778 l 1,0,1
512 138 m 1,21,22
 448 138 448 138 391.5 162 c 128,-1,23
 335 186 335 186 292.5 228.5 c 128,-1,24
 250 271 250 271 226 327.5 c 128,-1,25
 202 384 202 384 202 448 c 256,26,27
 202 512 202 512 226 568.5 c 128,-1,28
 250 625 250 625 292.5 667.5 c 128,-1,29
 335 710 335 710 391.5 734 c 128,-1,30
 448 758 448 758 512 758 c 256,31,32
 576 758 576 758 632.5 734 c 128,-1,33
 689 710 689 710 731.5 667.5 c 128,-1,34
 774 625 774 625 798 568.5 c 128,-1,35
 822 512 822 512 822 448 c 256,36,37
 822 384 822 384 798 327.5 c 128,-1,38
 774 271 774 271 731.5 228.5 c 128,-1,39
 689 186 689 186 632.5 162 c 128,-1,40
 576 138 576 138 512 138 c 1,41,-1
 512 138 l 1,21,22
374 626 m 1,42,43
 365 626 365 626 358 623 c 128,-1,44
 351 620 351 620 345.5 614.5 c 128,-1,45
 340 609 340 609 337 602 c 128,-1,46
 334 595 334 595 334 586 c 0,47,48
 334 578 334 578 337 570.5 c 128,-1,49
 340 563 340 563 345.5 557.5 c 128,-1,50
 351 552 351 552 358 549 c 128,-1,51
 365 546 365 546 374 546 c 0,52,53
 382 546 382 546 389.5 549 c 128,-1,54
 397 552 397 552 402.5 557.5 c 128,-1,55
 408 563 408 563 411 570.5 c 128,-1,56
 414 578 414 578 414 586 c 0,57,58
 414 595 414 595 411 602 c 128,-1,59
 408 609 408 609 402.5 614.5 c 128,-1,60
 397 620 397 620 389.5 623 c 128,-1,61
 382 626 382 626 374 626 c 1,62,-1
 374 626 l 1,42,43
650 350 m 1,63,64
 642 350 642 350 634.5 347 c 128,-1,65
 627 344 627 344 621.5 338.5 c 128,-1,66
 616 333 616 333 613 325.5 c 128,-1,67
 610 318 610 318 610 310 c 0,68,69
 610 301 610 301 613 294 c 128,-1,70
 616 287 616 287 621.5 281.5 c 128,-1,71
 627 276 627 276 634.5 273 c 128,-1,72
 642 270 642 270 650 270 c 0,73,74
 659 270 659 270 666 273 c 128,-1,75
 673 276 673 276 678.5 281.5 c 128,-1,76
 684 287 684 287 687 294 c 128,-1,77
 690 301 690 301 690 310 c 0,78,79
 690 318 690 318 687 325.5 c 128,-1,80
 684 333 684 333 678.5 338.5 c 128,-1,81
 673 344 673 344 666 347 c 128,-1,82
 659 350 659 350 650 350 c 1,83,-1
 650 350 l 1,63,64
EndSplineSet
EndChar
StartChar: uniE60A
Encoding: 58890 58890 12
Width: 1024
GlyphClass: 1
Flags: W
LayerCount: 2
Fore
SplineSet
512 778 m 1,0,1
 444 778 444 778 384 752 c 128,-1,2
 324 726 324 726 279 681 c 128,-1,3
 234 636 234 636 208 576 c 128,-1,4
 182 516 182 516 182 448 c 256,5,6
 182 380 182 380 208 320 c 128,-1,7
 234 260 234 260 279 215 c 128,-1,8
 324 170 324 170 384 144 c 128,-1,9
 444 118 444 118 512 118 c 256,10,11
 580 118 580 118 640 144 c 128,-1,12
 700 170 700 170 745 215 c 128,-1,13
 790 260 790 260 816 320 c 128,-1,14
 842 380 842 380 842 448 c 256,15,16
 842 516 842 516 816 576 c 128,-1,17
 790 636 790 636 745 681 c 128,-1,18
 700 726 700 726 640 752 c 128,-1,19
 580 778 580 778 512 778 c 1,20,-1
 512 778 l 1,0,1
512 138 m 1,21,22
 448 138 448 138 391.5 162 c 128,-1,23
 335 186 335 186 292.5 228.5 c 128,-1,24
 250 271 250 271 226 327.5 c 128,-1,25
 202 384 202 384 202 448 c 256,26,27
 202 512 202 512 226 568.5 c 128,-1,28
 250 625 250 625 292.5 667.5 c 128,-1,29
 335 710 335 710 391.5 734 c 128,-1,30
 448 758 448 758 512 758 c 256,31,32
 576 758 576 758 632.5 734 c 128,-1,33
 689 710 689 710 731.5 667.5 c 128,-1,34
 774 625 774 625 798 568.5 c 128,-1,35
 822 512 822 512 822 448 c 256,36,37
 822 384 822 384 798 327.5 c 128,-1,38
 774 271 774 271 731.5 228.5 c 128,-1,39
 689 186 689 186 632.5 162 c 128,-1,40
 576 138 576 138 512 138 c 1,41,-1
 512 138 l 1,21,22
374 626 m 1,42,43
 365 626 365 626 358 623 c 128,-1,44
 351 620 351 620 345.5 614.5 c 128,-1,45
 340 609 340 609 337 602 c 128,-1,46
 334 595 334 595 334 586 c 0,47,48
 334 578 334 578 337 570.5 c 128,-1,49
 340 563 340 563 345.5 557.5 c 128,-1,50
 351 552 351 552 358 549 c 128,-1,51
 365 546 365 546 374 546 c 0,52,53
 382 546 382 546 389.5 549 c 128,-1,54
 397 552 397 552 402.5 557.5 c 128,-1,55
 408 563 408 563 411 570.5 c 128,-1,56
 414 578 414 578 414 586 c 0,57,58
 414 595 414 595 411 602 c 128,-1,59
 408 609 408 609 402.5 614.5 c 128,-1,60
 397 620 397 620 389.5 623 c 128,-1,61
 382 626 382 626 374 626 c 1,62,-1
 374 626 l 1,42,43
650 626 m 1,63,64
 642 626 642 626 634.5 623 c 128,-1,65
 627 620 627 620 621.5 614.5 c 128,-1,66
 616 609 616 609 613 602 c 128,-1,67
 610 595 610 595 610 586 c 0,68,69
 610 578 610 578 613 570.5 c 128,-1,70
 616 563 616 563 621.5 557.5 c 128,-1,71
 627 552 627 552 634.5 549 c 128,-1,72
 642 546 642 546 650 546 c 0,73,74
 659 546 659 546 666 549 c 128,-1,75
 673 552 673 552 678.5 557.5 c 128,-1,76
 684 563 684 563 687 570.5 c 128,-1,77
 690 578 690 578 690 586 c 0,78,79
 690 595 690 595 687 602 c 128,-1,80
 684 609 684 609 678.5 614.5 c 128,-1,81
 673 620 673 620 666 623 c 128,-1,82
 659 626 659 626 650 626 c 1,83,-1
 650 626 l 1,63,64
374 350 m 1,84,85
 365 350 365 350 358 347 c 128,-1,86
 351 344 351 344 345.5 338.5 c 128,-1,87
 340 333 340 333 337 325.5 c 128,-1,88
 334 318 334 318 334 310 c 0,89,90
 334 301 334 301 337 294 c 128,-1,91
 340 287 340 287 345.5 281.5 c 128,-1,92
 351 276 351 276 358 273 c 128,-1,93
 365 270 365 270 374 270 c 0,94,95
 382 270 382 270 389.5 273 c 128,-1,96
 397 276 397 276 402.5 281.5 c 128,-1,97
 408 287 408 287 411 294 c 128,-1,98
 414 301 414 301 414 310 c 0,99,100
 414 318 414 318 411 325.5 c 128,-1,101
 408 333 408 333 402.5 338.5 c 128,-1,102
 397 344 397 344 389.5 347 c 128,-1,103
 382 350 382 350 374 350 c 1,104,-1
 374 350 l 1,84,85
650 350 m 1,105,106
 642 350 642 350 634.5 347 c 128,-1,107
 627 344 627 344 621.5 338.5 c 128,-1,108
 616 333 616 333 613 325.5 c 128,-1,109
 610 318 610 318 610 310 c 0,110,111
 610 301 610 301 613 294 c 128,-1,112
 616 287 616 287 621.5 281.5 c 128,-1,113
 627 276 627 276 634.5 273 c 128,-1,114
 642 270 642 270 650 270 c 0,115,116
 659 270 659 270 666 273 c 128,-1,117
 673 276 673 276 678.5 281.5 c 128,-1,118
 684 287 684 287 687 294 c 128,-1,119
 690 301 690 301 690 310 c 0,120,121
 690 318 690 318 687 325.5 c 128,-1,122
 684 333 684 333 678.5 338.5 c 128,-1,123
 673 344 673 344 666 347 c 128,-1,124
 659 350 659 350 650 350 c 1,125,-1
 650 350 l 1,105,106
EndSplineSet
EndChar
StartChar: uniE60B
Encoding: 58891 58891 13
Width: 1024
GlyphClass: 1
Flags: W
LayerCount: 2
Fore
SplineSet
512 938 m 1,0,1
 411 938 411 938 321.5 899.5 c 128,-1,2
 232 861 232 861 165.5 794.5 c 128,-1,3
 99 728 99 728 60.5 638.5 c 128,-1,4
 22 549 22 549 22 448 c 256,5,6
 22 347 22 347 60.5 257.5 c 128,-1,7
 99 168 99 168 165.5 101.5 c 128,-1,8
 232 35 232 35 321.5 -3.5 c 128,-1,9
 411 -42 411 -42 512 -42 c 256,10,11
 613 -42 613 -42 702.5 -3.5 c 128,-1,12
 792 35 792 35 858.5 101.5 c 128,-1,13
 925 168 925 168 963.5 257.5 c 128,-1,14
 1002 347 1002 347 1002 448 c 256,15,16
 1002 549 1002 549 963.5 638.5 c 128,-1,17
 925 728 925 728 858.5 794.5 c 128,-1,18
 792 861 792 861 702.5 899.5 c 128,-1,19
 613 938 613 938 512 938 c 1,20,-1
 512 938 l 1,0,1
512 -22 m 1,21,22
 415 -22 415 -22 329 15 c 128,-1,23
 243 52 243 52 179.5 115.5 c 128,-1,24
 116 179 116 179 79 265 c 128,-1,25
 42 351 42 351 42 448 c 256,26,27
 42 545 42 545 79 631 c 128,-1,28
 116 717 116 717 179.5 780.5 c 128,-1,29
 243 844 243 844 329 881 c 128,-1,30
 415 918 415 918 512 918 c 256,31,32
 609 918 609 918 695 881 c 128,-1,33
 781 844 781 844 844.5 780.5 c 128,-1,34
 908 717 908 717 945 631 c 128,-1,35
 982 545 982 545 982 448 c 256,36,37
 982 351 982 351 945 265 c 128,-1,38
 908 179 908 179 844.5 115.5 c 128,-1,39
 781 52 781 52 695 15 c 128,-1,40
 609 -22 609 -22 512 -22 c 1,41,-1
 512 -22 l 1,21,22
791 621 m 1,42,-1
 233 621 l 2,43,44
 231 621 231 621 229 620.5 c 128,-1,45
 227 620 227 620 226 618.5 c 128,-1,46
 225 617 225 617 224 615.5 c 128,-1,47
 223 614 223 614 223 612 c 2,48,-1
 223 284 l 2,49,50
 223 282 223 282 224 280.5 c 128,-1,51
 225 279 225 279 226 277.5 c 128,-1,52
 227 276 227 276 229 275.5 c 128,-1,53
 231 275 231 275 233 275 c 2,54,-1
 791 275 l 2,55,56
 793 275 793 275 795 275.5 c 128,-1,57
 797 276 797 276 798 277.5 c 128,-1,58
 799 279 799 279 800 280.5 c 128,-1,59
 801 282 801 282 801 284 c 2,60,-1
 801 612 l 2,61,62
 801 614 801 614 800 615.5 c 128,-1,63
 799 617 799 617 798 618.5 c 128,-1,64
 797 620 797 620 795 620.5 c 128,-1,65
 793 621 793 621 791 621 c 1,66,-1
 791 621 l 1,42,-1
508 423 m 1,67,-1
 266 602 l 1,68,-1
 756 602 l 1,69,-1
 508 423 l 1,70,-1
 508 423 l 1,67,-1
242 294 m 1,71,-1
 242 596 l 1,72,-1
 500 405 l 2,73,74
 501 404 501 404 501.5 403.5 c 128,-1,75
 502 403 502 403 503 403 c 128,-1,76
 504 403 504 403 504.5 403 c 128,-1,77
 505 403 505 403 506 403 c 1,78,79
 506 403 506 403 506 403 c 129,-1,80
 506 403 506 403 506.5 403 c 128,-1,81
 507 403 507 403 507 403 c 129,-1,82
 507 403 507 403 508 403 c 1,83,84
 508 403 508 403 508 403 c 129,-1,85
 508 403 508 403 508.5 403 c 128,-1,86
 509 403 509 403 509 403 c 129,-1,87
 509 403 509 403 509 403 c 1,88,89
 510 403 510 403 510.5 403 c 128,-1,90
 511 403 511 403 512 403 c 128,-1,91
 513 403 513 403 513.5 403.5 c 128,-1,92
 514 404 514 404 515 404 c 2,93,-1
 782 597 l 1,94,-1
 782 294 l 1,95,-1
 242 294 l 1,96,-1
 242 294 l 1,71,-1
EndSplineSet
EndChar
StartChar: uniE60C
Encoding: 58892 58892 14
Width: 1024
GlyphClass: 1
Flags: W
LayerCount: 2
Fore
SplineSet
589 523 m 1,0,1
 589 539 589 539 583 553 c 128,-1,2
 577 567 577 567 566.5 577.5 c 128,-1,3
 556 588 556 588 542 594 c 128,-1,4
 528 600 528 600 512 600 c 256,5,6
 496 600 496 600 482 594 c 128,-1,7
 468 588 468 588 457.5 577.5 c 128,-1,8
 447 567 447 567 441 553 c 128,-1,9
 435 539 435 539 435 523 c 256,10,11
 435 507 435 507 441 493 c 128,-1,12
 447 479 447 479 457.5 468.5 c 128,-1,13
 468 458 468 458 482 452 c 128,-1,14
 496 446 496 446 512 446 c 256,15,16
 528 446 528 446 542 452 c 128,-1,17
 556 458 556 458 566.5 468.5 c 128,-1,18
 577 479 577 479 583 493 c 128,-1,19
 589 507 589 507 589 523 c 1,20,-1
 589 523 l 1,0,1
450 523 m 1,21,22
 450 536 450 536 455 547.5 c 128,-1,23
 460 559 460 559 468 567 c 128,-1,24
 476 575 476 575 487.5 580 c 128,-1,25
 499 585 499 585 512 585 c 256,26,27
 525 585 525 585 536.5 580 c 128,-1,28
 548 575 548 575 556 567 c 128,-1,29
 564 559 564 559 569 547.5 c 128,-1,30
 574 536 574 536 574 523 c 256,31,32
 574 510 574 510 569 498.5 c 128,-1,33
 564 487 564 487 556 479 c 128,-1,34
 548 471 548 471 536.5 466 c 128,-1,35
 525 461 525 461 512 461 c 256,36,37
 499 461 499 461 487.5 466 c 128,-1,38
 476 471 476 471 468 479 c 128,-1,39
 460 487 460 487 455 498.5 c 128,-1,40
 450 510 450 510 450 523 c 1,41,-1
 450 523 l 1,21,22
479 340 m 1,42,43
 478 340 478 340 476.5 339.5 c 128,-1,44
 475 339 475 339 474 338 c 128,-1,45
 473 337 473 337 472.5 335.5 c 128,-1,46
 472 334 472 334 472 332 c 2,47,-1
 472 72 l 2,48,49
 472 70 472 70 472.5 68.5 c 128,-1,50
 473 67 473 67 474 66 c 128,-1,51
 475 65 475 65 476.5 64.5 c 128,-1,52
 478 64 478 64 479 64 c 0,53,54
 481 64 481 64 482.5 64.5 c 128,-1,55
 484 65 484 65 485 66 c 128,-1,56
 486 67 486 67 486.5 68.5 c 128,-1,57
 487 70 487 70 487 72 c 2,58,-1
 487 332 l 2,59,60
 487 334 487 334 486.5 335.5 c 128,-1,61
 486 337 486 337 485 338 c 128,-1,62
 484 339 484 339 482.5 339.5 c 128,-1,63
 481 340 481 340 479 340 c 1,64,-1
 479 340 l 1,42,43
539 340 m 1,65,66
 538 340 538 340 536.5 339.5 c 128,-1,67
 535 339 535 339 534 338 c 128,-1,68
 533 337 533 337 532.5 335.5 c 128,-1,69
 532 334 532 334 532 332 c 2,70,-1
 532 72 l 2,71,72
 532 70 532 70 532.5 68.5 c 128,-1,73
 533 67 533 67 534 66 c 128,-1,74
 535 65 535 65 536.5 64.5 c 128,-1,75
 538 64 538 64 539 64 c 0,76,77
 541 64 541 64 542.5 64.5 c 128,-1,78
 544 65 544 65 545 66 c 128,-1,79
 546 67 546 67 546.5 68.5 c 128,-1,80
 547 70 547 70 547 72 c 2,81,-1
 547 332 l 2,82,83
 547 334 547 334 546.5 335.5 c 128,-1,84
 546 337 546 337 545 338 c 128,-1,85
 544 339 544 339 542.5 339.5 c 128,-1,86
 541 340 541 340 539 340 c 1,87,-1
 539 340 l 1,65,66
512 408 m 1,88,89
 488 408 488 408 467.5 399 c 128,-1,90
 447 390 447 390 431.5 375 c 128,-1,91
 416 360 416 360 407 339 c 128,-1,92
 398 318 398 318 398 295 c 2,93,-1
 398 273 l 2,94,95
 398 271 398 271 398.5 269.5 c 128,-1,96
 399 268 399 268 400 267 c 128,-1,97
 401 266 401 266 402.5 265.5 c 128,-1,98
 404 265 404 265 406 265 c 0,99,100
 407 265 407 265 408.5 265.5 c 128,-1,101
 410 266 410 266 411 267 c 128,-1,102
 412 268 412 268 412.5 269.5 c 128,-1,103
 413 271 413 271 413 273 c 2,104,-1
 413 295 l 2,105,106
 413 315 413 315 421 333 c 128,-1,107
 429 351 429 351 442.5 364.5 c 128,-1,108
 456 378 456 378 474 385.5 c 128,-1,109
 492 393 492 393 512 393 c 256,110,111
 532 393 532 393 550 385.5 c 128,-1,112
 568 378 568 378 581.5 364.5 c 128,-1,113
 595 351 595 351 603 333 c 128,-1,114
 611 315 611 315 611 295 c 2,115,-1
 611 273 l 2,116,117
 611 271 611 271 611.5 269.5 c 128,-1,118
 612 268 612 268 613 267 c 128,-1,119
 614 266 614 266 615.5 265.5 c 128,-1,120
 617 265 617 265 618 265 c 0,121,122
 620 265 620 265 621.5 265.5 c 128,-1,123
 623 266 623 266 624 267 c 128,-1,124
 625 268 625 268 625.5 269.5 c 128,-1,125
 626 271 626 271 626 273 c 2,126,-1
 626 295 l 2,127,128
 626 318 626 318 617 339 c 128,-1,129
 608 360 608 360 592.5 375 c 128,-1,130
 577 390 577 390 556.5 399 c 128,-1,131
 536 408 536 408 512 408 c 1,132,-1
 512 408 l 1,88,89
844 436 m 1,133,-1
 518 829 l 2,134,135
 517 831 517 831 515.5 831.5 c 128,-1,136
 514 832 514 832 512 832 c 128,-1,137
 510 832 510 832 508.5 831.5 c 128,-1,138
 507 831 507 831 506 829 c 2,139,-1
 180 436 l 2,140,141
 179 435 179 435 179 433.5 c 128,-1,142
 179 432 179 432 179 430.5 c 128,-1,143
 179 429 179 429 179.5 428 c 128,-1,144
 180 427 180 427 181 426 c 0,145,146
 183 425 183 425 184 424.5 c 128,-1,147
 185 424 185 424 186.5 424 c 128,-1,148
 188 424 188 424 189.5 424.5 c 128,-1,149
 191 425 191 425 192 427 c 2,150,-1
 251 498 l 1,151,-1
 251 221 l 2,152,153
 251 219 251 219 251.5 218 c 128,-1,154
 252 217 252 217 253 216 c 128,-1,155
 254 215 254 215 255.5 214 c 128,-1,156
 257 213 257 213 259 213 c 0,157,158
 260 213 260 213 261.5 214 c 128,-1,159
 263 215 263 215 264 216 c 128,-1,160
 265 217 265 217 265.5 218 c 128,-1,161
 266 219 266 219 266 221 c 2,162,-1
 266 516 l 1,163,-1
 512 813 l 1,164,-1
 758 516 l 1,165,-1
 758 221 l 2,166,167
 758 219 758 219 758.5 218 c 128,-1,168
 759 217 759 217 760 216 c 128,-1,169
 761 215 761 215 762.5 214 c 128,-1,170
 764 213 764 213 766 213 c 0,171,172
 767 213 767 213 768.5 214 c 128,-1,173
 770 215 770 215 771 216 c 128,-1,174
 772 217 772 217 772.5 218 c 128,-1,175
 773 219 773 219 773 221 c 2,176,-1
 773 498 l 1,177,-1
 832 427 l 2,178,179
 833 426 833 426 833.5 425.5 c 128,-1,180
 834 425 834 425 834.5 424.5 c 128,-1,181
 835 424 835 424 836 424 c 128,-1,182
 837 424 837 424 838 424 c 2,183,184
 838 424 838 424 839 424 c 128,-1,185
 840 424 840 424 840.5 424 c 128,-1,186
 841 424 841 424 841.5 424.5 c 128,-1,187
 842 425 842 425 843 426 c 256,188,189
 844 427 844 427 844.5 428 c 128,-1,190
 845 429 845 429 845 430.5 c 128,-1,191
 845 432 845 432 845 433.5 c 128,-1,192
 845 435 845 435 844 436 c 1,193,-1
 844 436 l 1,133,-1
EndSplineSet
EndChar
StartChar: uniE60D
Encoding: 58893 58893 15
Width: 1024
GlyphClass: 1
Flags: W
LayerCount: 2
Fore
SplineSet
512 938 m 1,0,1
 411 938 411 938 321.5 899.5 c 128,-1,2
 232 861 232 861 165.5 794.5 c 128,-1,3
 99 728 99 728 60.5 638.5 c 128,-1,4
 22 549 22 549 22 448 c 256,5,6
 22 347 22 347 60.5 257.5 c 128,-1,7
 99 168 99 168 165.5 101.5 c 128,-1,8
 232 35 232 35 321.5 -3.5 c 128,-1,9
 411 -42 411 -42 512 -42 c 256,10,11
 613 -42 613 -42 702.5 -3.5 c 128,-1,12
 792 35 792 35 858.5 101.5 c 128,-1,13
 925 168 925 168 963.5 257.5 c 128,-1,14
 1002 347 1002 347 1002 448 c 256,15,16
 1002 549 1002 549 963.5 638.5 c 128,-1,17
 925 728 925 728 858.5 794.5 c 128,-1,18
 792 861 792 861 702.5 899.5 c 128,-1,19
 613 938 613 938 512 938 c 1,20,-1
 512 938 l 1,0,1
512 -22 m 1,21,22
 415 -22 415 -22 329 15 c 128,-1,23
 243 52 243 52 179.5 115.5 c 128,-1,24
 116 179 116 179 79 265 c 128,-1,25
 42 351 42 351 42 448 c 256,26,27
 42 545 42 545 79 631 c 128,-1,28
 116 717 116 717 179.5 780.5 c 128,-1,29
 243 844 243 844 329 881 c 128,-1,30
 415 918 415 918 512 918 c 256,31,32
 609 918 609 918 695 881 c 128,-1,33
 781 844 781 844 844.5 780.5 c 128,-1,34
 908 717 908 717 945 631 c 128,-1,35
 982 545 982 545 982 448 c 256,36,37
 982 351 982 351 945 265 c 128,-1,38
 908 179 908 179 844.5 115.5 c 128,-1,39
 781 52 781 52 695 15 c 128,-1,40
 609 -22 609 -22 512 -22 c 1,41,-1
 512 -22 l 1,21,22
512 742 m 1,42,43
 451 742 451 742 397.5 719 c 128,-1,44
 344 696 344 696 304 656 c 128,-1,45
 264 616 264 616 241 562.5 c 128,-1,46
 218 509 218 509 218 448 c 256,47,48
 218 387 218 387 241 333.5 c 128,-1,49
 264 280 264 280 304 240 c 128,-1,50
 344 200 344 200 397.5 177 c 128,-1,51
 451 154 451 154 512 154 c 256,52,53
 573 154 573 154 626.5 177 c 128,-1,54
 680 200 680 200 720 240 c 128,-1,55
 760 280 760 280 783 333.5 c 128,-1,56
 806 387 806 387 806 448 c 256,57,58
 806 509 806 509 783 562.5 c 128,-1,59
 760 616 760 616 720 656 c 128,-1,60
 680 696 680 696 626.5 719 c 128,-1,61
 573 742 573 742 512 742 c 1,62,-1
 512 742 l 1,42,43
512 173 m 1,63,64
 455 173 455 173 405 194.5 c 128,-1,65
 355 216 355 216 317.5 253.5 c 128,-1,66
 280 291 280 291 258.5 341 c 128,-1,67
 237 391 237 391 237 448 c 256,68,69
 237 505 237 505 258.5 555 c 128,-1,70
 280 605 280 605 317.5 642.5 c 128,-1,71
 355 680 355 680 405 701.5 c 128,-1,72
 455 723 455 723 512 723 c 256,73,74
 569 723 569 723 619 701.5 c 128,-1,75
 669 680 669 680 706.5 642.5 c 128,-1,76
 744 605 744 605 765.5 555 c 128,-1,77
 787 505 787 505 787 448 c 256,78,79
 787 391 787 391 765.5 341 c 128,-1,80
 744 291 744 291 706.5 253.5 c 128,-1,81
 669 216 669 216 619 194.5 c 128,-1,82
 569 173 569 173 512 173 c 1,83,-1
 512 173 l 1,63,64
512 567 m 1,84,85
 487 567 487 567 465.5 557.5 c 128,-1,86
 444 548 444 548 428 532 c 128,-1,87
 412 516 412 516 402.5 494.5 c 128,-1,88
 393 473 393 473 393 448 c 256,89,90
 393 423 393 423 402.5 401.5 c 128,-1,91
 412 380 412 380 428 364 c 128,-1,92
 444 348 444 348 465.5 338.5 c 128,-1,93
 487 329 487 329 512 329 c 256,94,95
 537 329 537 329 558.5 338.5 c 128,-1,96
 580 348 580 348 596 364 c 128,-1,97
 612 380 612 380 621.5 401.5 c 128,-1,98
 631 423 631 423 631 448 c 256,99,100
 631 473 631 473 621.5 494.5 c 128,-1,101
 612 516 612 516 596 532 c 128,-1,102
 580 548 580 548 558.5 557.5 c 128,-1,103
 537 567 537 567 512 567 c 1,104,-1
 512 567 l 1,84,85
512 348 m 1,105,106
 491 348 491 348 473 356 c 128,-1,107
 455 364 455 364 441.5 377.5 c 128,-1,108
 428 391 428 391 420 409 c 128,-1,109
 412 427 412 427 412 448 c 256,110,111
 412 469 412 469 420 487 c 128,-1,112
 428 505 428 505 441.5 518.5 c 128,-1,113
 455 532 455 532 473 540 c 128,-1,114
 491 548 491 548 512 548 c 256,115,116
 533 548 533 548 551 540 c 128,-1,117
 569 532 569 532 582.5 518.5 c 128,-1,118
 596 505 596 505 604 487 c 128,-1,119
 612 469 612 469 612 448 c 256,120,121
 612 427 612 427 604 409 c 128,-1,122
 596 391 596 391 582.5 377.5 c 128,-1,123
 569 364 569 364 551 356 c 128,-1,124
 533 348 533 348 512 348 c 1,125,-1
 512 348 l 1,105,106
EndSplineSet
EndChar
StartChar: uniE60E
Encoding: 58894 58894 16
Width: 1024
GlyphClass: 1
Flags: W
LayerCount: 2
Fore
SplineSet
673 659 m 1,0,1
 655 659 655 659 639.5 665.5 c 128,-1,2
 624 672 624 672 612 684 c 128,-1,3
 600 696 600 696 593.5 711.5 c 128,-1,4
 587 727 587 727 587 745 c 256,5,6
 587 763 587 763 593.5 779 c 128,-1,7
 600 795 600 795 612 806.5 c 128,-1,8
 624 818 624 818 639.5 825 c 128,-1,9
 655 832 655 832 673 832 c 256,10,11
 691 832 691 832 707 825 c 128,-1,12
 723 818 723 818 734.5 806.5 c 128,-1,13
 746 795 746 795 753 779 c 128,-1,14
 760 763 760 763 760 745 c 256,15,16
 760 727 760 727 753 711.5 c 128,-1,17
 746 696 746 696 734.5 684 c 128,-1,18
 723 672 723 672 707 665.5 c 128,-1,19
 691 659 691 659 673 659 c 1,20,-1
 673 659 l 1,0,1
673 817 m 1,21,22
 659 817 659 817 645.5 811.5 c 128,-1,23
 632 806 632 806 622.5 796 c 128,-1,24
 613 786 613 786 607.5 773 c 128,-1,25
 602 760 602 760 602 745 c 0,26,27
 602 731 602 731 607.5 718 c 128,-1,28
 613 705 613 705 622.5 695 c 128,-1,29
 632 685 632 685 645.5 679.5 c 128,-1,30
 659 674 659 674 673 674 c 0,31,32
 688 674 688 674 701 679.5 c 128,-1,33
 714 685 714 685 724 695 c 128,-1,34
 734 705 734 705 739.5 718 c 128,-1,35
 745 731 745 731 745 745 c 0,36,37
 745 760 745 760 739.5 773 c 128,-1,38
 734 786 734 786 724 796 c 128,-1,39
 714 806 714 806 701 811.5 c 128,-1,40
 688 817 688 817 673 817 c 1,41,-1
 673 817 l 1,21,22
636 64 m 1,42,43
 635 64 635 64 633.5 64.5 c 128,-1,44
 632 65 632 65 631 66 c 128,-1,45
 630 67 630 67 629.5 68.5 c 128,-1,46
 629 70 629 70 629 72 c 2,47,-1
 629 511 l 2,48,49
 629 512 629 512 629.5 513.5 c 128,-1,50
 630 515 630 515 631 516 c 128,-1,51
 632 517 632 517 633.5 517.5 c 128,-1,52
 635 518 635 518 636 518 c 0,53,54
 638 518 638 518 639.5 517.5 c 128,-1,55
 641 517 641 517 642 516 c 128,-1,56
 643 515 643 515 643.5 513.5 c 128,-1,57
 644 512 644 512 644 511 c 2,58,-1
 644 72 l 2,59,60
 644 70 644 70 643.5 68.5 c 128,-1,61
 643 67 643 67 642 66 c 128,-1,62
 641 65 641 65 639.5 64.5 c 128,-1,63
 638 64 638 64 636 64 c 1,64,-1
 636 64 l 1,42,43
704 64 m 1,65,66
 703 64 703 64 701.5 64.5 c 128,-1,67
 700 65 700 65 699 66 c 128,-1,68
 698 67 698 67 697.5 68.5 c 128,-1,69
 697 70 697 70 697 72 c 2,70,-1
 697 511 l 2,71,72
 697 512 697 512 697.5 513.5 c 128,-1,73
 698 515 698 515 699 516 c 128,-1,74
 700 517 700 517 701.5 517.5 c 128,-1,75
 703 518 703 518 704 518 c 0,76,77
 706 518 706 518 707.5 517.5 c 128,-1,78
 709 517 709 517 710 516 c 128,-1,79
 711 515 711 515 711.5 513.5 c 128,-1,80
 712 512 712 512 712 511 c 2,81,-1
 712 72 l 2,82,83
 712 70 712 70 711.5 68.5 c 128,-1,84
 711 67 711 67 710 66 c 128,-1,85
 709 65 709 65 707.5 64.5 c 128,-1,86
 706 64 706 64 704 64 c 1,87,-1
 704 64 l 1,65,66
794 454 m 1,88,89
 792 454 792 454 790.5 454.5 c 128,-1,90
 789 455 789 455 788 456.5 c 128,-1,91
 787 458 787 458 786.5 459 c 128,-1,92
 786 460 786 460 786 462 c 2,93,-1
 786 487 l 2,94,95
 786 510 786 510 777 530.5 c 128,-1,96
 768 551 768 551 753 566.5 c 128,-1,97
 738 582 738 582 717.5 590.5 c 128,-1,98
 697 599 697 599 673 599 c 0,99,100
 650 599 650 599 629.5 590.5 c 128,-1,101
 609 582 609 582 593.5 566.5 c 128,-1,102
 578 551 578 551 569 530.5 c 128,-1,103
 560 510 560 510 560 487 c 2,104,-1
 560 462 l 2,105,106
 560 460 560 460 559.5 459 c 128,-1,107
 559 458 559 458 558 456.5 c 128,-1,108
 557 455 557 455 555.5 454.5 c 128,-1,109
 554 454 554 454 553 454 c 0,110,111
 551 454 551 454 550 454.5 c 128,-1,112
 549 455 549 455 548 456.5 c 128,-1,113
 547 458 547 458 546 459 c 128,-1,114
 545 460 545 460 545 462 c 2,115,-1
 545 487 l 2,116,117
 545 513 545 513 555.5 536.5 c 128,-1,118
 566 560 566 560 583 577 c 128,-1,119
 600 594 600 594 623.5 604 c 128,-1,120
 647 614 647 614 673 614 c 0,121,122
 700 614 700 614 723 604 c 128,-1,123
 746 594 746 594 763.5 577 c 128,-1,124
 781 560 781 560 791 536.5 c 128,-1,125
 801 513 801 513 801 487 c 2,126,-1
 801 462 l 2,127,128
 801 460 801 460 800.5 459 c 128,-1,129
 800 458 800 458 799 456.5 c 128,-1,130
 798 455 798 455 796.5 454.5 c 128,-1,131
 795 454 795 454 794 454 c 1,132,-1
 794 454 l 1,88,89
351 659 m 1,133,134
 333 659 333 659 317 665.5 c 128,-1,135
 301 672 301 672 289.5 684 c 128,-1,136
 278 696 278 696 271 711.5 c 128,-1,137
 264 727 264 727 264 745 c 256,138,139
 264 763 264 763 271 779 c 128,-1,140
 278 795 278 795 289.5 806.5 c 128,-1,141
 301 818 301 818 317 825 c 128,-1,142
 333 832 333 832 351 832 c 256,143,144
 369 832 369 832 384.5 825 c 128,-1,145
 400 818 400 818 412 806.5 c 128,-1,146
 424 795 424 795 430.5 779 c 128,-1,147
 437 763 437 763 437 745 c 256,148,149
 437 727 437 727 430.5 711.5 c 128,-1,150
 424 696 424 696 412 684 c 128,-1,151
 400 672 400 672 384.5 665.5 c 128,-1,152
 369 659 369 659 351 659 c 1,153,-1
 351 659 l 1,133,134
351 817 m 1,154,155
 336 817 336 817 323 811.5 c 128,-1,156
 310 806 310 806 300 796 c 128,-1,157
 290 786 290 786 284.5 773 c 128,-1,158
 279 760 279 760 279 745 c 0,159,160
 279 731 279 731 284.5 718 c 128,-1,161
 290 705 290 705 300 695 c 128,-1,162
 310 685 310 685 323 679.5 c 128,-1,163
 336 674 336 674 351 674 c 0,164,165
 365 674 365 674 378.5 679.5 c 128,-1,166
 392 685 392 685 401.5 695 c 128,-1,167
 411 705 411 705 416.5 718 c 128,-1,168
 422 731 422 731 422 745 c 0,169,170
 422 760 422 760 416.5 773 c 128,-1,171
 411 786 411 786 401.5 796 c 128,-1,172
 392 806 392 806 378.5 811.5 c 128,-1,173
 365 817 365 817 351 817 c 1,174,-1
 351 817 l 1,154,155
314 64 m 1,175,176
 312 64 312 64 310.5 64.5 c 128,-1,177
 309 65 309 65 308 66 c 128,-1,178
 307 67 307 67 306.5 68.5 c 128,-1,179
 306 70 306 70 306 72 c 2,180,-1
 306 511 l 2,181,182
 306 512 306 512 306.5 513.5 c 128,-1,183
 307 515 307 515 308 516 c 128,-1,184
 309 517 309 517 310.5 517.5 c 128,-1,185
 312 518 312 518 314 518 c 0,186,187
 315 518 315 518 316.5 517.5 c 128,-1,188
 318 517 318 517 319 516 c 128,-1,189
 320 515 320 515 320.5 513.5 c 128,-1,190
 321 512 321 512 321 511 c 2,191,-1
 321 72 l 2,192,193
 321 70 321 70 320.5 68.5 c 128,-1,194
 320 67 320 67 319 66 c 128,-1,195
 318 65 318 65 316.5 64.5 c 128,-1,196
 315 64 315 64 314 64 c 1,197,-1
 314 64 l 1,175,176
382 64 m 1,198,199
 380 64 380 64 378.5 64.5 c 128,-1,200
 377 65 377 65 376 66 c 128,-1,201
 375 67 375 67 374.5 68.5 c 128,-1,202
 374 70 374 70 374 72 c 2,203,-1
 374 511 l 2,204,205
 374 512 374 512 374.5 513.5 c 128,-1,206
 375 515 375 515 376 516 c 128,-1,207
 377 517 377 517 378.5 517.5 c 128,-1,208
 380 518 380 518 382 518 c 0,209,210
 383 518 383 518 384.5 517.5 c 128,-1,211
 386 517 386 517 387 516 c 128,-1,212
 388 515 388 515 388.5 513.5 c 128,-1,213
 389 512 389 512 389 511 c 2,214,-1
 389 72 l 2,215,216
 389 70 389 70 388.5 68.5 c 128,-1,217
 388 67 388 67 387 66 c 128,-1,218
 386 65 386 65 384.5 64.5 c 128,-1,219
 383 64 383 64 382 64 c 1,220,-1
 382 64 l 1,198,199
471 454 m 1,221,222
 470 454 470 454 468.5 454.5 c 128,-1,223
 467 455 467 455 466 456.5 c 128,-1,224
 465 458 465 458 464.5 459 c 128,-1,225
 464 460 464 460 464 462 c 2,226,-1
 464 487 l 2,227,228
 464 510 464 510 455 530.5 c 128,-1,229
 446 551 446 551 430.5 566.5 c 128,-1,230
 415 582 415 582 394.5 590.5 c 128,-1,231
 374 599 374 599 351 599 c 0,232,233
 327 599 327 599 306.5 590.5 c 128,-1,234
 286 582 286 582 271 566.5 c 128,-1,235
 256 551 256 551 247 530.5 c 128,-1,236
 238 510 238 510 238 487 c 2,237,-1
 238 462 l 2,238,239
 238 460 238 460 237.5 459 c 128,-1,240
 237 458 237 458 236 456.5 c 128,-1,241
 235 455 235 455 233.5 454.5 c 128,-1,242
 232 454 232 454 230 454 c 0,243,244
 229 454 229 454 227.5 454.5 c 128,-1,245
 226 455 226 455 225 456.5 c 128,-1,246
 224 458 224 458 223.5 459 c 128,-1,247
 223 460 223 460 223 462 c 2,248,-1
 223 487 l 2,249,250
 223 513 223 513 233 536.5 c 128,-1,251
 243 560 243 560 260.5 577 c 128,-1,252
 278 594 278 594 301 604 c 128,-1,253
 324 614 324 614 351 614 c 0,254,255
 377 614 377 614 400.5 604 c 128,-1,256
 424 594 424 594 441 577 c 128,-1,257
 458 560 458 560 468.5 536.5 c 128,-1,258
 479 513 479 513 479 487 c 2,259,-1
 479 462 l 2,260,261
 479 460 479 460 478 459 c 128,-1,262
 477 458 477 458 476 456.5 c 128,-1,263
 475 455 475 455 474 454.5 c 128,-1,264
 473 454 473 454 471 454 c 1,265,-1
 471 454 l 1,221,222
EndSplineSet
EndChar
StartChar: uniE60F
Encoding: 58895 58895 17
Width: 1024
GlyphClass: 1
Flags: W
LayerCount: 2
Fore
SplineSet
512 909 m 1,0,1
 417 909 417 909 333 872.5 c 128,-1,2
 249 836 249 836 186.5 773.5 c 128,-1,3
 124 711 124 711 87.5 627 c 128,-1,4
 51 543 51 543 51 448 c 256,5,6
 51 353 51 353 87.5 269 c 128,-1,7
 124 185 124 185 186.5 122.5 c 128,-1,8
 249 60 249 60 333 23.5 c 128,-1,9
 417 -13 417 -13 512 -13 c 256,10,11
 607 -13 607 -13 691 23.5 c 128,-1,12
 775 60 775 60 837.5 122.5 c 128,-1,13
 900 185 900 185 936.5 269 c 128,-1,14
 973 353 973 353 973 448 c 256,15,16
 973 543 973 543 936.5 627 c 128,-1,17
 900 711 900 711 837.5 773.5 c 128,-1,18
 775 836 775 836 691 872.5 c 128,-1,19
 607 909 607 909 512 909 c 1,20,-1
 512 909 l 1,0,1
512 39 m 1,21,22
 428 39 428 39 353.5 71.5 c 128,-1,23
 279 104 279 104 223.5 159.5 c 128,-1,24
 168 215 168 215 135.5 289 c 128,-1,25
 103 363 103 363 103 448 c 256,26,27
 103 533 103 533 135.5 607 c 128,-1,28
 168 681 168 681 223.5 736.5 c 128,-1,29
 279 792 279 792 353.5 824.5 c 128,-1,30
 428 857 428 857 512 857 c 256,31,32
 596 857 596 857 670.5 824.5 c 128,-1,33
 745 792 745 792 800.5 736.5 c 128,-1,34
 856 681 856 681 888.5 607 c 128,-1,35
 921 533 921 533 921 448 c 256,36,37
 921 363 921 363 888.5 289 c 128,-1,38
 856 215 856 215 800.5 159.5 c 128,-1,39
 745 104 745 104 670.5 71.5 c 128,-1,40
 596 39 596 39 512 39 c 1,41,-1
 512 39 l 1,21,22
682 474 m 1,42,-1
 538 474 l 1,43,-1
 538 618 l 2,44,45
 538 623 538 623 536 628 c 128,-1,46
 534 633 534 633 530.5 636.5 c 128,-1,47
 527 640 527 640 522 642 c 128,-1,48
 517 644 517 644 512 644 c 256,49,50
 507 644 507 644 502 642 c 128,-1,51
 497 640 497 640 493.5 636.5 c 128,-1,52
 490 633 490 633 488 628 c 128,-1,53
 486 623 486 623 486 618 c 2,54,-1
 486 474 l 1,55,-1
 342 474 l 2,56,57
 337 474 337 474 332 472 c 128,-1,58
 327 470 327 470 323.5 466.5 c 128,-1,59
 320 463 320 463 318 458 c 128,-1,60
 316 453 316 453 316 448 c 256,61,62
 316 443 316 443 318 438 c 128,-1,63
 320 433 320 433 323.5 429.5 c 128,-1,64
 327 426 327 426 332 424 c 128,-1,65
 337 422 337 422 342 422 c 2,66,-1
 486 422 l 1,67,-1
 486 278 l 2,68,69
 486 273 486 273 488 268 c 128,-1,70
 490 263 490 263 493.5 259.5 c 128,-1,71
 497 256 497 256 502 254 c 128,-1,72
 507 252 507 252 512 252 c 256,73,74
 517 252 517 252 522 254 c 128,-1,75
 527 256 527 256 530.5 259.5 c 128,-1,76
 534 263 534 263 536 268 c 128,-1,77
 538 273 538 273 538 278 c 2,78,-1
 538 422 l 1,79,-1
 682 422 l 2,80,81
 687 422 687 422 692 424 c 128,-1,82
 697 426 697 426 700.5 429.5 c 128,-1,83
 704 433 704 433 706 438 c 128,-1,84
 708 443 708 443 708 448 c 256,85,86
 708 453 708 453 706 458 c 128,-1,87
 704 463 704 463 700.5 466.5 c 128,-1,88
 697 470 697 470 692 472 c 128,-1,89
 687 474 687 474 682 474 c 1,90,-1
 682 474 l 1,42,-1
EndSplineSet
EndChar
StartChar: uniE611
Encoding: 58897 58897 19
Width: 1024
GlyphClass: 1
Flags: W
LayerCount: 2
Fore
SplineSet
512 -13 m 1,0,1
 417 -13 417 -13 333 23.5 c 128,-1,2
 249 60 249 60 186.5 122.5 c 128,-1,3
 124 185 124 185 87.5 269 c 128,-1,4
 51 353 51 353 51 448 c 256,5,6
 51 543 51 543 87.5 627 c 128,-1,7
 124 711 124 711 186.5 773.5 c 128,-1,8
 249 836 249 836 333 872.5 c 128,-1,9
 417 909 417 909 512 909 c 256,10,11
 607 909 607 909 691 872.5 c 128,-1,12
 775 836 775 836 837.5 773.5 c 128,-1,13
 900 711 900 711 936.5 627 c 128,-1,14
 973 543 973 543 973 448 c 256,15,16
 973 353 973 353 936.5 269 c 128,-1,17
 900 185 900 185 837.5 122.5 c 128,-1,18
 775 60 775 60 691 23.5 c 128,-1,19
 607 -13 607 -13 512 -13 c 1,20,-1
 512 -13 l 1,0,1
512 857 m 1,21,22
 428 857 428 857 353.5 824.5 c 128,-1,23
 279 792 279 792 223.5 736.5 c 128,-1,24
 168 681 168 681 135.5 607 c 128,-1,25
 103 533 103 533 103 448 c 256,26,27
 103 363 103 363 135.5 289 c 128,-1,28
 168 215 168 215 223.5 159.5 c 128,-1,29
 279 104 279 104 353.5 71.5 c 128,-1,30
 428 39 428 39 512 39 c 256,31,32
 596 39 596 39 670.5 71.5 c 128,-1,33
 745 104 745 104 800.5 159.5 c 128,-1,34
 856 215 856 215 888.5 289 c 128,-1,35
 921 363 921 363 921 448 c 256,36,37
 921 533 921 533 888.5 607 c 128,-1,38
 856 681 856 681 800.5 736.5 c 128,-1,39
 745 792 745 792 670.5 824.5 c 128,-1,40
 596 857 596 857 512 857 c 1,41,-1
 512 857 l 1,21,22
438 197 m 1,42,43
 435 197 435 197 432.5 197.5 c 128,-1,44
 430 198 430 198 427.5 198.5 c 128,-1,45
 425 199 425 199 423 200.5 c 128,-1,46
 421 202 421 202 419 204 c 0,47,48
 415 208 415 208 413.5 213 c 128,-1,49
 412 218 412 218 412 223 c 128,-1,50
 412 228 412 228 413.5 232.5 c 128,-1,51
 415 237 415 237 419 241 c 2,52,-1
 626 448 l 1,53,-1
 419 655 l 2,54,55
 415 659 415 659 413.5 663.5 c 128,-1,56
 412 668 412 668 412 673 c 128,-1,57
 412 678 412 678 413.5 683 c 128,-1,58
 415 688 415 688 419 692 c 256,59,60
 423 696 423 696 428 697.5 c 128,-1,61
 433 699 433 699 438 699 c 128,-1,62
 443 699 443 699 447.5 697.5 c 128,-1,63
 452 696 452 696 456 692 c 2,64,-1
 681 466 l 2,65,66
 685 463 685 463 687 458 c 128,-1,67
 689 453 689 453 689 448 c 128,-1,68
 689 443 689 443 687 438 c 128,-1,69
 685 433 685 433 681 430 c 2,70,-1
 456 204 l 2,71,72
 454 202 454 202 452 200.5 c 128,-1,73
 450 199 450 199 447.5 198.5 c 128,-1,74
 445 198 445 198 442.5 197.5 c 128,-1,75
 440 197 440 197 438 197 c 1,76,-1
 438 197 l 1,42,43
EndSplineSet
EndChar
StartChar: uniE612
Encoding: 58898 58898 20
Width: 1024
GlyphClass: 1
Flags: W
LayerCount: 2
Fore
SplineSet
837 773 m 1,0,1
 769 841 769 841 683.5 874.5 c 128,-1,2
 598 908 598 908 509.5 909 c 128,-1,3
 421 910 421 910 336.5 876.5 c 128,-1,4
 252 843 252 843 185 776 c 0,5,6
 117 708 117 708 84 624 c 128,-1,7
 51 540 51 540 51.5 451 c 128,-1,8
 52 362 52 362 86 277 c 128,-1,9
 120 192 120 192 187 123 c 0,10,11
 255 57 255 57 340.5 22.5 c 128,-1,12
 426 -12 426 -12 514.5 -12 c 128,-1,13
 603 -12 603 -12 687.5 20.5 c 128,-1,14
 772 53 772 53 839 122 c 0,15,16
 907 188 907 188 940 273 c 128,-1,17
 973 358 973 358 972.5 446 c 128,-1,18
 972 534 972 534 938 620 c 128,-1,19
 904 706 904 706 837 773 c 1,20,-1
 837 773 l 1,0,1
801 160 m 1,21,22
 742 100 742 100 667 71 c 128,-1,23
 592 42 592 42 514 42 c 128,-1,24
 436 42 436 42 361 72.5 c 128,-1,25
 286 103 286 103 226 162 c 0,26,27
 166 223 166 223 136 297.5 c 128,-1,28
 106 372 106 372 105.5 450.5 c 128,-1,29
 105 529 105 529 134.5 603.5 c 128,-1,30
 164 678 164 678 223 738 c 0,31,32
 282 796 282 796 357 826 c 128,-1,33
 432 856 432 856 510 855 c 128,-1,34
 588 854 588 854 663 824.5 c 128,-1,35
 738 795 738 795 798 734 c 0,36,37
 858 675 858 675 888 599.5 c 128,-1,38
 918 524 918 524 918.5 446.5 c 128,-1,39
 919 369 919 369 889.5 293.5 c 128,-1,40
 860 218 860 218 801 160 c 1,41,-1
 801 160 l 1,21,22
550 448 m 1,42,-1
 651 549 l 2,43,44
 655 552 655 552 657 557.5 c 128,-1,45
 659 563 659 563 659 568 c 128,-1,46
 659 573 659 573 657 578.5 c 128,-1,47
 655 584 655 584 651 587 c 0,48,49
 647 591 647 591 642 592.5 c 128,-1,50
 637 594 637 594 631.5 594.5 c 128,-1,51
 626 595 626 595 621 593 c 128,-1,52
 616 591 616 591 612 588 c 2,53,-1
 512 487 l 1,54,-1
 411 589 l 2,55,56
 407 592 407 592 402 594.5 c 128,-1,57
 397 597 397 597 391.5 596.5 c 128,-1,58
 386 596 386 596 381 594.5 c 128,-1,59
 376 593 376 593 372 588 c 0,60,61
 368 585 368 585 366 579.5 c 128,-1,62
 364 574 364 574 364 569 c 128,-1,63
 364 564 364 564 366 558.5 c 128,-1,64
 368 553 368 553 372 550 c 2,65,-1
 474 448 l 1,66,-1
 374 349 l 2,67,68
 370 344 370 344 368 339.5 c 128,-1,69
 366 335 366 335 366 329.5 c 128,-1,70
 366 324 366 324 368 319.5 c 128,-1,71
 370 315 370 315 374 310 c 0,72,73
 378 307 378 307 383 304.5 c 128,-1,74
 388 302 388 302 393 302.5 c 128,-1,75
 398 303 398 303 403 304.5 c 128,-1,76
 408 306 408 306 412 311 c 2,77,-1
 512 410 l 1,78,-1
 613 309 l 2,79,80
 617 304 617 304 622 302.5 c 128,-1,81
 627 301 627 301 632.5 300.5 c 128,-1,82
 638 300 638 300 643 302.5 c 128,-1,83
 648 305 648 305 652 308 c 0,84,85
 656 313 656 313 658 317.5 c 128,-1,86
 660 322 660 322 660 328 c 128,-1,87
 660 334 660 334 658 338.5 c 128,-1,88
 656 343 656 343 652 348 c 2,89,-1
 550 448 l 1,90,-1
 550 448 l 1,42,-1
EndSplineSet
EndChar
StartChar: uniE613
Encoding: 58899 58899 21
Width: 1024
GlyphClass: 1
Flags: W
LayerCount: 2
Fore
SplineSet
295.0625 568.186523438 m 0,0,1
 271.418544266 568.186523438 271.418544266 568.186523438 249.696088539 550.880202709 c 128,-1,2
 227.973632812 533.573881981 227.973632812 533.573881981 227.973632812 502.485351562 c 0,3,4
 227.973632812 489.424134637 227.973632812 489.424134637 231.594726562 478.635742188 c 0,5,6
 265.496858043 330.434996001 265.496858043 330.434996001 301.6875 263.647460938 c 0,7,8
 315.972541486 237.285089675 315.972541486 237.285089675 354.241710481 196.710549054 c 128,-1,9
 392.510879475 156.136008433 392.510879475 156.136008433 405.370117188 134.967773438 c 0,10,11
 418.702486618 113.00508392 418.702486618 113.00508392 437.685546875 61.09765625 c 0,12,13
 439.64325579 55.6898600813 439.64325579 55.6898600813 444.828043406 55.0440876507 c 128,-1,14
 450.012831022 54.3983152201 450.012831022 54.3983152201 453.584717011 58.2078654743 c 128,-1,15
 457.156602999 62.0174157285 457.156602999 62.0174157285 455.197265625 67.4296875 c 0,16,17
 435.965197473 120.457914248 435.965197473 120.457914248 421.293945312 144.614257812 c 0,18,19
 407.282545128 167.679372743 407.282545128 167.679372743 369.226276592 207.999369386 c 128,-1,20
 331.170008057 248.319366028 331.170008057 248.319366028 318.068359375 272.498046875 c 0,21,22
 310.970063662 285.597594535 310.970063662 285.597594535 303.391583642 304.224673647 c 128,-1,23
 295.813103621 322.851752759 295.813103621 322.851752759 289.319760997 342.304873775 c 128,-1,24
 282.826418372 361.757994791 282.826418372 361.757994791 276.68986512 382.055657156 c 128,-1,25
 270.553311867 402.353319522 270.553311867 402.353319522 265.703490269 420.400297882 c 128,-1,26
 260.853668672 438.447276241 260.853668672 438.447276241 257.239968755 452.54872157 c 128,-1,27
 253.626268838 466.650166898 253.626268838 466.650166898 251.500894834 475.42420231 c 128,-1,28
 249.37552083 484.198237721 249.37552083 484.198237721 249.323242188 484.34375 c 0,29,30
 246.591796875 491.559551164 246.591796875 491.559551164 246.591796875 502.485351562 c 0,31,32
 246.591796875 527.919306997 246.591796875 527.919306997 263.777397883 538.743833186 c 128,-1,33
 280.962998892 549.568359375 280.962998892 549.568359375 295.0625 549.568359375 c 0,34,35
 318.242578654 549.568359375 318.242578654 549.568359375 332.586914062 526.6484375 c 1,36,-1
 376.813476562 421.7265625 l 2,37,38
 379.742431641 414.772134026 379.742431641 414.772134026 387.223754883 416.282470703 c 128,-1,39
 394.705078125 417.792807381 394.705078125 417.792807381 394.705078125 425.362304688 c 2,40,-1
 393.676757812 795.611328125 l 2,41,42
 393.519959753 798.125155085 393.519959753 798.125155085 395.115586492 803.494342157 c 128,-1,43
 396.711213231 808.863529228 396.711213231 808.863529228 406.539035904 816.422975552 c 128,-1,44
 416.366858578 823.982421875 416.366858578 823.982421875 433.1640625 823.982421875 c 0,45,46
 461.813801814 823.982421875 461.813801814 823.982421875 473.340820312 796.6796875 c 1,47,-1
 473.340820312 606.390625 l 2,48,49
 473.340820312 597.250732422 473.340820312 597.250732422 482.649902344 597.250732422 c 128,-1,50
 491.958984375 597.250732422 491.958984375 597.250732422 491.958984375 606.390625 c 2,51,-1
 491.958984375 797.677734375 l 2,52,53
 492.405360433 824.997079219 492.405360433 824.997079219 504.047851562 840.084960938 c 0,54,55
 512.935225874 851.602708704 512.935225874 851.602708704 529.025390625 851.592773438 c 0,56,57
 545.601327887 851.277904639 545.601327887 851.277904639 555.10552137 844.360075175 c 128,-1,58
 564.609714853 837.442245712 564.609714853 837.442245712 566.035429151 832.571239929 c 128,-1,59
 567.461143448 827.700234146 567.461143448 827.700234146 567.487304688 823.515625 c 0,60,61
 570.4765625 619.630859375 570.4765625 619.630859375 570.4765625 613.979492188 c 0,62,63
 570.4765625 606.092343645 570.4765625 606.092343645 575.161058308 603.34421443 c 128,-1,64
 579.845554116 600.596085214 579.845554116 600.596085214 584.5296969 603.3781163 c 128,-1,65
 589.213839684 606.160147385 589.213839684 606.160147385 589.212890625 611.703125 c 0,66,67
 589.212890625 616.074462891 589.212890625 616.074462891 589.918351132 619.126841227 c 128,-1,68
 590.62381164 622.179219564 590.62381164 622.179219564 593.498793643 627.181966146 c 128,-1,69
 596.373775646 632.184712728 596.373775646 632.184712728 604.337845761 634.947825114 c 128,-1,70
 612.301915876 637.7109375 612.301915876 637.7109375 624.70703125 637.7109375 c 0,71,72
 670.819335938 637.7109375 670.819335938 637.7109375 670.819335938 590.171875 c 0,73,74
 670.819335938 585.76550293 670.819335938 585.76550293 670.293945312 583.729614258 c 128,-1,75
 669.768554688 581.693725586 669.768554688 581.693725586 669.768554688 579.280273438 c 0,76,77
 669.768554688 572.3309184 669.768554688 572.3309184 674.048858387 569.541618887 c 128,-1,78
 678.329162086 566.752319374 678.329162086 566.752319374 682.927053072 568.788133717 c 128,-1,79
 687.524944057 570.823948061 687.524944057 570.823948061 688.393554688 575.8125 c 0,80,81
 688.816529749 578.209358682 688.816529749 578.209358682 689.116210938 581.962890625 c 0,82,83
 692.27211794 586.940031309 692.27211794 586.940031309 706.893563471 588.370344194 c 128,-1,84
 721.515009002 589.800657079 721.515009002 589.800657079 735.515290696 583.134538619 c 128,-1,85
 749.515572389 576.468420158 749.515572389 576.468420158 749.592773438 561.362304688 c 0,86,87
 759.571550917 386.384554209 759.571550917 386.384554209 749.638671875 300.193359375 c 0,88,89
 745.622612847 265.328342014 745.622612847 265.328342014 731.992730035 207.003634983 c 128,-1,90
 718.362847222 148.678927951 718.362847222 148.678927951 706.740993924 107.786729601 c 2,91,-1
 695.119140625 66.89453125 l 2,92,93
 693.493608177 61.3741769408 693.493608177 61.3741769408 697.290268754 57.7865990132 c 128,-1,94
 701.086929332 54.1990210855 701.086929332 54.1990210855 706.222101037 55.1567603618 c 128,-1,95
 711.357272742 56.1144996381 711.357272742 56.1144996381 712.982421875 61.6328125 c 0,96,97
 759.059948611 219.266456596 759.059948611 219.266456596 768.134765625 298.04296875 c 0,98,99
 777.845860757 382.320475074 777.845860757 382.320475074 768.202148438 562.309570312 c 0,100,101
 768.202148438 565.033109381 768.202148438 565.033109381 767.712821727 568.594077149 c 128,-1,102
 767.223495017 572.155044917 767.223495017 572.155044917 763.98520171 579.470907226 c 128,-1,103
 760.746908403 586.786769534 760.746908403 586.786769534 755.190071727 592.329483399 c 128,-1,104
 749.633235052 597.872197264 749.633235052 597.872197264 737.88417046 602.255922851 c 128,-1,105
 726.135105868 606.639648438 726.135105868 606.639648438 710.23828125 606.639648438 c 0,106,107
 697.319664323 606.639648438 697.319664323 606.639648438 688.467773438 603.395507812 c 1,108,109
 680.687414934 656.329101562 680.687414934 656.329101562 624.70703125 656.329101562 c 0,110,111
 602.562608546 656.329101562 602.562608546 656.329101562 588.688476562 647.463867188 c 1,112,113
 586.215793037 815.957219357 586.215793037 815.957219357 586.104492188 823.71875 c 0,114,115
 586.076301143 840.866833505 586.076301143 840.866833505 571.44256918 855.542791752 c 128,-1,116
 556.808837217 870.21875 556.808837217 870.21875 528.224609375 870.21875 c 0,117,118
 488.540121629 870.21875 488.540121629 870.21875 476.827148438 824.405273438 c 1,119,120
 456.484620434 845.319688091 456.484620434 845.319688091 425.841796875 842.225585938 c 0,121,122
 412.135928411 840.841721659 412.135928411 840.841721659 401.883311297 835.510087813 c 128,-1,123
 391.630694183 830.178453966 391.630694183 830.178453966 386.754110578 824.258677812 c 128,-1,124
 381.877526972 818.338901658 381.877526972 818.338901658 378.956826922 811.183509688 c 128,-1,125
 376.036126872 804.028117717 376.036126872 804.028117717 375.558094953 800.801630937 c 128,-1,126
 375.080063033 797.575144157 375.080063033 797.575144157 375.060546875 795.825195312 c 2,127,-1
 375.958007812 471.696289062 l 1,128,129
 349.291015625 534.9609375 349.291015625 534.9609375 349.030273438 535.423828125 c 0,130,131
 346.736756969 539.492970247 346.736756969 539.492970247 342.937334287 544.739209359 c 128,-1,132
 339.137911605 549.98544847 339.137911605 549.98544847 325.140465192 559.085985954 c 128,-1,133
 311.14301878 568.186523438 311.14301878 568.186523438 295.0625 568.186523438 c 0,0,1
EndSplineSet
EndChar
StartChar: uniE614
Encoding: 58900 58900 22
Width: 1024
GlyphClass: 1
Flags: W
LayerCount: 2
Fore
SplineSet
675 659 m 1,0,1
 657 659 657 659 641 666 c 128,-1,2
 625 673 625 673 613.5 684.5 c 128,-1,3
 602 696 602 696 595 712 c 128,-1,4
 588 728 588 728 588 746 c 0,5,6
 588 763 588 763 595 779 c 128,-1,7
 602 795 602 795 613.5 806.5 c 128,-1,8
 625 818 625 818 641 825 c 128,-1,9
 657 832 657 832 675 832 c 0,10,11
 692 832 692 832 708 825 c 128,-1,12
 724 818 724 818 735.5 806.5 c 128,-1,13
 747 795 747 795 754 779 c 128,-1,14
 761 763 761 763 761 746 c 0,15,16
 761 728 761 728 754 712 c 128,-1,17
 747 696 747 696 735.5 684.5 c 128,-1,18
 724 673 724 673 708 666 c 128,-1,19
 692 659 692 659 675 659 c 1,20,-1
 675 659 l 1,0,1
675 817 m 1,21,22
 660 817 660 817 647 811.5 c 128,-1,23
 634 806 634 806 624 796 c 128,-1,24
 614 786 614 786 608.5 773 c 128,-1,25
 603 760 603 760 603 746 c 0,26,27
 603 731 603 731 608.5 718 c 128,-1,28
 614 705 614 705 624 695 c 128,-1,29
 634 685 634 685 647 679.5 c 128,-1,30
 660 674 660 674 675 674 c 0,31,32
 689 674 689 674 702 679.5 c 128,-1,33
 715 685 715 685 725 695 c 128,-1,34
 735 705 735 705 740.5 718 c 128,-1,35
 746 731 746 731 746 746 c 0,36,37
 746 760 746 760 740.5 773 c 128,-1,38
 735 786 735 786 725 796 c 128,-1,39
 715 806 715 806 702 811.5 c 128,-1,40
 689 817 689 817 675 817 c 1,41,-1
 675 817 l 1,21,22
638 66 m 1,42,43
 636 66 636 66 634.5 66.5 c 128,-1,44
 633 67 633 67 632 68 c 128,-1,45
 631 69 631 69 630.5 70.5 c 128,-1,46
 630 72 630 72 630 74 c 2,47,-1
 630 512 l 2,48,49
 630 513 630 513 630.5 514.5 c 128,-1,50
 631 516 631 516 632 517 c 128,-1,51
 633 518 633 518 634.5 518.5 c 128,-1,52
 636 519 636 519 638 519 c 0,53,54
 639 519 639 519 640.5 518.5 c 128,-1,55
 642 518 642 518 643 517 c 128,-1,56
 644 516 644 516 644.5 514.5 c 128,-1,57
 645 513 645 513 645 512 c 2,58,-1
 645 74 l 2,59,60
 645 72 645 72 644.5 70.5 c 128,-1,61
 644 69 644 69 643 68 c 128,-1,62
 642 67 642 67 640.5 66.5 c 128,-1,63
 639 66 639 66 638 66 c 1,64,-1
 638 66 l 1,42,43
705 66 m 1,65,66
 704 66 704 66 702.5 66.5 c 128,-1,67
 701 67 701 67 700 68 c 128,-1,68
 699 69 699 69 698.5 70.5 c 128,-1,69
 698 72 698 72 698 74 c 2,70,-1
 698 512 l 2,71,72
 698 513 698 513 698.5 514.5 c 128,-1,73
 699 516 699 516 700 517 c 128,-1,74
 701 518 701 518 702.5 518.5 c 128,-1,75
 704 519 704 519 705 519 c 0,76,77
 707 519 707 519 708.5 518.5 c 128,-1,78
 710 518 710 518 711 517 c 128,-1,79
 712 516 712 516 712.5 514.5 c 128,-1,80
 713 513 713 513 713 512 c 2,81,-1
 713 74 l 2,82,83
 713 72 713 72 712.5 70.5 c 128,-1,84
 712 69 712 69 711 68 c 128,-1,85
 710 67 710 67 708.5 66.5 c 128,-1,86
 707 66 707 66 705 66 c 1,87,-1
 705 66 l 1,65,66
795 455 m 1,88,89
 793 455 793 455 791.5 455.5 c 128,-1,90
 790 456 790 456 789 457 c 128,-1,91
 788 458 788 458 787.5 459.5 c 128,-1,92
 787 461 787 461 787 463 c 2,93,-1
 787 487 l 2,94,95
 787 511 787 511 778 531.5 c 128,-1,96
 769 552 769 552 754 567 c 128,-1,97
 739 582 739 582 718.5 591 c 128,-1,98
 698 600 698 600 675 600 c 0,99,100
 651 600 651 600 630.5 591 c 128,-1,101
 610 582 610 582 595 567 c 128,-1,102
 580 552 580 552 571 531.5 c 128,-1,103
 562 511 562 511 562 487 c 2,104,-1
 562 463 l 2,105,106
 562 461 562 461 561.5 459.5 c 128,-1,107
 561 458 561 458 560 457 c 128,-1,108
 559 456 559 456 557.5 455.5 c 128,-1,109
 556 455 556 455 554 455 c 0,110,111
 553 455 553 455 551.5 455.5 c 128,-1,112
 550 456 550 456 549 457 c 128,-1,113
 548 458 548 458 547.5 459.5 c 128,-1,114
 547 461 547 461 547 463 c 2,115,-1
 547 487 l 2,116,117
 547 514 547 514 557 537 c 128,-1,118
 567 560 567 560 584.5 577.5 c 128,-1,119
 602 595 602 595 625 605 c 128,-1,120
 648 615 648 615 675 615 c 0,121,122
 701 615 701 615 724 605 c 128,-1,123
 747 595 747 595 764.5 577.5 c 128,-1,124
 782 560 782 560 792 537 c 128,-1,125
 802 514 802 514 802 487 c 2,126,-1
 802 463 l 2,127,128
 802 461 802 461 801.5 459.5 c 128,-1,129
 801 458 801 458 800 457 c 128,-1,130
 799 456 799 456 797.5 455.5 c 128,-1,131
 796 455 796 455 795 455 c 1,132,-1
 795 455 l 1,88,89
349 495 m 1,133,134
 332 495 332 495 316 502 c 128,-1,135
 300 509 300 509 288.5 520.5 c 128,-1,136
 277 532 277 532 270 548 c 128,-1,137
 263 564 263 564 263 582 c 256,138,139
 263 600 263 600 270 615.5 c 128,-1,140
 277 631 277 631 288.5 643 c 128,-1,141
 300 655 300 655 316 661.5 c 128,-1,142
 332 668 332 668 349 668 c 0,143,144
 367 668 367 668 383 661.5 c 128,-1,145
 399 655 399 655 410.5 643 c 128,-1,146
 422 631 422 631 429 615.5 c 128,-1,147
 436 600 436 600 436 582 c 256,148,149
 436 564 436 564 429 548 c 128,-1,150
 422 532 422 532 410.5 520.5 c 128,-1,151
 399 509 399 509 383 502 c 128,-1,152
 367 495 367 495 349 495 c 1,153,-1
 349 495 l 1,133,134
349 653 m 1,154,155
 335 653 335 653 322 647.5 c 128,-1,156
 309 642 309 642 299 632.5 c 128,-1,157
 289 623 289 623 283.5 610 c 128,-1,158
 278 597 278 597 278 582 c 256,159,160
 278 567 278 567 283.5 554 c 128,-1,161
 289 541 289 541 299 531.5 c 128,-1,162
 309 522 309 522 322 516 c 128,-1,163
 335 510 335 510 349 510 c 0,164,165
 364 510 364 510 377 516 c 128,-1,166
 390 522 390 522 400 531.5 c 128,-1,167
 410 541 410 541 415.5 554 c 128,-1,168
 421 567 421 567 421 582 c 256,169,170
 421 597 421 597 415.5 610 c 128,-1,171
 410 623 410 623 400 632.5 c 128,-1,172
 390 642 390 642 377 647.5 c 128,-1,173
 364 653 364 653 349 653 c 1,174,-1
 349 653 l 1,154,155
312 64 m 1,175,176
 311 64 311 64 309.5 64.5 c 128,-1,177
 308 65 308 65 307 66 c 128,-1,178
 306 67 306 67 305.5 68.5 c 128,-1,179
 305 70 305 70 305 72 c 2,180,-1
 305 366 l 2,181,182
 305 368 305 368 305.5 369.5 c 128,-1,183
 306 371 306 371 307 372 c 128,-1,184
 308 373 308 373 309.5 373.5 c 128,-1,185
 311 374 311 374 312 374 c 0,186,187
 314 374 314 374 315.5 373.5 c 128,-1,188
 317 373 317 373 318 372 c 128,-1,189
 319 371 319 371 319.5 369.5 c 128,-1,190
 320 368 320 368 320 366 c 2,191,-1
 320 72 l 2,192,193
 320 70 320 70 319.5 68.5 c 128,-1,194
 319 67 319 67 318 66 c 128,-1,195
 317 65 317 65 315.5 64.5 c 128,-1,196
 314 64 314 64 312 64 c 1,197,-1
 312 64 l 1,175,176
380 64 m 1,198,199
 379 64 379 64 377.5 64.5 c 128,-1,200
 376 65 376 65 375 66 c 128,-1,201
 374 67 374 67 373.5 68.5 c 128,-1,202
 373 70 373 70 373 72 c 2,203,-1
 373 366 l 2,204,205
 373 368 373 368 373.5 369.5 c 128,-1,206
 374 371 374 371 375 372 c 128,-1,207
 376 373 376 373 377.5 373.5 c 128,-1,208
 379 374 379 374 380 374 c 0,209,210
 382 374 382 374 383.5 373.5 c 128,-1,211
 385 373 385 373 386 372 c 128,-1,212
 387 371 387 371 387.5 369.5 c 128,-1,213
 388 368 388 368 388 366 c 2,214,-1
 388 72 l 2,215,216
 388 70 388 70 387.5 68.5 c 128,-1,217
 387 67 387 67 386 66 c 128,-1,218
 385 65 385 65 383.5 64.5 c 128,-1,219
 382 64 382 64 380 64 c 1,220,-1
 380 64 l 1,198,199
470 291 m 1,221,222
 468 291 468 291 466.5 292 c 128,-1,223
 465 293 465 293 464 294 c 128,-1,224
 463 295 463 295 462.5 296 c 128,-1,225
 462 297 462 297 462 299 c 2,226,-1
 462 324 l 2,227,228
 462 347 462 347 453 367.5 c 128,-1,229
 444 388 444 388 429 403.5 c 128,-1,230
 414 419 414 419 393.5 427.5 c 128,-1,231
 373 436 373 436 349 436 c 0,232,233
 326 436 326 436 305.5 427.5 c 128,-1,234
 285 419 285 419 270 403.5 c 128,-1,235
 255 388 255 388 246 367.5 c 128,-1,236
 237 347 237 347 237 324 c 2,237,-1
 237 299 l 2,238,239
 237 297 237 297 236.5 296 c 128,-1,240
 236 295 236 295 235 294 c 128,-1,241
 234 293 234 293 232.5 292 c 128,-1,242
 231 291 231 291 229 291 c 0,243,244
 228 291 228 291 226.5 292 c 128,-1,245
 225 293 225 293 224 294 c 128,-1,246
 223 295 223 295 222.5 296 c 128,-1,247
 222 297 222 297 222 299 c 2,248,-1
 222 324 l 2,249,250
 222 350 222 350 232 373.5 c 128,-1,251
 242 397 242 397 259.5 414 c 128,-1,252
 277 431 277 431 300 441 c 128,-1,253
 323 451 323 451 349 451 c 0,254,255
 376 451 376 451 399 441 c 128,-1,256
 422 431 422 431 439.5 414 c 128,-1,257
 457 397 457 397 467 373.5 c 128,-1,258
 477 350 477 350 477 324 c 2,259,-1
 477 299 l 2,260,261
 477 297 477 297 476.5 296 c 128,-1,262
 476 295 476 295 475 294 c 128,-1,263
 474 293 474 293 472.5 292 c 128,-1,264
 471 291 471 291 470 291 c 1,265,-1
 470 291 l 1,221,222
EndSplineSet
EndChar
StartChar: uniE615
Encoding: 58901 58901 23
Width: 1024
GlyphClass: 1
Flags: W
LayerCount: 2
Fore
SplineSet
512 938 m 1,0,1
 411 938 411 938 321.5 899.5 c 128,-1,2
 232 861 232 861 165.5 794.5 c 128,-1,3
 99 728 99 728 60.5 638.5 c 128,-1,4
 22 549 22 549 22 448 c 256,5,6
 22 347 22 347 60.5 257.5 c 128,-1,7
 99 168 99 168 165.5 101.5 c 128,-1,8
 232 35 232 35 321.5 -3.5 c 128,-1,9
 411 -42 411 -42 512 -42 c 256,10,11
 613 -42 613 -42 702.5 -3.5 c 128,-1,12
 792 35 792 35 858.5 101.5 c 128,-1,13
 925 168 925 168 963.5 257.5 c 128,-1,14
 1002 347 1002 347 1002 448 c 256,15,16
 1002 549 1002 549 963.5 638.5 c 128,-1,17
 925 728 925 728 858.5 794.5 c 128,-1,18
 792 861 792 861 702.5 899.5 c 128,-1,19
 613 938 613 938 512 938 c 1,20,-1
 512 938 l 1,0,1
512 -22 m 1,21,22
 415 -22 415 -22 329 15 c 128,-1,23
 243 52 243 52 179.5 115.5 c 128,-1,24
 116 179 116 179 79 265 c 128,-1,25
 42 351 42 351 42 448 c 256,26,27
 42 545 42 545 79 631 c 128,-1,28
 116 717 116 717 179.5 780.5 c 128,-1,29
 243 844 243 844 329 881 c 128,-1,30
 415 918 415 918 512 918 c 256,31,32
 609 918 609 918 695 881 c 128,-1,33
 781 844 781 844 844.5 780.5 c 128,-1,34
 908 717 908 717 945 631 c 128,-1,35
 982 545 982 545 982 448 c 256,36,37
 982 351 982 351 945 265 c 128,-1,38
 908 179 908 179 844.5 115.5 c 128,-1,39
 781 52 781 52 695 15 c 128,-1,40
 609 -22 609 -22 512 -22 c 1,41,-1
 512 -22 l 1,21,22
781 655 m 1,42,-1
 243 655 l 2,43,44
 241 655 241 655 239.5 654 c 128,-1,45
 238 653 238 653 236.5 652 c 128,-1,46
 235 651 235 651 234.5 649 c 128,-1,47
 234 647 234 647 234 645 c 256,48,49
 234 643 234 643 234.5 641.5 c 128,-1,50
 235 640 235 640 236.5 638.5 c 128,-1,51
 238 637 238 637 239.5 636.5 c 128,-1,52
 241 636 241 636 243 636 c 2,53,-1
 781 636 l 2,54,55
 783 636 783 636 784.5 636.5 c 128,-1,56
 786 637 786 637 787.5 638.5 c 128,-1,57
 789 640 789 640 789.5 641.5 c 128,-1,58
 790 643 790 643 790 645 c 256,59,60
 790 647 790 647 789.5 649 c 128,-1,61
 789 651 789 651 787.5 652 c 128,-1,62
 786 653 786 653 784.5 654 c 128,-1,63
 783 655 783 655 781 655 c 1,64,-1
 781 655 l 1,42,-1
781 458 m 1,65,-1
 243 458 l 2,66,67
 241 458 241 458 239.5 457 c 128,-1,68
 238 456 238 456 236.5 454.5 c 128,-1,69
 235 453 235 453 234.5 451.5 c 128,-1,70
 234 450 234 450 234 448 c 256,71,72
 234 446 234 446 234.5 444.5 c 128,-1,73
 235 443 235 443 236.5 441.5 c 128,-1,74
 238 440 238 440 239.5 439 c 128,-1,75
 241 438 241 438 243 438 c 2,76,-1
 781 438 l 2,77,78
 783 438 783 438 784.5 439 c 128,-1,79
 786 440 786 440 787.5 441.5 c 128,-1,80
 789 443 789 443 789.5 444.5 c 128,-1,81
 790 446 790 446 790 448 c 256,82,83
 790 450 790 450 789.5 451.5 c 128,-1,84
 789 453 789 453 787.5 454.5 c 128,-1,85
 786 456 786 456 784.5 457 c 128,-1,86
 783 458 783 458 781 458 c 1,87,-1
 781 458 l 1,65,-1
781 260 m 1,88,-1
 243 260 l 2,89,90
 241 260 241 260 239.5 259.5 c 128,-1,91
 238 259 238 259 236.5 257.5 c 128,-1,92
 235 256 235 256 234.5 254.5 c 128,-1,93
 234 253 234 253 234 251 c 256,94,95
 234 249 234 249 234.5 247 c 128,-1,96
 235 245 235 245 236.5 244 c 128,-1,97
 238 243 238 243 239.5 242 c 128,-1,98
 241 241 241 241 243 241 c 2,99,-1
 781 241 l 2,100,101
 783 241 783 241 784.5 242 c 128,-1,102
 786 243 786 243 787.5 244 c 128,-1,103
 789 245 789 245 789.5 247 c 128,-1,104
 790 249 790 249 790 251 c 256,105,106
 790 253 790 253 789.5 254.5 c 128,-1,107
 789 256 789 256 787.5 257.5 c 128,-1,108
 786 259 786 259 784.5 259.5 c 128,-1,109
 783 260 783 260 781 260 c 1,110,-1
 781 260 l 1,88,-1
EndSplineSet
EndChar
StartChar: uniE616
Encoding: 58902 58902 24
Width: 1024
GlyphClass: 1
Flags: W
LayerCount: 2
Fore
SplineSet
512 778 m 1,0,1
 444 778 444 778 384 752 c 128,-1,2
 324 726 324 726 279 681 c 128,-1,3
 234 636 234 636 208 576 c 128,-1,4
 182 516 182 516 182 448 c 256,5,6
 182 380 182 380 208 320 c 128,-1,7
 234 260 234 260 279 215 c 128,-1,8
 324 170 324 170 384 144 c 128,-1,9
 444 118 444 118 512 118 c 256,10,11
 580 118 580 118 640 144 c 128,-1,12
 700 170 700 170 745 215 c 128,-1,13
 790 260 790 260 816 320 c 128,-1,14
 842 380 842 380 842 448 c 256,15,16
 842 516 842 516 816 576 c 128,-1,17
 790 636 790 636 745 681 c 128,-1,18
 700 726 700 726 640 752 c 128,-1,19
 580 778 580 778 512 778 c 1,20,-1
 512 778 l 1,0,1
512 138 m 1,21,22
 448 138 448 138 391.5 162 c 128,-1,23
 335 186 335 186 292.5 228.5 c 128,-1,24
 250 271 250 271 226 327.5 c 128,-1,25
 202 384 202 384 202 448 c 256,26,27
 202 512 202 512 226 568.5 c 128,-1,28
 250 625 250 625 292.5 667.5 c 128,-1,29
 335 710 335 710 391.5 734 c 128,-1,30
 448 758 448 758 512 758 c 256,31,32
 576 758 576 758 632.5 734 c 128,-1,33
 689 710 689 710 731.5 667.5 c 128,-1,34
 774 625 774 625 798 568.5 c 128,-1,35
 822 512 822 512 822 448 c 256,36,37
 822 384 822 384 798 327.5 c 128,-1,38
 774 271 774 271 731.5 228.5 c 128,-1,39
 689 186 689 186 632.5 162 c 128,-1,40
 576 138 576 138 512 138 c 1,41,-1
 512 138 l 1,21,22
696 458 m 1,42,-1
 329 458 l 2,43,44
 327 458 327 458 325 457 c 128,-1,45
 323 456 323 456 321.5 454.5 c 128,-1,46
 320 453 320 453 319.5 451.5 c 128,-1,47
 319 450 319 450 319 448 c 256,48,49
 319 446 319 446 319.5 444.5 c 128,-1,50
 320 443 320 443 321.5 441.5 c 128,-1,51
 323 440 323 440 325 439 c 128,-1,52
 327 438 327 438 329 438 c 2,53,-1
 696 438 l 2,54,55
 697 438 697 438 699 439 c 128,-1,56
 701 440 701 440 702.5 441.5 c 128,-1,57
 704 443 704 443 704.5 444.5 c 128,-1,58
 705 446 705 446 705 448 c 256,59,60
 705 450 705 450 704.5 451.5 c 128,-1,61
 704 453 704 453 702.5 454.5 c 128,-1,62
 701 456 701 456 699 457 c 128,-1,63
 697 458 697 458 696 458 c 1,64,-1
 696 458 l 1,42,-1
EndSplineSet
EndChar
StartChar: uniE617
Encoding: 58903 58903 25
Width: 1024
GlyphClass: 1
Flags: W
LayerCount: 2
Fore
SplineSet
512 778 m 1,0,1
 444 778 444 778 384 752 c 128,-1,2
 324 726 324 726 279 681 c 128,-1,3
 234 636 234 636 208 576 c 128,-1,4
 182 516 182 516 182 448 c 256,5,6
 182 380 182 380 208 320 c 128,-1,7
 234 260 234 260 279 215 c 128,-1,8
 324 170 324 170 384 144 c 128,-1,9
 444 118 444 118 512 118 c 256,10,11
 580 118 580 118 640 144 c 128,-1,12
 700 170 700 170 745 215 c 128,-1,13
 790 260 790 260 816 320 c 128,-1,14
 842 380 842 380 842 448 c 256,15,16
 842 516 842 516 816 576 c 128,-1,17
 790 636 790 636 745 681 c 128,-1,18
 700 726 700 726 640 752 c 128,-1,19
 580 778 580 778 512 778 c 1,20,-1
 512 778 l 1,0,1
512 138 m 1,21,22
 448 138 448 138 391.5 162 c 128,-1,23
 335 186 335 186 292.5 228.5 c 128,-1,24
 250 271 250 271 226 327.5 c 128,-1,25
 202 384 202 384 202 448 c 256,26,27
 202 512 202 512 226 568.5 c 128,-1,28
 250 625 250 625 292.5 667.5 c 128,-1,29
 335 710 335 710 391.5 734 c 128,-1,30
 448 758 448 758 512 758 c 256,31,32
 576 758 576 758 632.5 734 c 128,-1,33
 689 710 689 710 731.5 667.5 c 128,-1,34
 774 625 774 625 798 568.5 c 128,-1,35
 822 512 822 512 822 448 c 256,36,37
 822 384 822 384 798 327.5 c 128,-1,38
 774 271 774 271 731.5 228.5 c 128,-1,39
 689 186 689 186 632.5 162 c 128,-1,40
 576 138 576 138 512 138 c 1,41,-1
 512 138 l 1,21,22
696 458 m 1,42,-1
 522 458 l 1,43,-1
 522 632 l 2,44,45
 522 633 522 633 521 635 c 128,-1,46
 520 637 520 637 518.5 638.5 c 128,-1,47
 517 640 517 640 515.5 640.5 c 128,-1,48
 514 641 514 641 512 641 c 256,49,50
 510 641 510 641 508.5 640.5 c 128,-1,51
 507 640 507 640 505.5 638.5 c 128,-1,52
 504 637 504 637 503 635 c 128,-1,53
 502 633 502 633 502 632 c 2,54,-1
 502 458 l 1,55,-1
 329 458 l 2,56,57
 327 458 327 458 325 457 c 128,-1,58
 323 456 323 456 321.5 454.5 c 128,-1,59
 320 453 320 453 319.5 451.5 c 128,-1,60
 319 450 319 450 319 448 c 256,61,62
 319 446 319 446 319.5 444.5 c 128,-1,63
 320 443 320 443 321.5 441.5 c 128,-1,64
 323 440 323 440 325 439 c 128,-1,65
 327 438 327 438 329 438 c 2,66,-1
 502 438 l 1,67,-1
 502 265 l 2,68,69
 502 263 502 263 503 261 c 128,-1,70
 504 259 504 259 505.5 257.5 c 128,-1,71
 507 256 507 256 508.5 255.5 c 128,-1,72
 510 255 510 255 512 255 c 256,73,74
 514 255 514 255 515.5 255.5 c 128,-1,75
 517 256 517 256 518.5 257.5 c 128,-1,76
 520 259 520 259 521 261 c 128,-1,77
 522 263 522 263 522 265 c 2,78,-1
 522 438 l 1,79,-1
 696 438 l 2,80,81
 697 438 697 438 699 439 c 128,-1,82
 701 440 701 440 702.5 441.5 c 128,-1,83
 704 443 704 443 704.5 444.5 c 128,-1,84
 705 446 705 446 705 448 c 256,85,86
 705 450 705 450 704.5 451.5 c 128,-1,87
 704 453 704 453 702.5 454.5 c 128,-1,88
 701 456 701 456 699 457 c 128,-1,89
 697 458 697 458 696 458 c 1,90,-1
 696 458 l 1,42,-1
EndSplineSet
EndChar
StartChar: uniE618
Encoding: 58904 58904 26
Width: 1024
GlyphClass: 1
Flags: W
LayerCount: 2
Fore
SplineSet
299 358 m 1,0,1
 298 358 298 358 297 358.5 c 128,-1,2
 296 359 296 359 295 359.5 c 128,-1,3
 294 360 294 360 293.5 360.5 c 128,-1,4
 293 361 293 361 292 362 c 2,5,-1
 203 513 l 1,6,-1
 114 362 l 2,7,8
 113 361 113 361 111.5 360 c 128,-1,9
 110 359 110 359 108.5 358.5 c 128,-1,10
 107 358 107 358 105.5 358.5 c 128,-1,11
 104 359 104 359 103 359 c 0,12,13
 101 360 101 360 100 361.5 c 128,-1,14
 99 363 99 363 98.5 364.5 c 128,-1,15
 98 366 98 366 98.5 367.5 c 128,-1,16
 99 369 99 369 100 371 c 2,17,-1
 196 534 l 1,18,19
 196 534 196 534 197 535 c 128,-1,20
 198 536 198 536 199 536.5 c 128,-1,21
 200 537 200 537 201 537.5 c 128,-1,22
 202 538 202 538 203 538 c 256,23,24
 204 538 204 538 205 537.5 c 128,-1,25
 206 537 206 537 207 536.5 c 128,-1,26
 208 536 208 536 209 535 c 128,-1,27
 210 534 210 534 210 534 c 1,28,-1
 306 371 l 2,29,30
 307 369 307 369 307.5 367.5 c 128,-1,31
 308 366 308 366 307.5 364.5 c 128,-1,32
 307 363 307 363 306 361.5 c 128,-1,33
 305 360 305 360 303 359 c 2,34,35
 303 359 303 359 302.5 359 c 128,-1,36
 302 359 302 359 301.5 359 c 128,-1,37
 301 359 301 359 300.5 358.5 c 128,-1,38
 300 358 300 358 299 358 c 1,39,-1
 299 358 l 1,0,1
917 358 m 1,40,41
 916 358 916 358 915 358.5 c 128,-1,42
 914 359 914 359 913 359.5 c 128,-1,43
 912 360 912 360 911.5 360.5 c 128,-1,44
 911 361 911 361 910 362 c 2,45,-1
 821 513 l 1,46,-1
 732 362 l 2,47,48
 731 361 731 361 729.5 360 c 128,-1,49
 728 359 728 359 726.5 358.5 c 128,-1,50
 725 358 725 358 723.5 358.5 c 128,-1,51
 722 359 722 359 721 359 c 0,52,53
 719 360 719 360 718 361.5 c 128,-1,54
 717 363 717 363 716.5 364.5 c 128,-1,55
 716 366 716 366 716.5 367.5 c 128,-1,56
 717 369 717 369 718 371 c 2,57,-1
 814 534 l 1,58,59
 814 534 814 534 815 535 c 128,-1,60
 816 536 816 536 817 536.5 c 128,-1,61
 818 537 818 537 819 537.5 c 128,-1,62
 820 538 820 538 821 538 c 256,63,64
 822 538 822 538 823 537.5 c 128,-1,65
 824 537 824 537 825 536.5 c 128,-1,66
 826 536 826 536 827 535 c 128,-1,67
 828 534 828 534 828 534 c 1,68,-1
 924 371 l 2,69,70
 925 369 925 369 925.5 367.5 c 128,-1,71
 926 366 926 366 925.5 364.5 c 128,-1,72
 925 363 925 363 924 361.5 c 128,-1,73
 923 360 923 360 921 359 c 2,74,75
 921 359 921 359 920.5 359 c 128,-1,76
 920 359 920 359 919.5 359 c 128,-1,77
 919 359 919 359 918.5 358.5 c 128,-1,78
 918 358 918 358 917 358 c 1,79,-1
 917 358 l 1,40,41
642 358 m 1,80,81
 641 358 641 358 640 358.5 c 128,-1,82
 639 359 639 359 638 359.5 c 128,-1,83
 637 360 637 360 636 360.5 c 128,-1,84
 635 361 635 361 635 362 c 2,85,-1
 546 513 l 1,86,-1
 457 362 l 2,87,88
 456 361 456 361 454.5 360 c 128,-1,89
 453 359 453 359 451.5 358.5 c 128,-1,90
 450 358 450 358 448.5 358.5 c 128,-1,91
 447 359 447 359 445 359 c 0,92,93
 444 360 444 360 443 361.5 c 128,-1,94
 442 363 442 363 441.5 364.5 c 128,-1,95
 441 366 441 366 441 367.5 c 128,-1,96
 441 369 441 369 442 371 c 2,97,-1
 539 534 l 1,98,99
 539 534 539 534 540 535 c 128,-1,100
 541 536 541 536 542 536.5 c 128,-1,101
 543 537 543 537 544 537.5 c 128,-1,102
 545 538 545 538 546 538 c 256,103,104
 547 538 547 538 548 537.5 c 128,-1,105
 549 537 549 537 550 536.5 c 128,-1,106
 551 536 551 536 551.5 535 c 128,-1,107
 552 534 552 534 553 534 c 2,108,-1
 649 371 l 2,109,110
 650 369 650 369 650.5 367.5 c 128,-1,111
 651 366 651 366 650.5 364.5 c 128,-1,112
 650 363 650 363 649 361.5 c 128,-1,113
 648 360 648 360 646 359 c 2,114,115
 646 359 646 359 645.5 359 c 128,-1,116
 645 359 645 359 644.5 359 c 128,-1,117
 644 359 644 359 643.5 358.5 c 128,-1,118
 643 358 643 358 642 358 c 1,119,-1
 642 358 l 1,80,81
358 358 m 1,120,-1
 334 358 l 2,121,122
 332 358 332 358 330.5 359 c 128,-1,123
 329 360 329 360 328 361 c 128,-1,124
 327 362 327 362 326 363.5 c 128,-1,125
 325 365 325 365 325 367 c 0,126,127
 325 368 325 368 326 369.5 c 128,-1,128
 327 371 327 371 328 372 c 128,-1,129
 329 373 329 373 330.5 374 c 128,-1,130
 332 375 332 375 334 375 c 2,131,-1
 358 375 l 2,132,133
 374 375 374 375 387.5 380.5 c 128,-1,134
 401 386 401 386 411 396 c 128,-1,135
 421 406 421 406 427 419.5 c 128,-1,136
 433 433 433 433 433 448 c 256,137,138
 433 463 433 463 427 476.5 c 128,-1,139
 421 490 421 490 411 500 c 128,-1,140
 401 510 401 510 387.5 515.5 c 128,-1,141
 374 521 374 521 358 521 c 2,142,-1
 334 521 l 2,143,144
 332 521 332 521 330.5 522 c 128,-1,145
 329 523 329 523 328 524 c 128,-1,146
 327 525 327 525 326 526.5 c 128,-1,147
 325 528 325 528 325 529 c 0,148,149
 325 531 325 531 326 532.5 c 128,-1,150
 327 534 327 534 328 535 c 128,-1,151
 329 536 329 536 330.5 537 c 128,-1,152
 332 538 332 538 334 538 c 2,153,-1
 358 538 l 2,154,155
 377 538 377 538 394 530.5 c 128,-1,156
 411 523 411 523 423.5 511 c 128,-1,157
 436 499 436 499 443 483 c 128,-1,158
 450 467 450 467 450 448 c 256,159,160
 450 429 450 429 442.5 413 c 128,-1,161
 435 397 435 397 423 385 c 128,-1,162
 411 373 411 373 394 365.5 c 128,-1,163
 377 358 377 358 358 358 c 1,164,-1
 358 358 l 1,120,-1
684 358 m 1,165,166
 683 358 683 358 681.5 359 c 128,-1,167
 680 360 680 360 678.5 361 c 128,-1,168
 677 362 677 362 676.5 363.5 c 128,-1,169
 676 365 676 365 676 367 c 2,170,-1
 676 529 l 2,171,172
 676 531 676 531 676.5 532.5 c 128,-1,173
 677 534 677 534 678.5 535 c 128,-1,174
 680 536 680 536 681.5 537 c 128,-1,175
 683 538 683 538 684 538 c 0,176,177
 686 538 686 538 687.5 537 c 128,-1,178
 689 536 689 536 690 535 c 128,-1,179
 691 534 691 534 692 532.5 c 128,-1,180
 693 531 693 531 693 529 c 2,181,-1
 693 367 l 2,182,183
 693 365 693 365 692 363.5 c 128,-1,184
 691 362 691 362 690 361 c 128,-1,185
 689 360 689 360 687.5 359 c 128,-1,186
 686 358 686 358 684 358 c 1,187,-1
 684 358 l 1,165,166
EndSplineSet
EndChar
StartChar: uniE619
Encoding: 58905 58905 27
Width: 1024
GlyphClass: 1
Flags: W
LayerCount: 2
Fore
SplineSet
512 938 m 1,0,1
 411 938 411 938 321.5 899.5 c 128,-1,2
 232 861 232 861 165.5 794.5 c 128,-1,3
 99 728 99 728 60.5 638.5 c 128,-1,4
 22 549 22 549 22 448 c 256,5,6
 22 347 22 347 60.5 257.5 c 128,-1,7
 99 168 99 168 165.5 101.5 c 128,-1,8
 232 35 232 35 321.5 -3.5 c 128,-1,9
 411 -42 411 -42 512 -42 c 256,10,11
 613 -42 613 -42 702.5 -3.5 c 128,-1,12
 792 35 792 35 858.5 101.5 c 128,-1,13
 925 168 925 168 963.5 257.5 c 128,-1,14
 1002 347 1002 347 1002 448 c 256,15,16
 1002 549 1002 549 963.5 638.5 c 128,-1,17
 925 728 925 728 858.5 794.5 c 128,-1,18
 792 861 792 861 702.5 899.5 c 128,-1,19
 613 938 613 938 512 938 c 1,20,-1
 512 938 l 1,0,1
512 -22 m 1,21,22
 415 -22 415 -22 329 15 c 128,-1,23
 243 52 243 52 179.5 115.5 c 128,-1,24
 116 179 116 179 79 265 c 128,-1,25
 42 351 42 351 42 448 c 256,26,27
 42 545 42 545 79 631 c 128,-1,28
 116 717 116 717 179.5 780.5 c 128,-1,29
 243 844 243 844 329 881 c 128,-1,30
 415 918 415 918 512 918 c 256,31,32
 609 918 609 918 695 881 c 128,-1,33
 781 844 781 844 844.5 780.5 c 128,-1,34
 908 717 908 717 945 631 c 128,-1,35
 982 545 982 545 982 448 c 256,36,37
 982 351 982 351 945 265 c 128,-1,38
 908 179 908 179 844.5 115.5 c 128,-1,39
 781 52 781 52 695 15 c 128,-1,40
 609 -22 609 -22 512 -22 c 1,41,-1
 512 -22 l 1,21,22
525 398 m 1,42,-1
 525 565 l 2,43,44
 525 568 525 568 524 570.5 c 128,-1,45
 523 573 523 573 521 575 c 128,-1,46
 519 577 519 577 516.5 578 c 128,-1,47
 514 579 514 579 511 579 c 256,48,49
 508 579 508 579 505.5 578 c 128,-1,50
 503 577 503 577 501 575 c 128,-1,51
 499 573 499 573 498 570.5 c 128,-1,52
 497 568 497 568 497 565 c 2,53,-1
 497 398 l 2,54,55
 497 395 497 395 498 392.5 c 128,-1,56
 499 390 499 390 501 388.5 c 128,-1,57
 503 387 503 387 505.5 385.5 c 128,-1,58
 508 384 508 384 511 384 c 256,59,60
 514 384 514 384 516.5 385.5 c 128,-1,61
 519 387 519 387 521 388.5 c 128,-1,62
 523 390 523 390 524 392.5 c 128,-1,63
 525 395 525 395 525 398 c 1,64,-1
 525 398 l 1,42,-1
528 325 m 1,65,-1
 528 324 l 1,66,67
 528 328 528 328 526.5 331 c 128,-1,68
 525 334 525 334 523 336 c 128,-1,69
 521 338 521 338 518 339.5 c 128,-1,70
 515 341 515 341 511 341 c 0,71,72
 508 341 508 341 505 339.5 c 128,-1,73
 502 338 502 338 499.5 336 c 128,-1,74
 497 334 497 334 496 331 c 128,-1,75
 495 328 495 328 495 324 c 1,76,-1
 495 325 l 1,77,78
 495 322 495 322 496 319 c 128,-1,79
 497 316 497 316 499.5 313.5 c 128,-1,80
 502 311 502 311 505 309.5 c 128,-1,81
 508 308 508 308 511 308 c 0,82,83
 515 308 515 308 518 309.5 c 128,-1,84
 521 311 521 311 523 313.5 c 128,-1,85
 525 316 525 316 526.5 319 c 128,-1,86
 528 322 528 322 528 325 c 1,87,-1
 528 325 l 1,65,-1
512 704 m 1,88,-1
 768 261 l 1,89,-1
 256 261 l 1,90,-1
 512 704 l 1,91,-1
 512 704 l 1,88,-1
512 723 m 1,92,93
 509 723 509 723 507 722.5 c 128,-1,94
 505 722 505 722 502.5 720.5 c 128,-1,95
 500 719 500 719 498.5 717.5 c 128,-1,96
 497 716 497 716 496 713 c 2,97,-1
 240 271 l 2,98,99
 239 268 239 268 238 266 c 128,-1,100
 237 264 237 264 237 261.5 c 128,-1,101
 237 259 237 259 238 256.5 c 128,-1,102
 239 254 239 254 240 252 c 0,103,104
 241 249 241 249 243 247.5 c 128,-1,105
 245 246 245 246 247 244.5 c 128,-1,106
 249 243 249 243 251.5 242.5 c 128,-1,107
 254 242 254 242 256 242 c 2,108,-1
 768 242 l 2,109,110
 770 242 770 242 772.5 242.5 c 128,-1,111
 775 243 775 243 777 244.5 c 128,-1,112
 779 246 779 246 781 247.5 c 128,-1,113
 783 249 783 249 784 252 c 0,114,115
 785 254 785 254 786 256.5 c 128,-1,116
 787 259 787 259 787 261.5 c 128,-1,117
 787 264 787 264 786 266 c 128,-1,118
 785 268 785 268 784 271 c 2,119,-1
 528 713 l 2,120,121
 527 716 527 716 525.5 717.5 c 128,-1,122
 524 719 524 719 521.5 720.5 c 128,-1,123
 519 722 519 722 517 722.5 c 128,-1,124
 515 723 515 723 512 723 c 1,125,-1
 512 723 l 1,126,-1
 512 723 l 1,92,93
EndSplineSet
EndChar
StartChar: uniE61A
Encoding: 58906 58906 28
Width: 1024
GlyphClass: 1
Flags: W
LayerCount: 2
Fore
SplineSet
45 447 m 1,0,1
 45 452 45 452 45.5 457.5 c 128,-1,2
 46 463 46 463 46.5 467.5 c 128,-1,3
 47 472 47 472 47.5 477.5 c 128,-1,4
 48 483 48 483 48 487 c 0,5,6
 46 490 46 490 44 491.5 c 128,-1,7
 42 493 42 493 40 495.5 c 128,-1,8
 38 498 38 498 35.5 499.5 c 128,-1,9
 33 501 33 501 31 504 c 1,10,11
 30 496 30 496 29 489.5 c 128,-1,12
 28 483 28 483 27.5 475.5 c 128,-1,13
 27 468 27 468 26.5 461.5 c 128,-1,14
 26 455 26 455 26 447 c 0,15,16
 24 392 24 392 34 339 c 128,-1,17
 44 286 44 286 64.5 238 c 128,-1,18
 85 190 85 190 115 147 c 128,-1,19
 145 104 145 104 183 70 c 0,20,21
 185 70 185 70 186.5 72.5 c 128,-1,22
 188 75 188 75 189.5 76.5 c 128,-1,23
 191 78 191 78 192.5 80.5 c 128,-1,24
 194 83 194 83 195 84 c 1,25,26
 159 118 159 118 130 158.5 c 128,-1,27
 101 199 101 199 81.5 246 c 128,-1,28
 62 293 62 293 52.5 343 c 128,-1,29
 43 393 43 393 45 447 c 1,30,-1
 45 447 l 1,0,1
419 943 m 1,31,32
 345 927 345 927 282 888.5 c 128,-1,33
 219 850 219 850 170 797 c 128,-1,34
 121 744 121 744 89 677 c 128,-1,35
 57 610 57 610 47 537 c 0,36,37
 49 535 49 535 51 534 c 128,-1,38
 53 533 53 533 55.5 530.5 c 128,-1,39
 58 528 58 528 60 527 c 128,-1,40
 62 526 62 526 64 524 c 1,41,42
 73 596 73 596 102 659.5 c 128,-1,43
 131 723 131 723 177 776 c 128,-1,44
 223 829 223 829 282.5 866 c 128,-1,45
 342 903 342 903 412 923 c 0,46,47
 413 924 413 924 414 927.5 c 128,-1,48
 415 931 415 931 415.5 933 c 128,-1,49
 416 935 416 935 417 938 c 128,-1,50
 418 941 418 941 419 943 c 1,51,-1
 419 943 l 1,31,32
509 934 m 1,52,53
 506 933 506 933 503.5 933.5 c 128,-1,54
 501 934 501 934 498 933.5 c 128,-1,55
 495 933 495 933 492 933.5 c 128,-1,56
 489 934 489 934 486 933 c 0,57,58
 485 931 485 931 484 928 c 128,-1,59
 483 925 483 925 482 923 c 128,-1,60
 481 921 481 921 480 918.5 c 128,-1,61
 479 916 479 916 478 914 c 1,62,63
 482 913 482 913 486 914 c 128,-1,64
 490 915 490 915 494 914.5 c 128,-1,65
 498 914 498 914 501.5 914.5 c 128,-1,66
 505 915 505 915 509 914 c 0,67,68
 540 915 540 915 570 910.5 c 128,-1,69
 600 906 600 906 628.5 899 c 128,-1,70
 657 892 657 892 684 881 c 128,-1,71
 711 870 711 870 736 857 c 0,72,73
 737 858 737 858 738.5 860.5 c 128,-1,74
 740 863 740 863 741.5 864.5 c 128,-1,75
 743 866 743 866 744.5 868 c 128,-1,76
 746 870 746 870 747 871 c 1,77,78
 721 887 721 887 692.5 898 c 128,-1,79
 664 909 664 909 634 917.5 c 128,-1,80
 604 926 604 926 573 929.5 c 128,-1,81
 542 933 542 933 509 934 c 1,82,-1
 509 934 l 1,52,53
566 -28 m 1,83,84
 559 -27 559 -27 551.5 -28 c 128,-1,85
 544 -29 544 -29 537 -29 c 128,-1,86
 530 -29 530 -29 523 -29.5 c 128,-1,87
 516 -30 516 -30 508 -29 c 0,88,89
 471 -29 471 -29 435 -21.5 c 128,-1,90
 399 -14 399 -14 365 -2.5 c 128,-1,91
 331 9 331 9 300 26.5 c 128,-1,92
 269 44 269 44 241 64 c 0,93,94
 239 63 239 63 237.5 60.5 c 128,-1,95
 236 58 236 58 234.5 56.5 c 128,-1,96
 233 55 233 55 231.5 53 c 128,-1,97
 230 51 230 51 229 50 c 1,98,99
 258 27 258 27 290.5 10 c 128,-1,100
 323 -7 323 -7 358 -20 c 128,-1,101
 393 -33 393 -33 430.5 -40 c 128,-1,102
 468 -47 468 -47 508 -49 c 0,103,104
 517 -48 517 -48 527 -48.5 c 128,-1,105
 537 -49 537 -49 546.5 -48 c 128,-1,106
 556 -47 556 -47 565 -46.5 c 128,-1,107
 574 -46 574 -46 584 -44 c 1,108,109
 582 -43 582 -43 579.5 -40.5 c 128,-1,110
 577 -38 577 -38 575 -36 c 128,-1,111
 573 -34 573 -34 570.5 -31.5 c 128,-1,112
 568 -29 568 -29 566 -28 c 1,113,-1
 566 -28 l 1,83,84
652 -42 m 1,114,115
 673 -37 673 -37 694 -28.5 c 128,-1,116
 715 -20 715 -20 734.5 -11 c 128,-1,117
 754 -2 754 -2 773 10 c 128,-1,118
 792 22 792 22 809 34 c 0,119,120
 809 38 809 38 808.5 40 c 128,-1,121
 808 42 808 42 808 45.5 c 128,-1,122
 808 49 808 49 807.5 51 c 128,-1,123
 807 53 807 53 807 57 c 1,124,125
 788 41 788 41 767.5 29 c 128,-1,126
 747 17 747 17 725.5 6 c 128,-1,127
 704 -5 704 -5 681 -13 c 128,-1,128
 658 -21 658 -21 635 -28 c 1,129,130
 637 -28 637 -28 639 -30.5 c 128,-1,131
 641 -33 641 -33 643 -34.5 c 128,-1,132
 645 -36 645 -36 647.5 -38.5 c 128,-1,133
 650 -41 650 -41 652 -42 c 1,134,-1
 652 -42 l 1,114,115
977 420 m 1,135,136
 972 372 972 372 957 326 c 128,-1,137
 942 280 942 280 919.5 240 c 128,-1,138
 897 200 897 200 867 164.5 c 128,-1,139
 837 129 837 129 801 101 c 0,140,141
 801 97 801 97 801 94.5 c 128,-1,142
 801 92 801 92 801 88.5 c 128,-1,143
 801 85 801 85 801 82.5 c 128,-1,144
 801 80 801 80 801 76 c 1,145,146
 841 107 841 107 874.5 143.5 c 128,-1,147
 908 180 908 180 933 224 c 128,-1,148
 958 268 958 268 974 316.5 c 128,-1,149
 990 365 990 365 996 419 c 0,150,151
 1002 480 1002 480 993 540.5 c 128,-1,152
 984 601 984 601 962 654.5 c 128,-1,153
 940 708 940 708 905.5 756 c 128,-1,154
 871 804 871 804 826 841 c 0,155,156
 825 840 825 840 823.5 838 c 128,-1,157
 822 836 822 836 820 834.5 c 128,-1,158
 818 833 818 833 816.5 831 c 128,-1,159
 815 829 815 829 814 828 c 1,160,161
 856 790 856 790 889.5 745 c 128,-1,162
 923 700 923 700 944.5 647.5 c 128,-1,163
 966 595 966 595 974.5 538 c 128,-1,164
 983 481 983 481 977 420 c 1,165,-1
 977 420 l 1,135,136
514 521 m 1,166,-1
 514 597 l 2,167,168
 514 600 514 600 513.5 601 c 128,-1,169
 513 602 513 602 511.5 604 c 128,-1,170
 510 606 510 606 508.5 606 c 128,-1,171
 507 606 507 606 505 607 c 0,172,173
 503 606 503 606 501 606 c 128,-1,174
 499 606 499 606 498 604 c 128,-1,175
 497 602 497 602 496 601 c 128,-1,176
 495 600 495 600 495 597 c 2,177,-1
 495 493 l 1,178,179
 498 495 498 495 500 499 c 128,-1,180
 502 503 502 503 504.5 506.5 c 128,-1,181
 507 510 507 510 509.5 514 c 128,-1,182
 512 518 512 518 514 520 c 2,183,-1
 514 521 l 1,166,-1
218 625 m 1,184,185
 244 619 244 619 265 607 c 128,-1,186
 286 595 286 595 300.5 574.5 c 128,-1,187
 315 554 315 554 322.5 528.5 c 128,-1,188
 330 503 330 503 330 471 c 0,189,190
 330 451 330 451 333 431.5 c 128,-1,191
 336 412 336 412 341 396 c 128,-1,192
 346 380 346 380 354 366 c 128,-1,193
 362 352 362 352 372 342 c 1,194,195
 373 343 373 343 374.5 345.5 c 128,-1,196
 376 348 376 348 377.5 349.5 c 128,-1,197
 379 351 379 351 380 353.5 c 128,-1,198
 381 356 381 356 383 357 c 1,199,200
 374 368 374 368 368 379.5 c 128,-1,201
 362 391 362 391 358 405.5 c 128,-1,202
 354 420 354 420 351.5 436 c 128,-1,203
 349 452 349 452 349 472 c 0,204,205
 349 505 349 505 340 535 c 128,-1,206
 331 565 331 565 314.5 587 c 128,-1,207
 298 609 298 609 274.5 624 c 128,-1,208
 251 639 251 639 221 643 c 0,209,210
 220 644 220 644 218 643 c 128,-1,211
 216 642 216 642 214.5 641.5 c 128,-1,212
 213 641 213 641 212 639 c 128,-1,213
 211 637 211 637 210 636 c 0,214,215
 210 633 210 633 210.5 631.5 c 128,-1,216
 211 630 211 630 212 628 c 128,-1,217
 213 626 213 626 214.5 625.5 c 128,-1,218
 216 625 216 625 218 624 c 1,219,-1
 218 625 l 1,184,185
833 575 m 1,220,221
 833 576 833 576 832.5 578.5 c 128,-1,222
 832 581 832 581 831 582 c 128,-1,223
 830 583 830 583 828.5 584 c 128,-1,224
 827 585 827 585 825 585 c 0,225,226
 798 589 798 589 773 582.5 c 128,-1,227
 748 576 748 576 727 562 c 128,-1,228
 706 548 706 548 689 526 c 128,-1,229
 672 504 672 504 661 477 c 0,230,231
 663 472 663 472 664 467.5 c 128,-1,232
 665 463 665 463 666 458 c 128,-1,233
 667 453 667 453 668 449 c 128,-1,234
 669 445 669 445 669 439 c 1,235,236
 670 441 670 441 670.5 442 c 128,-1,237
 671 443 671 443 671.5 445 c 128,-1,238
 672 447 672 447 672 447.5 c 128,-1,239
 672 448 672 448 673 451 c 0,240,241
 681 480 681 480 696 503.5 c 128,-1,242
 711 527 711 527 730.5 541.5 c 128,-1,243
 750 556 750 556 773 563 c 128,-1,244
 796 570 796 570 822 566 c 0,245,246
 824 566 824 566 826 566 c 128,-1,247
 828 566 828 566 829.5 568 c 128,-1,248
 831 570 831 570 832 571 c 128,-1,249
 833 572 833 572 833 575 c 1,250,-1
 833 575 l 1,220,221
637 422 m 1,251,252
 631 401 631 401 620.5 383.5 c 128,-1,253
 610 366 610 366 594.5 355 c 128,-1,254
 579 344 579 344 559 337 c 128,-1,255
 539 330 539 330 514 330 c 1,256,-1
 514 459 l 1,257,258
 512 456 512 456 509.5 452 c 128,-1,259
 507 448 507 448 504.5 445 c 128,-1,260
 502 442 502 442 500 438 c 128,-1,261
 498 434 498 434 495 431 c 2,262,-1
 495 329 l 1,263,264
 487 331 487 331 479 331.5 c 128,-1,265
 471 332 471 332 463.5 334 c 128,-1,266
 456 336 456 336 449 337.5 c 128,-1,267
 442 339 442 339 435 343 c 1,268,269
 434 340 434 340 432.5 338.5 c 128,-1,270
 431 337 431 337 430 334.5 c 128,-1,271
 429 332 429 332 427.5 330.5 c 128,-1,272
 426 329 426 329 425 326 c 1,273,274
 432 324 432 324 440.5 320.5 c 128,-1,275
 449 317 449 317 457.5 315.5 c 128,-1,276
 466 314 466 314 475.5 312.5 c 128,-1,277
 485 311 485 311 495 311 c 1,278,-1
 495 127 l 2,279,280
 495 126 495 126 496 123.5 c 128,-1,281
 497 121 497 121 498 120.5 c 128,-1,282
 499 120 499 120 501 118.5 c 128,-1,283
 503 117 503 117 505 118 c 0,284,285
 507 117 507 117 508.5 118.5 c 128,-1,286
 510 120 510 120 511.5 120.5 c 128,-1,287
 513 121 513 121 513.5 123.5 c 128,-1,288
 514 126 514 126 514 127 c 2,289,-1
 514 311 l 1,290,291
 540 311 540 311 561 317.5 c 128,-1,292
 582 324 582 324 599 335 c 128,-1,293
 616 346 616 346 628.5 362.5 c 128,-1,294
 641 379 641 379 649 398 c 0,295,296
 648 402 648 402 646.5 404.5 c 128,-1,297
 645 407 645 407 643.5 410.5 c 128,-1,298
 642 414 642 414 640.5 416.5 c 128,-1,299
 639 419 639 419 637 423 c 1,300,-1
 637 422 l 1,251,252
EndSplineSet
EndChar
StartChar: uniE61B
Encoding: 58907 58907 29
Width: 1024
GlyphClass: 1
Flags: W
LayerCount: 2
Fore
SplineSet
512 938 m 1,0,1
 411 938 411 938 321.5 899.5 c 128,-1,2
 232 861 232 861 165.5 794.5 c 128,-1,3
 99 728 99 728 60.5 638.5 c 128,-1,4
 22 549 22 549 22 448 c 256,5,6
 22 347 22 347 60.5 257.5 c 128,-1,7
 99 168 99 168 165.5 101.5 c 128,-1,8
 232 35 232 35 321.5 -3.5 c 128,-1,9
 411 -42 411 -42 512 -42 c 256,10,11
 613 -42 613 -42 702.5 -3.5 c 128,-1,12
 792 35 792 35 858.5 101.5 c 128,-1,13
 925 168 925 168 963.5 257.5 c 128,-1,14
 1002 347 1002 347 1002 448 c 256,15,16
 1002 549 1002 549 963.5 638.5 c 128,-1,17
 925 728 925 728 858.5 794.5 c 128,-1,18
 792 861 792 861 702.5 899.5 c 128,-1,19
 613 938 613 938 512 938 c 1,20,-1
 512 938 l 1,0,1
512 -22 m 1,21,22
 415 -22 415 -22 329 15 c 128,-1,23
 243 52 243 52 179.5 115.5 c 128,-1,24
 116 179 116 179 79 265 c 128,-1,25
 42 351 42 351 42 448 c 256,26,27
 42 545 42 545 79 631 c 128,-1,28
 116 717 116 717 179.5 780.5 c 128,-1,29
 243 844 243 844 329 881 c 128,-1,30
 415 918 415 918 512 918 c 256,31,32
 609 918 609 918 695 881 c 128,-1,33
 781 844 781 844 844.5 780.5 c 128,-1,34
 908 717 908 717 945 631 c 128,-1,35
 982 545 982 545 982 448 c 256,36,37
 982 351 982 351 945 265 c 128,-1,38
 908 179 908 179 844.5 115.5 c 128,-1,39
 781 52 781 52 695 15 c 128,-1,40
 609 -22 609 -22 512 -22 c 1,41,-1
 512 -22 l 1,21,22
623 415 m 1,42,43
 630 427 630 427 635 439.5 c 128,-1,44
 640 452 640 452 643.5 465.5 c 128,-1,45
 647 479 647 479 649 492.5 c 128,-1,46
 651 506 651 506 651 520 c 0,47,48
 651 541 651 541 647 561.5 c 128,-1,49
 643 582 643 582 635 601 c 128,-1,50
 627 620 627 620 615.5 637.5 c 128,-1,51
 604 655 604 655 589 670 c 256,52,53
 574 685 574 685 556.5 696.5 c 128,-1,54
 539 708 539 708 520 716 c 128,-1,55
 501 724 501 724 480.5 728 c 128,-1,56
 460 732 460 732 439 732 c 256,57,58
 418 732 418 732 397.5 728 c 128,-1,59
 377 724 377 724 358 716 c 128,-1,60
 339 708 339 708 322 696.5 c 128,-1,61
 305 685 305 685 290 670 c 256,62,63
 275 655 275 655 263 637.5 c 128,-1,64
 251 620 251 620 243.5 601 c 128,-1,65
 236 582 236 582 232 561.5 c 128,-1,66
 228 541 228 541 228 520 c 256,67,68
 228 499 228 499 232 478.5 c 128,-1,69
 236 458 236 458 243.5 439 c 128,-1,70
 251 420 251 420 263 403 c 128,-1,71
 275 386 275 386 290 371 c 256,72,73
 305 356 305 356 322 344 c 128,-1,74
 339 332 339 332 358 324.5 c 128,-1,75
 377 317 377 317 397.5 313 c 128,-1,76
 418 309 418 309 439 309 c 0,77,78
 453 309 453 309 467 310.5 c 128,-1,79
 481 312 481 312 494.5 316 c 128,-1,80
 508 320 508 320 521 325 c 128,-1,81
 534 330 534 330 546 337 c 1,82,-1
 706 177 l 2,83,84
 707 176 707 176 708.5 175.5 c 128,-1,85
 710 175 710 175 711.5 174.5 c 128,-1,86
 713 174 713 174 714.5 174.5 c 128,-1,87
 716 175 716 175 717 175 c 1,88,89
 717 176 717 176 717.5 176 c 128,-1,90
 718 176 718 176 718 176 c 129,-1,91
 718 176 718 176 718 176 c 129,-1,92
 718 176 718 176 719 176 c 1,93,94
 719 177 719 177 719 177 c 129,-1,95
 719 177 719 177 719 177 c 129,-1,96
 719 177 719 177 719 177 c 129,-1,97
 719 177 719 177 719 177 c 1,98,99
 721 179 721 179 721.5 180.5 c 128,-1,100
 722 182 722 182 722 184 c 128,-1,101
 722 186 722 186 721.5 187.5 c 128,-1,102
 721 189 721 189 719 191 c 2,103,-1
 562 348 l 1,104,105
 566 350 566 350 569.5 353 c 128,-1,106
 573 356 573 356 576 358.5 c 128,-1,107
 579 361 579 361 582.5 364 c 128,-1,108
 586 367 586 367 589 371 c 0,109,110
 592 374 592 374 595 377.5 c 128,-1,111
 598 381 598 381 601 384.5 c 128,-1,112
 604 388 604 388 607 391.5 c 128,-1,113
 610 395 610 395 612 399 c 1,114,-1
 770 241 l 2,115,116
 771 240 771 240 773 239 c 128,-1,117
 775 238 775 238 777 238 c 128,-1,118
 779 238 779 238 780.5 239 c 128,-1,119
 782 240 782 240 783 241 c 0,120,121
 784 241 784 241 784 241 c 129,-1,122
 784 241 784 241 784 241.5 c 128,-1,123
 784 242 784 242 784 242 c 129,-1,124
 784 242 784 242 784 242 c 257,125,126
 784 242 784 242 784.5 242.5 c 128,-1,127
 785 243 785 243 785 243 c 129,-1,128
 785 243 785 243 785 243 c 129,-1,129
 785 243 785 243 785 244 c 0,130,131
 786 245 786 245 786 246.5 c 128,-1,132
 786 248 786 248 786 249.5 c 128,-1,133
 786 251 786 251 785.5 252.5 c 128,-1,134
 785 254 785 254 783 255 c 2,135,-1
 623 415 l 1,136,-1
 623 415 l 1,42,43
574 385 m 1,137,138
 561 371 561 371 545.5 361 c 128,-1,139
 530 351 530 351 512.5 343.5 c 128,-1,140
 495 336 495 336 476.5 332.5 c 128,-1,141
 458 329 458 329 439 329 c 256,142,143
 420 329 420 329 401.5 332.5 c 128,-1,144
 383 336 383 336 366 343.5 c 128,-1,145
 349 351 349 351 333.5 361 c 128,-1,146
 318 371 318 371 304 385 c 256,147,148
 290 399 290 399 280 414.5 c 128,-1,149
 270 430 270 430 262.5 447 c 128,-1,150
 255 464 255 464 251.5 482.5 c 128,-1,151
 248 501 248 501 248 520 c 256,152,153
 248 539 248 539 251.5 557.5 c 128,-1,154
 255 576 255 576 262.5 593.5 c 128,-1,155
 270 611 270 611 280 626.5 c 128,-1,156
 290 642 290 642 304 655 c 0,157,158
 318 669 318 669 333.5 679.5 c 128,-1,159
 349 690 349 690 366 697 c 128,-1,160
 383 704 383 704 401.5 707.5 c 128,-1,161
 420 711 420 711 439 711 c 256,162,163
 458 711 458 711 476.5 707.5 c 128,-1,164
 495 704 495 704 512.5 697 c 128,-1,165
 530 690 530 690 545.5 679.5 c 128,-1,166
 561 669 561 669 574 655 c 0,167,168
 588 642 588 642 598.5 626.5 c 128,-1,169
 609 611 609 611 616 593.5 c 128,-1,170
 623 576 623 576 626.5 557.5 c 128,-1,171
 630 539 630 539 630 520 c 256,172,173
 630 501 630 501 626.5 482.5 c 128,-1,174
 623 464 623 464 616 447 c 128,-1,175
 609 430 609 430 598.5 414.5 c 128,-1,176
 588 399 588 399 574 385 c 1,177,-1
 574 385 l 1,137,138
555 636 m 1,178,179
 544 648 544 648 530.5 657 c 128,-1,180
 517 666 517 666 502 672 c 128,-1,181
 487 678 487 678 471.5 681.5 c 128,-1,182
 456 685 456 685 439 685 c 0,183,184
 423 685 423 685 407 681.5 c 128,-1,185
 391 678 391 678 376.5 672 c 128,-1,186
 362 666 362 666 348.5 657 c 128,-1,187
 335 648 335 648 323 636 c 0,188,189
 299 612 299 612 287 582 c 128,-1,190
 275 552 275 552 275 520.5 c 128,-1,191
 275 489 275 489 287 458.5 c 128,-1,192
 299 428 299 428 323 404 c 0,193,194
 335 392 335 392 348.5 383 c 128,-1,195
 362 374 362 374 376.5 368 c 128,-1,196
 391 362 391 362 407 359 c 128,-1,197
 423 356 423 356 439 356 c 0,198,199
 456 356 456 356 471.5 359 c 128,-1,200
 487 362 487 362 502 368 c 128,-1,201
 517 374 517 374 530.5 383 c 128,-1,202
 544 392 544 392 555 404 c 0,203,204
 579 428 579 428 591 458.5 c 128,-1,205
 603 489 603 489 603 520.5 c 128,-1,206
 603 552 603 552 591 582 c 128,-1,207
 579 612 579 612 555 636 c 1,208,-1
 555 636 l 1,178,179
539 420 m 1,209,210
 529 410 529 410 517.5 402.5 c 128,-1,211
 506 395 506 395 493.5 389.5 c 128,-1,212
 481 384 481 384 467 381.5 c 128,-1,213
 453 379 453 379 439 379 c 256,214,215
 425 379 425 379 411.5 381.5 c 128,-1,216
 398 384 398 384 385 389.5 c 128,-1,217
 372 395 372 395 360.5 402.5 c 128,-1,218
 349 410 349 410 339 420 c 0,219,220
 319 441 319 441 308.5 467 c 128,-1,221
 298 493 298 493 298 520 c 128,-1,222
 298 547 298 547 308.5 573 c 128,-1,223
 319 599 319 599 339 620 c 0,224,225
 349 630 349 630 360.5 638 c 128,-1,226
 372 646 372 646 385 651 c 128,-1,227
 398 656 398 656 411.5 658.5 c 128,-1,228
 425 661 425 661 439 661 c 256,229,230
 453 661 453 661 467 658.5 c 128,-1,231
 481 656 481 656 493.5 651 c 128,-1,232
 506 646 506 646 517.5 638 c 128,-1,233
 529 630 529 630 539 620 c 0,234,235
 560 599 560 599 570 573 c 128,-1,236
 580 547 580 547 580 520 c 128,-1,237
 580 493 580 493 570 467 c 128,-1,238
 560 441 560 441 539 420 c 1,239,-1
 539 420 l 1,209,210
EndSplineSet
EndChar
StartChar: uniE61C
Encoding: 58908 58908 33
Width: 1024
LayerCount: 2
Fore
SplineSet
846.89453125 816.369140625 m 4,0,1
 914 749 914 749 949.094726562 663.181640625 c 4,2,3
 985 577 985 577 984.615234375 482.904296875 c 4,4,5
 985 387 985 387 947.229492188 300.182617188 c 4,6,7
 910 213 910 213 846.823242188 149.990234375 c 4,8,9
 784 87 784 87 696.647460938 49.607421875 c 4,10,11
 610 12 610 12 513.985351562 12.2744140625 c 4,12,13
 394 12 394 12 288.8828125 69.5498046875 c 5,14,-1
 39.384765625 4.10546875 l 5,15,-1
 106.159179688 248.006835938 l 5,16,17
 43 357 43 357 43.333984375 483.288085938 c 4,18,19
 43 579 43 579 80.7177734375 666.005859375 c 4,20,21
 118 753 118 753 181.120117188 816.189453125 c 4,22,23
 244 879 244 879 331.30078125 917.065429688 c 4,24,25
 422 957 422 957 513.985351562 956.89453125 c 4,26,27
 608 957 608 957 694.323242188 921.232421875 c 4,28,29
 776 888 776 888 846.89453125 816.369140625 c 4,0,1
513.985351562 91.7548828125 m 4,30,31
 620.021484375 91.775390625 620.021484375 91.775390625 710.13671875 144.19140625 c 132,-1,32
 800.250976562 196.606445312 800.250976562 196.606445312 852.682617188 286.737304688 c 132,-1,33
 905.11328125 376.868164062 905.11328125 376.868164062 905.158203125 482.94921875 c 4,34,35
 905.19140625 561.3359375 905.19140625 561.3359375 875.640625 632.7890625 c 132,-1,36
 846.08984375 704.243164062 846.08984375 704.243164062 790.698242188 759.684570312 c 132,-1,37
 735.307617188 815.14453125 735.307617188 815.14453125 663.909179688 844.762695312 c 132,-1,38
 592.51171875 874.379882812 592.51171875 874.379882812 514.145507812 874.4140625 c 4,39,40
 408.024414062 874.4140625 408.024414062 874.4140625 317.8671875 821.998046875 c 132,-1,41
 227.709960938 769.58203125 227.709960938 769.58203125 175.272460938 679.4609375 c 132,-1,42
 122.8359375 589.340820312 122.8359375 589.340820312 122.791015625 483.263671875 c 4,43,44
 122.72265625 370.325195312 122.72265625 370.325195312 182.592773438 275.087890625 c 6,45,-1
 191.890625 260.284179688 l 5,46,-1
 152.375976562 115.923828125 l 5,47,-1
 300.436523438 154.759765625 l 5,48,-1
 314.72265625 146.276367188 l 6,49,50
 406.5859375 91.7861328125 406.5859375 91.7861328125 513.985351562 91.7548828125 c 4,30,31
728.549804688 384.715820312 m 4,51,52
 748.974609375 374.430664062 748.974609375 374.430664062 751.072265625 370.928710938 c 4,53,54
 753.942382812 369.137695312 753.942382812 369.137695312 752.4140625 351.430664062 c 132,-1,55
 750.885742188 333.724609375 750.885742188 333.724609375 744.211914062 315.0078125 c 4,56,57
 737.44921875 296.044921875 737.44921875 296.044921875 710.90234375 279.02734375 c 132,-1,58
 684.354492188 262.009765625 684.354492188 262.009765625 664.84375 259.086914062 c 4,59,60
 624.427734375 253.0546875 624.427734375 253.0546875 590.779296875 263.7578125 c 4,61,62
 554.361328125 275.306640625 554.361328125 275.306640625 523.734375 288.536132812 c 4,63,64
 506.61328125 295.932617188 506.61328125 295.932617188 489.595703125 305.719726562 c 132,-1,65
 472.578125 315.506835938 472.578125 315.506835938 458.12109375 325.776367188 c 132,-1,66
 443.6640625 336.045898438 443.6640625 336.045898438 429.427734375 347.920898438 c 132,-1,67
 415.190429688 359.795898438 415.190429688 359.795898438 403.76953125 370.75390625 c 132,-1,68
 392.348632812 381.7109375 392.348632812 381.7109375 381.255859375 393.529296875 c 132,-1,69
 370.163085938 405.34765625 370.163085938 405.34765625 362.140625 414.84765625 c 132,-1,70
 354.118164062 424.348632812 354.118164062 424.348632812 346.532226562 433.96484375 c 132,-1,71
 338.946289062 443.58203125 338.946289062 443.58203125 334.685546875 449.48046875 c 132,-1,72
 330.424804688 455.37890625 330.424804688 455.37890625 326.708007812 460.649414062 c 132,-1,73
 322.991210938 465.919921875 322.991210938 465.919921875 322.846679688 466.11328125 c 4,74,75
 274.823242188 530.149414062 274.823242188 530.149414062 274.823242188 587.772460938 c 4,76,77
 274.823242188 613.969726562 274.823242188 613.969726562 284.413085938 637.368164062 c 132,-1,78
 294.001953125 660.765625 294.001953125 660.765625 299.205078125 666.99609375 c 132,-1,79
 304.407226562 673.2265625 304.407226562 673.2265625 315.985351562 685.869140625 c 4,80,81
 329.45703125 700.583007812 329.45703125 700.583007812 347.353515625 700.583007812 c 4,82,83
 361.649414062 700.583007812 361.649414062 700.583007812 369.897460938 700.176757812 c 4,84,85
 370.287109375 700.15625 370.287109375 700.15625 373.5625 700.124023438 c 132,-1,86
 376.837890625 700.092773438 376.837890625 700.092773438 377.96484375 699.879882812 c 132,-1,87
 379.091796875 699.66796875 379.091796875 699.66796875 382.110351562 698.516601562 c 132,-1,88
 385.12890625 697.365234375 385.12890625 697.365234375 386.977539062 695.3359375 c 132,-1,89
 388.826171875 693.306640625 388.826171875 693.306640625 391.440429688 689.39453125 c 132,-1,90
 394.0546875 685.482421875 394.0546875 685.482421875 396.345703125 679.979492188 c 4,91,92
 399.743164062 671.833984375 399.743164062 671.833984375 408.879882812 649.583007812 c 132,-1,93
 418.015625 627.33203125 418.015625 627.33203125 424.665039062 611.30078125 c 132,-1,94
 431.315429688 595.26953125 431.315429688 595.26953125 432.611328125 592.668945312 c 4,95,96
 438.234375 581.372070312 438.234375 581.372070312 433.580078125 572.065429688 c 4,97,98
 426.453125 557.84765625 426.453125 557.84765625 421.822265625 552.455078125 c 4,99,100
 419.825195312 550.127929688 419.825195312 550.127929688 416.122070312 545.609375 c 132,-1,101
 412.419921875 541.090820312 412.419921875 541.090820312 409.469726562 537.642578125 c 132,-1,102
 406.51953125 534.1953125 406.51953125 534.1953125 404.17578125 531.8515625 c 4,103,104
 392.079101562 519.799804688 392.079101562 519.799804688 399.032226562 507.86328125 c 4,105,106
 427.000976562 459.811523438 427.000976562 459.811523438 464.452148438 426.397460938 c 4,107,108
 480.005859375 412.530273438 480.005859375 412.530273438 496.98046875 401.067382812 c 132,-1,109
 513.956054688 389.604492188 513.956054688 389.604492188 523.73046875 384.546875 c 132,-1,110
 533.505859375 379.490234375 533.505859375 379.490234375 546.059570312 373.869140625 c 132,-1,111
 558.61328125 368.248046875 558.61328125 368.248046875 559.028320312 368.040039062 c 4,112,113
 574.966796875 360.052734375 574.966796875 360.052734375 584.506835938 370.973632812 c 4,114,115
 611.796875 402.112304688 611.796875 402.112304688 621.741210938 417.077148438 c 4,116,117
 630.049804688 429.573242188 630.049804688 429.573242188 648.189453125 422.965820312 c 4,118,119
 662.799804688 417.651367188 662.799804688 417.651367188 728.549804688 384.715820312 c 4,51,52
EndSplineSet
EndChar
StartChar: uniE61D
Encoding: 58909 58909 34
Width: 1024
LayerCount: 2
Fore
SplineSet
512 953.599609375 m 128,-1,1
 656 953.599609375 656 953.599609375 707.200195312 950.400390625 c 0,2,3
 782.6015625 945.6875 782.6015625 945.6875 822.400390625 928 c 0,4,5
 870.400390625 908.80078125 870.400390625 908.80078125 905.599609375 873.599609375 c 128,-1,6
 940.80078125 838.400390625 940.80078125 838.400390625 960 790.400390625 c 0,7,8
 977.6875 750.6015625 977.6875 750.6015625 982.400390625 675.200195312 c 0,9,10
 985.599609375 624 985.599609375 624 985.599609375 480 c 128,-1,11
 985.599609375 336 985.599609375 336 982.400390625 284.799804688 c 0,12,13
 977.6875 209.3984375 977.6875 209.3984375 960 169.599609375 c 0,14,15
 936.959960938 117.759765625 936.959960938 117.759765625 905.599609375 86.400390625 c 0,16,17
 870.400390625 51.19921875 870.400390625 51.19921875 822.400390625 32 c 0,18,19
 782.6015625 14.3125 782.6015625 14.3125 707.200195312 9.599609375 c 0,20,21
 656 6.400390625 656 6.400390625 512 6.400390625 c 128,-1,22
 368 6.400390625 368 6.400390625 316.799804688 9.599609375 c 0,23,24
 241.3984375 14.3125 241.3984375 14.3125 201.599609375 32 c 0,25,26
 149.759765625 55.0400390625 149.759765625 55.0400390625 118.400390625 86.400390625 c 0,27,28
 83.19921875 121.599609375 83.19921875 121.599609375 64 169.599609375 c 0,29,30
 46.3125 209.3984375 46.3125 209.3984375 41.599609375 284.799804688 c 0,31,32
 38.400390625 336 38.400390625 336 38.400390625 480 c 128,-1,33
 38.400390625 624 38.400390625 624 41.599609375 675.200195312 c 0,34,35
 46.3125 750.6015625 46.3125 750.6015625 64 790.400390625 c 0,36,37
 87.0400390625 842.240234375 87.0400390625 842.240234375 118.400390625 873.599609375 c 0,38,39
 153.599609375 908.80078125 153.599609375 908.80078125 201.599609375 928 c 0,40,41
 241.3984375 945.6875 241.3984375 945.6875 316.799804688 950.400390625 c 0,42,0
 368 953.599609375 368 953.599609375 512 953.599609375 c 128,-1,1
470.400390625 870.400390625 m 2,43,44
 420 870.400390625 420 870.400390625 378.400390625 868.80078125 c 128,-1,45
 336.799804688 867.200195312 336.799804688 867.200195312 320 867.200195312 c 0,46,47
 260.483398438 863.232421875 260.483398438 863.232421875 230.400390625 851.200195312 c 0,48,49
 196.798828125 836.798828125 196.798828125 836.798828125 176 816 c 128,-1,50
 155.201171875 795.201171875 155.201171875 795.201171875 140.799804688 761.599609375 c 0,51,52
 128.58203125 724.943359375 128.58203125 724.943359375 124.799804688 672 c 0,53,54
 121.599609375 620.799804688 121.599609375 620.799804688 121.599609375 480 c 128,-1,55
 121.599609375 339.200195312 121.599609375 339.200195312 124.799804688 288 c 0,56,57
 128.767578125 228.483398438 128.767578125 228.483398438 140.799804688 198.400390625 c 0,58,59
 155.201171875 164.798828125 155.201171875 164.798828125 176 144 c 128,-1,60
 196.798828125 123.201171875 196.798828125 123.201171875 230.400390625 108.799804688 c 0,61,62
 267.056640625 96.58203125 267.056640625 96.58203125 320 92.7998046875 c 0,63,64
 371.200195312 89.599609375 371.200195312 89.599609375 512 89.599609375 c 128,-1,65
 652.799804688 89.599609375 652.799804688 89.599609375 704 92.7998046875 c 0,66,67
 763.516601562 96.767578125 763.516601562 96.767578125 793.599609375 108.799804688 c 0,68,69
 827.201171875 123.201171875 827.201171875 123.201171875 848 144 c 128,-1,70
 868.798828125 164.798828125 868.798828125 164.798828125 883.200195312 198.400390625 c 0,71,72
 895.41796875 235.056640625 895.41796875 235.056640625 899.200195312 288 c 0,73,74
 902.400390625 339.200195312 902.400390625 339.200195312 902.400390625 480 c 128,-1,75
 902.400390625 620.799804688 902.400390625 620.799804688 899.200195312 672 c 0,76,77
 895.232421875 731.516601562 895.232421875 731.516601562 883.200195312 761.599609375 c 0,78,79
 868.798828125 795.201171875 868.798828125 795.201171875 848 816 c 128,-1,80
 827.201171875 836.798828125 827.201171875 836.798828125 793.599609375 851.200195312 c 0,81,82
 756.943359375 863.41796875 756.943359375 863.41796875 704 867.200195312 c 0,83,84
 652.799804688 870.400390625 652.799804688 870.400390625 512 870.400390625 c 2,85,-1
 470.400390625 870.400390625 l 2,43,44
764.799804688 790.400390625 m 128,-1,87
 788.799804688 790.400390625 788.799804688 790.400390625 805.599609375 773.599609375 c 128,-1,88
 822.400390625 756.799804688 822.400390625 756.799804688 822.400390625 732.799804688 c 128,-1,89
 822.400390625 708.799804688 822.400390625 708.799804688 805.600585938 692 c 128,-1,90
 788.799804688 675.200195312 788.799804688 675.200195312 764.799804688 675.200195312 c 128,-1,91
 740.799804688 675.200195312 740.799804688 675.200195312 724 692 c 128,-1,92
 707.200195312 708.799804688 707.200195312 708.799804688 707.200195312 732.799804688 c 128,-1,93
 707.200195312 756.799804688 707.200195312 756.799804688 724 773.600585938 c 128,-1,86
 740.799804688 790.400390625 740.799804688 790.400390625 764.799804688 790.400390625 c 128,-1,87
512 723.200195312 m 128,-1,95
 612.80078125 723.200195312 612.80078125 723.200195312 684 652 c 128,-1,96
 755.200195312 580.80078125 755.200195312 580.80078125 755.200195312 480 c 128,-1,97
 755.200195312 379.19921875 755.200195312 379.19921875 684 308 c 128,-1,98
 612.80078125 236.799804688 612.80078125 236.799804688 512 236.799804688 c 128,-1,99
 411.19921875 236.799804688 411.19921875 236.799804688 340 308 c 128,-1,100
 268.799804688 379.19921875 268.799804688 379.19921875 268.799804688 480 c 128,-1,101
 268.799804688 580.80078125 268.799804688 580.80078125 340 652 c 128,-1,94
 411.19921875 723.200195312 411.19921875 723.200195312 512 723.200195312 c 128,-1,95
512 636.799804688 m 128,-1,103
 447.19921875 636.799804688 447.19921875 636.799804688 401.200195312 590.799804688 c 128,-1,104
 355.200195312 544.80078125 355.200195312 544.80078125 355.200195312 480 c 128,-1,105
 355.200195312 415.19921875 355.200195312 415.19921875 401.200195312 369.200195312 c 128,-1,106
 447.19921875 323.200195312 447.19921875 323.200195312 512 323.200195312 c 128,-1,107
 576.80078125 323.200195312 576.80078125 323.200195312 622.799804688 369.200195312 c 128,-1,108
 668.799804688 415.19921875 668.799804688 415.19921875 668.799804688 480 c 128,-1,109
 668.799804688 544.80078125 668.799804688 544.80078125 622.799804688 590.799804688 c 128,-1,102
 576.80078125 636.799804688 576.80078125 636.799804688 512 636.799804688 c 128,-1,103
EndSplineSet
EndChar
StartChar: uniE61E
Encoding: 58910 58910 32
Width: 1024
LayerCount: 2
Fore
SplineSet
326.454101562 623.854492188 m 128,-1,1
 326.454101562 700.720703125 326.454101562 700.720703125 380.796875 755.0625 c 128,-1,2
 435.138671875 809.405273438 435.138671875 809.405273438 512.00390625 809.405273438 c 128,-1,3
 588.87109375 809.405273438 588.87109375 809.405273438 643.212890625 755.063476562 c 128,-1,4
 697.5546875 700.720703125 697.5546875 700.720703125 697.5546875 623.854492188 c 128,-1,5
 697.5546875 546.98828125 697.5546875 546.98828125 643.212890625 492.646484375 c 128,-1,6
 588.87109375 438.3046875 588.87109375 438.3046875 512.00390625 438.3046875 c 128,-1,7
 435.138671875 438.3046875 435.138671875 438.3046875 380.795898438 492.646484375 c 128,-1,0
 326.454101562 546.98828125 326.454101562 546.98828125 326.454101562 623.854492188 c 128,-1,1
290.397460938 623.854492188 m 128,-1,9
 290.397460938 532.0703125 290.397460938 532.0703125 355.30859375 467.159179688 c 128,-1,10
 420.220703125 402.249023438 420.220703125 402.249023438 512.00390625 402.249023438 c 128,-1,11
 603.788085938 402.249023438 603.788085938 402.249023438 668.700195312 467.16015625 c 128,-1,12
 733.611328125 532.0703125 733.611328125 532.0703125 733.611328125 623.854492188 c 128,-1,13
 733.611328125 715.638671875 733.611328125 715.638671875 668.700195312 780.549804688 c 128,-1,14
 603.7890625 845.4609375 603.7890625 845.4609375 512.00390625 845.4609375 c 128,-1,15
 420.220703125 845.4609375 420.220703125 845.4609375 355.309570312 780.549804688 c 128,-1,8
 290.397460938 715.638671875 290.397460938 715.638671875 290.397460938 623.854492188 c 128,-1,9
169.995117188 585.268554688 m 0,16,17
 169.02734375 647.654296875 169.02734375 647.654296875 192.329101562 706.923828125 c 128,-1,18
 215.630859375 766.193359375 215.630859375 766.193359375 258.350585938 813.293945312 c 128,-1,19
 301.0703125 860.395507812 301.0703125 860.395507812 367.506835938 889.043945312 c 128,-1,20
 433.944335938 917.692382812 433.944335938 917.692382812 512.797851562 917.692382812 c 0,21,22
 589.541992188 917.692382812 589.541992188 917.692382812 655.20703125 887.838867188 c 128,-1,23
 720.872070312 857.984375 720.872070312 857.984375 763.25390625 809.879882812 c 128,-1,24
 805.635742188 761.775390625 805.635742188 761.775390625 829.587890625 703.056640625 c 128,-1,25
 853.540039062 644.337890625 853.540039062 644.337890625 854.016601562 584.836914062 c 0,26,27
 854.016601562 504.486328125 854.016601562 504.486328125 841.514648438 458.931640625 c 128,-1,28
 829.012695312 413.376953125 829.012695312 413.376953125 795.237304688 375.98828125 c 128,-1,29
 761.461914062 338.599609375 761.461914062 338.599609375 689.370117188 291.934570312 c 0,30,31
 660.575195312 273.295898438 660.575195312 273.295898438 638.397460938 248.631835938 c 128,-1,32
 616.220703125 223.966796875 616.220703125 223.966796875 600.383789062 191.794921875 c 128,-1,33
 584.546875 159.623046875 584.546875 159.623046875 577.151367188 140.6484375 c 128,-1,34
 569.755859375 121.673828125 569.755859375 121.673828125 558.307617188 87.201171875 c 0,35,36
 543.569335938 42.826171875 543.569335938 42.826171875 534.212890625 24.8212890625 c 128,-1,37
 524.857421875 6.8154296875 524.857421875 6.8154296875 512.516601562 7.158203125 c 0,38,39
 498.811523438 7.5400390625 498.811523438 7.5400390625 487.34375 27.4384765625 c 128,-1,40
 475.875 47.3369140625 475.875 47.3369140625 457.654296875 94.6875 c 0,41,42
 444.596679688 128.622070312 444.596679688 128.622070312 436.638671875 146.920898438 c 128,-1,43
 428.680664062 165.219726562 428.680664062 165.219726562 412.31640625 196.349609375 c 128,-1,44
 395.952148438 227.478515625 395.952148438 227.478515625 374.846679688 251.415039062 c 128,-1,45
 353.741210938 275.350585938 353.741210938 275.350585938 327.297851562 293.9453125 c 0,46,47
 276.200195312 329.875976562 276.200195312 329.875976562 249.75 353.497070312 c 128,-1,48
 223.299804688 377.119140625 223.299804688 377.119140625 203.55859375 410.413085938 c 128,-1,49
 183.81640625 443.70703125 183.81640625 443.70703125 177.3984375 482.733398438 c 128,-1,50
 170.98046875 521.759765625 170.98046875 521.759765625 169.995117188 585.268554688 c 0,16,17
512.797851562 953.749023438 m 0,51,52
 426.309570312 953.749023438 426.309570312 953.749023438 353.033203125 921.98828125 c 128,-1,53
 279.755859375 890.2265625 279.755859375 890.2265625 232.323242188 838.037109375 c 128,-1,54
 184.890625 785.84765625 184.890625 785.84765625 158.879882812 719.9296875 c 128,-1,55
 132.868164062 654.010742188 132.868164062 654.010742188 133.943359375 584.69921875 c 0,56,57
 135.00390625 516.36328125 135.00390625 516.36328125 142.614257812 472.763671875 c 128,-1,58
 150.223632812 429.1640625 150.223632812 429.1640625 171.958984375 392.494140625 c 128,-1,59
 193.6953125 355.82421875 193.6953125 355.82421875 222.990234375 329.220703125 c 128,-1,60
 252.284179688 302.618164062 252.284179688 302.618164062 306.591796875 264.430664062 c 0,61,62
 341.41796875 239.94140625 341.41796875 239.94140625 367.561523438 199.963867188 c 128,-1,63
 393.704101562 159.986328125 393.704101562 159.986328125 408.244140625 121.99609375 c 128,-1,64
 422.784179688 84.0068359375 422.784179688 84.0068359375 436.545898438 48.994140625 c 128,-1,65
 450.307617188 13.9814453125 450.307617188 13.9814453125 468.850585938 -7.4619140625 c 128,-1,66
 487.39453125 -28.9052734375 487.39453125 -28.9052734375 513.064453125 -28.9052734375 c 0,67,68
 542.118164062 -28.9052734375 542.118164062 -28.9052734375 561.471679688 0.5830078125 c 0,69,70
 572.693359375 17.681640625 572.693359375 17.681640625 586.063476562 55.900390625 c 128,-1,71
 599.432617188 94.1201171875 599.432617188 94.1201171875 610.88671875 128.204101562 c 128,-1,72
 622.33984375 162.2890625 622.33984375 162.2890625 648.01171875 200.560546875 c 128,-1,73
 673.68359375 238.833007812 673.68359375 238.833007812 708.92578125 261.64453125 c 0,74,75
 783.459960938 309.890625 783.459960938 309.890625 820.165039062 348.97265625 c 128,-1,76
 856.870117188 388.053710938 856.870117188 388.053710938 873.822265625 442.708984375 c 128,-1,77
 890.774414062 497.364257812 890.774414062 497.364257812 890.071289062 585.130859375 c 0,78,79
 889.54296875 651.166992188 889.54296875 651.166992188 863.032226562 716.234375 c 128,-1,80
 836.520507812 781.301757812 836.520507812 781.301757812 789.62890625 834.521484375 c 128,-1,81
 742.73828125 887.7421875 742.73828125 887.7421875 670.1640625 920.745117188 c 128,-1,82
 597.58984375 953.749023438 597.58984375 953.749023438 512.797851562 953.749023438 c 0,51,52
EndSplineSet
EndChar
StartChar: uniE61F
Encoding: 58911 58911 36
Width: 1024
LayerCount: 2
Fore
SplineSet
843.799804688 401.5 m 1,0,-1
 844.799804688 399 l 1,1,-1
 844.799804688 396 l 2,2,3
 845.800470715 395.500399538 845.800470715 395.500399538 844.299804688 393.5 c 2,4,-1
 842.799804688 391.5 l 1,5,-1
 841.299804688 390 l 1,6,-1
 840.299804688 389.5 l 1,7,-1
 838.799804688 389.5 l 1,8,-1
 837.799804688 389.5 l 1,9,-1
 835.799804688 389.5 l 1,10,-1
 834.299804688 390 l 1,11,-1
 833.299804688 391 l 1,12,-1
 831.799804688 392.5 l 1,13,-1
 772.799804688 463.5 l 1,14,-1
 772.799804688 186.5 l 2,15,16
 772.799804688 184.498538012 772.799804688 184.498538012 772.299804688 183.5 c 128,-1,17
 771.801266676 182.501461988 771.801266676 182.501461988 770.799804688 181.5 c 128,-1,18
 769.80564836 180.504385965 769.80564836 180.504385965 768.299804688 179.5 c 128,-1,19
 766.799804688 178.499511719 766.799804688 178.499511719 765.799804688 178.5 c 0,20,21
 763.800292969 178.5 763.800292969 178.5 762.299804688 179.5 c 128,-1,22
 760.798338412 180.501466276 760.798338412 180.501466276 759.799804688 181.5 c 128,-1,23
 758.799800381 182.501470588 758.799800381 182.501470588 758.299804688 183.5 c 128,-1,24
 757.800292969 184.500488281 757.800292969 184.500488281 757.799804688 186.5 c 2,25,-1
 757.799804688 481.5 l 1,26,-1
 511.799804688 778.5 l 1,27,-1
 265.799804688 481.5 l 1,28,-1
 265.799804688 186.5 l 2,29,30
 265.799804688 184.498538012 265.799804688 184.498538012 265.299804688 183.5 c 128,-1,31
 264.801266676 182.501461988 264.801266676 182.501461988 263.799804688 181.5 c 128,-1,32
 262.80564836 180.504385965 262.80564836 180.504385965 261.299804688 179.5 c 128,-1,33
 259.799804688 178.499511719 259.799804688 178.499511719 258.799804688 178.5 c 0,34,35
 256.800292969 178.5 256.800292969 178.5 255.299804688 179.5 c 128,-1,36
 253.798338412 180.501466276 253.798338412 180.501466276 252.799804688 181.5 c 128,-1,37
 251.799800381 182.501470588 251.799800381 182.501470588 251.299804688 183.5 c 128,-1,38
 250.800292969 184.500488281 250.800292969 184.500488281 250.799804688 186.5 c 2,39,-1
 250.799804688 463.5 l 1,40,-1
 191.799804688 392.5 l 2,41,42
 189.800292969 391 189.800292969 391 189.299804688 390 c 128,-1,43
 188.800736317 389.000399715 188.800736317 389.000399715 186.299804688 389.5 c 2,44,-1
 183.799804688 390 l 1,45,-1
 180.799804688 391.5 l 2,46,47
 179.80078125 391.000488281 179.80078125 391.000488281 179.299804688 393.5 c 2,48,-1
 178.799804688 396 l 1,49,-1
 178.799804688 399 l 2,50,51
 178.799804688 400.498533724 178.799804688 400.498533724 179.799804688 401.5 c 2,52,-1
 505.799804688 794.5 l 2,53,54
 506.800976934 796.500878649 506.800976934 796.500878649 508.299804688 797 c 128,-1,55
 509.799804688 797.499511719 509.799804688 797.499511719 511.799804688 797.5 c 128,-1,56
 513.798338412 797.5 513.798338412 797.5 515.299804688 797 c 128,-1,57
 516.800390854 796.500293083 516.800390854 796.500293083 517.799804688 794.5 c 2,58,-1
 843.799804688 401.5 l 1,0,-1
512 938 m 128,-1,60
 612.999511719 938 612.999511719 938 702.5 899.5 c 128,-1,61
 792.000488281 860.999511719 792.000488281 860.999511719 858.5 794.5 c 128,-1,62
 924.999511719 728.000488281 924.999511719 728.000488281 963.5 638.5 c 128,-1,63
 1002.00048828 548.999511719 1002.00048828 548.999511719 1002 448 c 128,-1,64
 1002 347.000488281 1002 347.000488281 963.5 257.5 c 128,-1,65
 924.999511719 167.999511719 924.999511719 167.999511719 858.5 101.5 c 128,-1,66
 792.000488281 35.0004882812 792.000488281 35.0004882812 702.5 -3.5 c 128,-1,67
 612.999511719 -42.0004882812 612.999511719 -42.0004882812 512 -42 c 128,-1,68
 411.000488281 -42 411.000488281 -42 321.5 -3.5 c 128,-1,69
 231.999511719 35.0004882812 231.999511719 35.0004882812 165.5 101.5 c 128,-1,70
 99.0004882812 167.999511719 99.0004882812 167.999511719 60.5 257.5 c 128,-1,71
 21.9995117188 347.000488281 21.9995117188 347.000488281 22 448 c 128,-1,72
 22 548.999511719 22 548.999511719 60.5 638.5 c 128,-1,73
 99.0004882812 728.000488281 99.0004882812 728.000488281 165.5 794.5 c 128,-1,74
 231.999511719 860.999511719 231.999511719 860.999511719 321.5 899.5 c 128,-1,59
 411.000488281 938.000488281 411.000488281 938.000488281 512 938 c 128,-1,60
512 -22 m 128,-1,76
 609.000488281 -22 609.000488281 -22 695 15 c 128,-1,77
 780.999511719 52.0004882812 780.999511719 52.0004882812 844.5 115.5 c 128,-1,78
 907.999511719 178.999511719 907.999511719 178.999511719 945 265 c 128,-1,79
 982.000488281 350.999511719 982.000488281 350.999511719 982 448 c 128,-1,80
 982 545.000488281 982 545.000488281 945 631 c 128,-1,81
 907.999511719 716.999511719 907.999511719 716.999511719 844.5 780.5 c 128,-1,82
 781.000488281 843.999511719 781.000488281 843.999511719 695 881 c 128,-1,83
 609.000488281 918.000488281 609.000488281 918.000488281 512 918 c 128,-1,84
 414.999511719 918 414.999511719 918 329 881 c 128,-1,85
 243.000488281 843.999511719 243.000488281 843.999511719 179.5 780.5 c 128,-1,86
 116.000488281 717.000488281 116.000488281 717.000488281 79 631 c 128,-1,87
 41.9995117188 545.000488281 41.9995117188 545.000488281 42 448 c 128,-1,88
 42 350.999511719 42 350.999511719 79 265 c 128,-1,89
 116.000488281 179.000488281 116.000488281 179.000488281 179.5 115.5 c 128,-1,90
 242.999511719 52.0004882812 242.999511719 52.0004882812 329 15 c 128,-1,75
 414.999511719 -22.0004882812 414.999511719 -22.0004882812 512 -22 c 128,-1,76
EndSplineSet
EndChar
StartChar: uniE620
Encoding: 58912 58912 34
Width: 1024
LayerCount: 2
Fore
SplineSet
898.68359375 32.8427734375 m 1,0,1
 910.875649041 81.6089180605 910.875649041 81.6089180605 911.185302734 195.569091797 c 128,-1,2
 911.494956428 309.529265533 911.494956428 309.529265533 902.424804688 377.583007812 c 0,3,4
 885.919471288 517.528586572 885.919471288 517.528586572 849.193359375 617.756835938 c 0,5,6
 804.356862469 740.129486961 804.356862469 740.129486961 751.650390625 802.783203125 c 0,7,8
 735.484716299 821.999575898 735.484716299 821.999575898 710.363941442 841.365908226 c 128,-1,9
 685.243166584 860.732240553 685.243166584 860.732240553 668.320628871 870.739560524 c 128,-1,10
 651.398091157 880.746880496 651.398091157 880.746880496 648.217773438 881.267578125 c 0,11,12
 526.505859375 901.201171875 526.505859375 901.201171875 525.069335938 901.024414062 c 0,13,14
 519.619541754 902.007277416 519.619541754 902.007277416 509.958984375 903.9921875 c 0,15,16
 475.550812264 911.055860868 475.550812264 911.055860868 456.42578125 905.911132812 c 0,17,18
 449.295854793 903.993651902 449.295854793 903.993651902 436.534179688 900.879882812 c 0,19,20
 384.532200125 888.191084157 384.532200125 888.191084157 346.84375 860.279296875 c 0,21,22
 222.402166266 768.121368508 222.402166266 768.121368508 134.682617188 594.875976562 c 0,23,24
 99.2443972386 524.885188396 99.2443972386 524.885188396 76.352179088 419.185177916 c 128,-1,25
 53.4599609375 313.485167437 53.4599609375 313.485167437 53.4599609375 251.686523438 c 0,26,27
 53.4599609375 177.18021445 53.4599609375 177.18021445 76.2548828125 31.8974609375 c 1,28,-1
 24.326171875 31.837890625 l 2,29,30
 18.1525878906 31.837890625 18.1525878906 31.837890625 15.6095581055 26.837890625 c 128,-1,31
 13.0665283203 21.837890625 13.0665283203 21.837890625 15.6111450195 16.837890625 c 128,-1,32
 18.1557617188 11.837890625 18.1557617188 11.837890625 24.337890625 11.837890625 c 2,33,-1
 976.063476562 12.931640625 l 2,34,35
 985.876463699 12.943359375 985.876463699 12.943359375 985.870605469 22.9375 c 128,-1,36
 985.864747239 32.931640625 985.864747239 32.931640625 976.051757812 32.931640625 c 2,37,-1
 898.68359375 32.8427734375 l 1,0,1
891.158203125 198.864257812 m 0,38,39
 891.158203125 74.9037728173 891.158203125 74.9037728173 877.680664062 32.8193359375 c 1,40,-1
 779.13671875 32.7060546875 l 1,41,42
 805.297359282 254.623381492 805.297359282 254.623381492 790.642578125 371.271484375 c 0,43,44
 778.536406329 467.628516929 778.536406329 467.628516929 761.968442243 536.834192171 c 128,-1,45
 745.400478157 606.039867413 745.400478157 606.039867413 714.95703125 681.909179688 c 0,46,47
 691.686433127 739.903411936 691.686433127 739.903411936 656.360096238 791.036128795 c 128,-1,48
 621.033759349 842.168845654 621.033759349 842.168845654 585.220703125 871.31640625 c 1,49,-1
 643.290039062 861.805664062 l 1,50,51
 704.331077456 827.969868369 704.331077456 827.969868369 736.33984375 789.919921875 c 0,52,53
 786.776701987 729.965360494 786.776701987 729.965360494 830.408203125 610.883789062 c 0,54,55
 866.330967902 512.846331686 866.330967902 512.846331686 882.563476562 375.219726562 c 0,56,57
 891.158203125 302.349482655 891.158203125 302.349482655 891.158203125 198.864257812 c 0,38,39
96.5107421875 31.9208984375 m 1,58,59
 89.7220848436 75.1022021665 89.7220848436 75.1022021665 84.2431640625 118.952148438 c 1,60,-1
 767.959960938 122.059570312 l 1,61,62
 764.02023982 74.9517620963 764.02023982 74.9517620963 758.990234375 32.6826171875 c 1,63,-1
 96.5107421875 31.9208984375 l 1,58,59
461.626953125 886.595703125 m 0,64,65
 476.174793874 890.508228904 476.174793874 890.508228904 505.920898438 884.400390625 c 0,66,67
 518.05189495 881.909553058 518.05189495 881.909553058 525.1484375 880.702148438 c 0,68,69
 553.51835797 875.878487706 553.51835797 875.878487706 591.492300664 838.553194787 c 128,-1,70
 629.466243357 801.227901867 629.466243357 801.227901867 663.134765625 742.70703125 c 1,71,-1
 217.716796875 696.577148438 l 1,72,73
 279.339982445 785.403405478 279.339982445 785.403405478 358.729492188 844.197265625 c 0,74,75
 375.350124566 856.506459532 375.350124566 856.506459532 390.183659618 864.010418341 c 128,-1,76
 405.01719467 871.51437715 405.01719467 871.51437715 413.844660694 874.210610305 c 128,-1,77
 422.672126718 876.90684346 422.672126718 876.90684346 441.28515625 881.448242188 c 0,78,79
 454.288871115 884.621562526 454.288871115 884.621562526 461.626953125 886.595703125 c 0,64,65
203.2578125 674.971679688 m 1,80,-1
 673.598632812 723.682617188 l 1,81,82
 689.74164647 692.939810442 689.74164647 692.939810442 706.243164062 649.159179688 c 1,83,-1
 166.077148438 611.797851562 l 1,84,85
 184.260262204 645.552955377 184.260262204 645.552955377 203.2578125 674.971679688 c 1,80,-1
123.553710938 514.787109375 m 1,86,87
 137.72935459 556.982351886 137.72935459 556.982351886 155.151367188 590.993164062 c 1,88,-1
 713.412109375 629.606445312 l 1,89,90
 726.85726365 591.84635957 726.85726365 591.84635957 736.764648438 554.89453125 c 1,91,-1
 123.553710938 514.787109375 l 1,86,87
116.979492188 494.313476562 m 1,92,-1
 741.825195312 535.182617188 l 1,93,94
 750.521266458 499.748225537 750.521266458 499.748225537 757.541992188 459.279296875 c 1,95,-1
 97.705078125 421.841796875 l 1,96,97
 106.501719861 460.187122793 106.501719861 460.187122793 116.979492188 494.313476562 c 1,92,-1
760.844726562 439.43359375 m 1,98,99
 777.695843028 333.894509633 777.695843028 333.894509633 774.719726562 236.204101562 c 1,100,-1
 74.1083984375 226.7578125 l 1,101,102
 73.0168995703 249.863169731 73.0168995703 249.863169731 73.7607421875 265.75 c 0,103,104
 76.3812399744 321.687992356 76.3812399744 321.687992356 93.23828125 401.555664062 c 1,105,-1
 760.844726562 439.43359375 l 1,98,99
75.30078125 206.771484375 m 1,106,-1
 773.993164062 216.192382812 l 1,107,108
 772.517584185 181.058317119 772.517584185 181.058317119 769.556640625 142.067382812 c 1,109,-1
 81.83203125 138.94140625 l 1,110,111
 77.4040279379 177.044976247 77.4040279379 177.044976247 75.30078125 206.771484375 c 1,106,-1
EndSplineSet
EndChar
StartChar: uniE621
Encoding: 58913 58913 35
Width: 1024
LayerCount: 2
Fore
SplineSet
59.505859375 -7.88671875 m 2,0,-1
 407.193359375 -10.880859375 l 2,1,2
 702.70223231 -10.7139573726 702.70223231 -10.7139573726 703.381835938 -10.0361328125 c 0,3,4
 705.083264662 -8.33470408803 705.083264662 -8.33470408803 709.84289614 86.8377811949 c 128,-1,5
 714.602527618 182.010266478 714.602527618 182.010266478 713.0703125 183.693359375 c 0,6,7
 710.664506068 186.336337112 710.664506068 186.336337112 709.222462924 179.881602666 c 128,-1,8
 707.81567885 173.584691465 707.81567885 173.584691465 706.106445312 153.288085938 c 0,9,10
 703.681180635 124.499394673 703.681180635 124.499394673 702.801757812 119.28125 c 2,11,-1
 701.919921875 114.043945312 l 1,12,-1
 687.2421875 130.891601562 l 2,13,14
 668.4453125 152.468603367 668.4453125 152.468603367 668.4453125 145.962890625 c 0,15,16
 668.4453125 144.187119313 668.4453125 144.187119313 684.70703125 121.540039062 c 2,17,-1
 700.969726562 98.89453125 l 1,18,-1
 700.662109375 89.28515625 l 2,19,20
 700.309811199 78.2957969451 700.309811199 78.2957969451 699.101170745 76.0934593136 c 128,-1,21
 697.89253029 73.8911216821 697.89253029 73.8911216821 692.712890625 74.80078125 c 0,22,23
 675.451047008 77.8327587648 675.451047008 77.8327587648 656.434570312 87.3212890625 c 0,24,25
 624.659365765 103.17446771 624.659365765 103.17446771 612.01171875 133.986816406 c 128,-1,26
 599.364071735 164.799165103 599.364071735 164.799165103 612.916992188 193.337890625 c 0,27,28
 618.393959559 204.870590802 618.393959559 204.870590802 627.306640625 215.377929688 c 2,29,-1
 636.21875 225.8828125 l 1,30,-1
 635.297851562 234.803710938 l 2,31,32
 632.630354648 260.654700388 632.630354648 260.654700388 648.588089078 281.906595864 c 128,-1,33
 664.545823507 303.158491339 664.545823507 303.158491339 691.993164062 310.307617188 c 0,34,35
 714.252909123 316.106510185 714.252909123 316.106510185 739.232421875 310.935546875 c 0,36,37
 763.404637096 305.931620735 763.404637096 305.931620735 780.606496553 287.574896491 c 128,-1,38
 797.808356011 269.218172247 797.808356011 269.218172247 799.418945312 246.708007812 c 0,39,40
 800.221530203 235.491351276 800.221530203 235.491351276 798.249023438 224.45703125 c 2,41,-1
 796.27734375 213.422851562 l 1,42,-1
 801.236328125 207.161132812 l 2,43,44
 814.174114391 190.82848538 814.174114391 190.82848538 817.544921875 169.961914062 c 0,45,46
 820.599840954 151.061112875 820.599840954 151.061112875 813.535911531 131.480776254 c 128,-1,47
 806.471982108 111.900439632 806.471982108 111.900439632 792.298828125 99.982421875 c 0,48,49
 768.514090104 79.9815889955 768.514090104 79.9815889955 736.6953125 75.2392578125 c 2,50,-1
 724.0703125 73.357421875 l 1,51,-1
 725.126953125 42.0849609375 l 2,52,53
 726.18401377 10.7959658404 726.18401377 10.7959658404 727.1484375 0.0029296875 c 2,54,-1
 728.114257812 -10.806640625 l 1,55,-1
 808.655273438 -10.806640625 l 1,56,-1
 889.1953125 -10.806640625 l 1,57,-1
 890.08984375 -0.7978515625 l 2,58,59
 893.286082474 34.9569522659 893.286082474 34.9569522659 897.465820312 126.120117188 c 0,60,61
 899.082835636 161.379935947 899.082835636 161.379935947 899.748046875 168.94140625 c 0,62,63
 898.682988584 176.919823914 898.682988584 176.919823914 895.810546875 177.147460938 c 0,64,65
 894.442492334 175.766985668 894.442492334 175.766985668 890.876953125 138.53125 c 128,-1,66
 887.313527128 101.297265655 887.313527128 101.297265655 886.379882812 101.331054688 c 128,-1,67
 885.446898341 101.364755648 885.446898341 101.364755648 879.150390625 110.154296875 c 0,68,69
 868.162286533 125.491388095 868.162286533 125.491388095 865.377929688 122.70703125 c 0,70,71
 863.803422302 121.131034264 863.803422302 121.131034264 875.01171875 101.56640625 c 2,72,-1
 886.220703125 82.001953125 l 1,73,-1
 884.866210938 65.9931640625 l 2,74,75
 883.513490497 49.985972188 883.513490497 49.985972188 882.725585938 49.1962890625 c 128,-1,76
 881.929821593 48.4005247178 881.929821593 48.4005247178 878.000562603 51.7911616306 c 128,-1,77
 874.071303613 55.1817985433 874.071303613 55.1817985433 869.48869521 60.4744633694 c 128,-1,78
 864.906086806 65.7671281955 864.906086806 65.7671281955 862.41015625 69.9208984375 c 0,79,80
 842.368059062 103.276674471 842.368059062 103.276674471 842.432617188 175.765625 c 0,81,82
 842.474484082 222.448343866 842.474484082 222.448343866 856.392578125 296.717773438 c 0,83,84
 860.45310894 318.388147868 860.45310894 318.388147868 864.5625 355.97265625 c 0,85,86
 875.540592451 456.361470657 875.540592451 456.361470657 890.845703125 482.916015625 c 0,87,88
 896.489182011 492.710028381 896.489182011 492.710028381 903.208984375 487.1328125 c 0,89,90
 917.327758969 475.41578185 917.327758969 475.41578185 924.000976562 415.561523438 c 0,91,92
 927.786557051 381.616452439 927.786557051 381.616452439 935.921875 351.146484375 c 0,93,94
 943.757105284 321.805116424 943.757105284 321.805116424 943.864257812 280.198242188 c 0,95,96
 943.902119328 266.118643596 943.902119328 266.118643596 947.376953125 259.37890625 c 128,-1,97
 950.850238543 252.643428858 950.850238543 252.643428858 953.133789062 243.829101562 c 0,98,99
 955.550143616 234.495483473 955.550143616 234.495483473 956.307861328 195.060058594 c 128,-1,100
 957.06557904 155.624633714 957.06557904 155.624633714 955.1796875 137.33203125 c 0,101,102
 947.598113774 63.8044953126 947.598113774 63.8044953126 915.645507812 48.3369140625 c 2,103,-1
 908.217773438 44.7412109375 l 1,104,-1
 909.235351562 29.37890625 l 2,105,106
 910.252842456 14.0135507452 910.252842456 14.0135507452 910.26171875 1.6044921875 c 2,107,-1
 910.267578125 -10.806640625 l 1,108,-1
 955.108398438 -10.806640625 l 1,109,-1
 999.950195312 -10.806640625 l 1,110,-1
 999.950195312 -19.615234375 l 1,111,-1
 999.950195312 -28.423828125 l 1,112,-1
 527.545898438 -28.423828125 l 1,113,-1
 55.138671875 -28.423828125 l 2,114,115
 25.5592019046 -27.4713872229 25.5592019046 -27.4713872229 25.0296982222 -21.0834478299 c 0,116,117
 24.3695888596 -13.1198797915 24.3695888596 -13.1198797915 49.5017687409 -8.69672958122 c 0,118,119
 55.181402273 -7.69713971793 55.181402273 -7.69713971793 59.505859375 -7.88671875 c 2,0,-1
922.713867188 141.162109375 m 0,120,121
 932.003405945 152.543945312 932.003405945 152.543945312 924.598632812 152.543945312 c 0,122,123
 921.671167643 152.543945312 921.671167643 152.543945312 916.771130696 145.926042316 c 128,-1,124
 911.87109375 139.30813932 911.87109375 139.30813932 911.87109375 135.354492188 c 0,125,126
 911.87109375 127.877627529 911.87109375 127.877627529 922.713867188 141.162109375 c 0,120,121
739.565429688 155.711914062 m 0,127,128
 753.512900193 170.16015625 753.512900193 170.16015625 746.640625 170.16015625 c 0,129,130
 744.949184351 170.16015625 744.949184351 170.16015625 735.525390625 161.995117188 c 128,-1,131
 726.098632812 153.828634316 726.098632812 153.828634316 726.098632812 149.182617188 c 128,-1,132
 726.098632812 144.537109375 726.098632812 144.537109375 727.4375 144.537109375 c 128,-1,133
 728.777677339 144.537109375 728.777677339 144.537109375 739.565429688 155.711914062 c 0,127,128
765.846679688 231.469726562 m 0,134,135
 767.41036648 245.084553179 767.41036648 245.084553179 755.564453125 257.283203125 c 0,136,137
 740.66263825 272.627421537 740.66263825 272.627421537 734.78515625 267.75 c 0,138,139
 729.124272771 263.050816354 729.124272771 263.050816354 739.920898438 257.975585938 c 0,140,141
 746.184555177 255.031257115 746.184555177 255.031257115 751.355949464 248.075327562 c 128,-1,142
 756.52734375 241.119398009 756.52734375 241.119398009 756.52734375 235.638671875 c 0,143,144
 756.52734375 225.755921221 756.52734375 225.755921221 761.935546875 226.528320312 c 0,145,146
 765.335344578 227.013007988 765.335344578 227.013007988 765.846679688 231.469726562 c 0,134,135
921.611328125 300.126953125 m 128,-1,148
 923.36846849 303.410273614 923.36846849 303.410273614 922.694580078 316.385620117 c 128,-1,149
 922.020691666 329.36096662 922.020691666 329.36096662 919.856445312 333.912109375 c 0,150,151
 918.215095139 337.365463266 918.215095139 337.365463266 915.117797852 338.166381836 c 128,-1,152
 912.020500564 338.967300406 912.020500564 338.967300406 910.962890625 336.211914062 c 0,153,154
 910.154551829 334.104903486 910.154551829 334.104903486 912.572265625 324.828125 c 128,-1,155
 914.988669739 315.551440171 914.988669739 315.551440171 914.001953125 306.11328125 c 128,-1,156
 913.01586968 296.677734375 913.01586968 296.677734375 916.390625 296.677734375 c 128,-1,147
 919.766892571 296.677734375 919.766892571 296.677734375 921.611328125 300.126953125 c 128,-1,148
122.33984375 25.2265625 m 1,157,-1
 122.33984375 51.650390625 l 1,158,-1
 331.333984375 51.650390625 l 1,159,-1
 540.327148438 51.650390625 l 1,160,-1
 540.327148438 25.2265625 l 1,161,-1
 540.327148438 -1.1982421875 l 1,162,-1
 331.333984375 -1.1982421875 l 1,163,-1
 122.33984375 -1.1982421875 l 1,164,-1
 122.33984375 25.2265625 l 1,157,-1
195.208007812 25.2265625 m 1,165,-1
 195.208007812 36.4365234375 l 1,166,-1
 181.995117188 36.90234375 l 1,167,-1
 168.783203125 37.3671875 l 1,168,-1
 168.783203125 25.2265625 l 1,169,-1
 168.783203125 13.0859375 l 1,170,-1
 181.995117188 13.55078125 l 1,171,-1
 195.208007812 14.0166015625 l 1,172,-1
 195.208007812 25.2265625 l 1,165,-1
492.282226562 25.2265625 m 1,173,-1
 492.282226562 37.2373046875 l 1,174,-1
 479.470703125 37.2373046875 l 1,175,-1
 466.659179688 37.2373046875 l 1,176,-1
 466.659179688 25.2265625 l 1,177,-1
 466.659179688 13.21484375 l 1,178,-1
 479.470703125 13.21484375 l 1,179,-1
 492.282226562 13.21484375 l 1,180,-1
 492.282226562 25.2265625 l 1,173,-1
122.33984375 66.064453125 m 2,181,182
 122.33984375 69.2671386987 122.33984375 69.2671386987 123.140649392 70.0676513806 c 128,-1,183
 123.941455033 70.8681640625 123.941455033 70.8681640625 127.14453125 70.8681640625 c 2,184,-1
 131.94921875 70.8681640625 l 1,185,-1
 131.94921875 150.942382812 l 1,186,-1
 131.94921875 231.016601562 l 1,187,-1
 117.708984375 231.016601562 l 2,188,189
 107.190923122 231.016601562 107.190923122 231.016601562 105.192882889 231.564538484 c 128,-1,190
 103.194842657 232.112475406 103.194842657 232.112475406 102.416992188 235.209960938 c 0,191,192
 101.365837995 239.40214852 101.365837995 239.40214852 102.171875 240.209960938 c 128,-1,193
 102.979006829 241.017092766 102.979006829 241.017092766 165.909179688 246.393554688 c 128,-1,194
 228.833213569 251.76951467 228.833213569 251.76951467 330.16796875 251.802734375 c 128,-1,195
 431.516841169 251.835246897 431.516841169 251.835246897 480.708007812 247.801757812 c 0,196,197
 559.34948212 241.355773149 559.34948212 241.355773149 560.482421875 240.221679688 c 0,198,199
 561.303090304 239.402787597 561.303090304 239.402787597 560.25 235.209960938 c 0,200,201
 559.477284399 232.130085013 559.477284399 232.130085013 557.553394331 231.573343288 c 128,-1,202
 555.629504264 231.016601562 555.629504264 231.016601562 545.758789062 231.016601562 c 2,203,-1
 532.319335938 231.016601562 l 1,204,-1
 531.97265625 161.352539062 l 2,205,206
 531.674377252 101.337274961 531.674377252 101.337274961 531.573242188 81.6787109375 c 0,207,208
 531.532236386 74.3723558676 531.532236386 74.3723558676 532.119980626 72.9527017848 c 128,-1,209
 532.707724866 71.5330477019 532.707724866 71.5330477019 535.923828125 71.1630859375 c 0,210,211
 540.328125 70.6558396731 540.328125 70.6558396731 540.328125 65.9580078125 c 2,212,-1
 540.328125 61.259765625 l 1,213,-1
 331.333984375 61.259765625 l 1,214,-1
 122.33984375 61.259765625 l 1,215,-1
 122.33984375 66.064453125 l 2,181,182
152.435546875 84.0810546875 m 2,216,-1
 152.903320312 96.4921875 l 1,217,-1
 148.03125 96.4921875 l 1,218,-1
 143.159179688 96.4921875 l 1,219,-1
 143.159179688 84.748046875 l 2,220,221
 143.159179688 75.1739755014 143.159179688 75.1739755014 144.07968345 72.9227991044 c 128,-1,222
 145.000187212 70.6716227074 145.000187212 70.6716227074 148.698242188 71.201171875 c 0,223,224
 151.967905507 71.6699838951 151.967905507 71.6699838951 152.435546875 84.0810546875 c 2,216,-1
171.653320312 84.0810546875 m 2,225,-1
 172.12109375 96.4921875 l 1,226,-1
 166.448242188 96.4921875 l 1,227,-1
 160.775390625 96.4921875 l 1,228,-1
 160.775390625 84.748046875 l 2,229,230
 160.775390625 73.0031073824 160.775390625 73.0031073824 161.916992188 71.86328125 c 128,-1,231
 163.058907809 70.7213656287 163.058907809 70.7213656287 167.122070312 71.1953125 c 0,232,233
 170.056981894 71.5380972816 170.056981894 71.5380972816 170.686333447 73.3276686251 c 128,-1,234
 171.315685 75.1172399686 171.315685 75.1172399686 171.653320312 84.0810546875 c 2,225,-1
189.602539062 83.6806640625 m 1,235,-1
 189.602539062 96.4931640625 l 1,236,-1
 184.797851562 96.4931640625 l 1,237,-1
 179.993164062 96.4931640625 l 1,238,-1
 179.993164062 83.6806640625 l 1,239,-1
 179.993164062 70.869140625 l 1,240,-1
 184.797851562 70.869140625 l 1,241,-1
 189.602539062 70.869140625 l 1,242,-1
 189.602539062 83.6806640625 l 1,235,-1
207.21875 83.6806640625 m 128,-1,244
 207.21875 93.1299748924 207.21875 93.1299748924 206.693306846 94.8115694775 c 128,-1,245
 206.167863692 96.4931640625 206.167863692 96.4931640625 203.21484375 96.4931640625 c 128,-1,246
 200.262316097 96.4931640625 200.262316097 96.4931640625 199.736626799 94.8111852773 c 128,-1,247
 199.2109375 93.129206492 199.2109375 93.129206492 199.2109375 83.6806640625 c 128,-1,248
 199.2109375 74.2323576922 199.2109375 74.2323576922 199.736589894 72.5507491586 c 128,-1,249
 200.262242288 70.869140625 200.262242288 70.869140625 203.21484375 70.869140625 c 128,-1,250
 206.16786244 70.869140625 206.16786244 70.869140625 206.69330622 72.5506111482 c 128,-1,243
 207.21875 74.2320816714 207.21875 74.2320816714 207.21875 83.6806640625 c 128,-1,244
228.038085938 83.6806640625 m 2,251,-1
 228.038085938 96.4931640625 l 1,252,-1
 223.233398438 96.4931640625 l 1,253,-1
 218.428710938 96.4931640625 l 1,254,-1
 218.428710938 84.748046875 l 2,255,256
 218.428710938 73.0031081292 218.428710938 73.0031081292 219.497070312 71.9365234375 c 128,-1,257
 220.564453125 70.869140625 220.564453125 70.869140625 224.30078125 70.869140625 c 0,258,259
 227.003530579 70.869140625 227.003530579 70.869140625 227.520808258 72.642160764 c 128,-1,260
 228.038085938 74.415180903 228.038085938 74.415180903 228.038085938 83.6806640625 c 2,251,-1
246.283203125 73.40234375 m 0,261,262
 247.255859375 75.9351548244 247.255859375 75.9351548244 247.255859375 86.2138671875 c 2,263,-1
 247.255859375 96.4931640625 l 1,264,-1
 241.650390625 96.4931640625 l 1,265,-1
 236.044921875 96.4931640625 l 1,266,-1
 236.044921875 84.748046875 l 2,267,268
 236.044921875 73.0031081292 236.044921875 73.0031081292 237.11328125 71.9365234375 c 0,269,270
 238.641827902 70.4071801252 238.641827902 70.4071801252 242.100341797 70.9599609375 c 128,-1,271
 245.558855692 71.5127417498 245.558855692 71.5127417498 246.283203125 73.40234375 c 0,261,262
269.676757812 84.6494140625 m 1,272,-1
 269.676757812 96.4931640625 l 1,273,-1
 262.469726562 96.4931640625 l 1,274,-1
 255.262695312 96.4931640625 l 1,275,-1
 255.262695312 84.748046875 l 2,276,277
 255.262695312 73.0048828125 255.262695312 73.0048828125 255.98046875 72.287109375 c 128,-1,278
 256.698689738 71.568888387 256.698689738 71.568888387 263.1875 72.1884765625 c 2,279,-1
 269.676757812 72.806640625 l 1,280,-1
 269.676757812 84.6494140625 l 1,272,-1
290.163085938 84.0810546875 m 2,281,-1
 290.630859375 96.4931640625 l 1,282,-1
 285.758789062 96.4931640625 l 1,283,-1
 280.88671875 96.4931640625 l 1,284,-1
 280.88671875 84.7490234375 l 2,285,286
 280.88671875 75.174892983 280.88671875 75.174892983 281.807355991 72.9237477605 c 128,-1,287
 282.727993231 70.6726025381 282.727993231 70.6726025381 286.426757812 71.2021484375 c 0,288,289
 289.6953994 71.6698778254 289.6953994 71.6698778254 290.163085938 84.0810546875 c 2,281,-1
307.779296875 84.0810546875 m 2,290,-1
 308.247070312 96.4931640625 l 1,291,-1
 303.375 96.4931640625 l 1,292,-1
 298.502929688 96.4931640625 l 1,293,-1
 298.502929688 84.7490234375 l 2,294,295
 298.502929688 73.0048828125 298.502929688 73.0048828125 299.350585938 72.1572265625 c 128,-1,296
 300.196936082 71.3108764184 300.196936082 71.3108764184 303.75390625 71.490234375 c 128,-1,297
 307.311337055 71.6696270815 307.311337055 71.6696270815 307.779296875 84.0810546875 c 2,290,-1
326.999023438 84.1875 m 2,298,-1
 327.46875 96.7060546875 l 1,299,-1
 322.194335938 96.19921875 l 1,300,-1
 316.919921875 95.69140625 l 1,301,-1
 316.4375 85.4501953125 l 2,302,303
 315.97681508 75.6798664925 315.97681508 75.6798664925 316.969692732 73.1818478102 c 128,-1,304
 317.962570384 70.6838291279 317.962570384 70.6838291279 322.116210938 71.162109375 c 0,305,306
 325.378612905 71.5371317834 325.378612905 71.5371317834 326.015244556 73.235150903 c 128,-1,307
 326.651876207 74.9331700226 326.651876207 74.9331700226 326.999023438 84.1875 c 2,298,-1
346.21484375 84.0810546875 m 2,308,-1
 346.682617188 96.4931640625 l 1,309,-1
 341.009765625 96.4931640625 l 1,310,-1
 335.337890625 96.4931640625 l 1,311,-1
 335.337890625 84.7490234375 l 2,312,313
 335.337890625 73.00390625 335.337890625 73.00390625 336.478515625 71.86328125 c 128,-1,314
 337.619556696 70.7222401794 337.619556696 70.7222401794 341.68359375 71.1962890625 c 0,315,316
 344.618502129 71.5383410248 344.618502129 71.5383410248 345.247855099 73.3277856088 c 128,-1,317
 345.87720807 75.1172301928 345.87720807 75.1172301928 346.21484375 84.0810546875 c 2,308,-1
364.1640625 83.681640625 m 2,318,-1
 364.1640625 96.4931640625 l 1,319,-1
 359.359375 96.4931640625 l 1,320,-1
 354.5546875 96.4931640625 l 1,321,-1
 354.5546875 84.7490234375 l 2,322,323
 354.5546875 73.005859375 354.5546875 73.005859375 355.623046875 71.9375 c 128,-1,324
 356.689631567 70.869140625 356.689631567 70.869140625 360.426757812 70.869140625 c 0,325,326
 363.12944083 70.869140625 363.12944083 70.869140625 363.646751665 72.6425354127 c 128,-1,327
 364.1640625 74.4159302004 364.1640625 74.4159302004 364.1640625 83.681640625 c 2,318,-1
382.41015625 73.40234375 m 0,328,329
 383.381835938 75.93723756 383.381835938 75.93723756 383.381835938 86.21484375 c 2,330,-1
 383.381835938 96.4931640625 l 1,331,-1
 378.577148438 96.4931640625 l 1,332,-1
 373.772460938 96.4931640625 l 1,333,-1
 373.772460938 84.7490234375 l 2,334,335
 373.772460938 73.005859375 373.772460938 73.005859375 374.840820312 71.9375 c 0,336,337
 376.325475308 70.4522417894 376.325475308 70.4522417894 379.00012207 70.9699707031 c 128,-1,338
 381.674768832 71.4876996169 381.674768832 71.4876996169 382.41015625 73.40234375 c 0,328,329
426.2890625 84.08203125 m 2,339,-1
 426.756835938 96.4931640625 l 1,340,-1
 421.884765625 96.4931640625 l 1,341,-1
 417.012695312 96.4931640625 l 1,342,-1
 417.012695312 84.7490234375 l 2,343,344
 417.012695312 75.174892983 417.012695312 75.174892983 417.933332553 72.9237477605 c 128,-1,345
 418.853969794 70.6726025381 418.853969794 70.6726025381 422.552734375 71.2021484375 c 0,346,347
 425.821380363 71.6698784551 425.821380363 71.6698784551 426.2890625 84.08203125 c 2,339,-1
443.905273438 84.08203125 m 2,348,-1
 444.373046875 96.4931640625 l 1,349,-1
 439.500976562 96.4931640625 l 1,350,-1
 434.62890625 96.4931640625 l 1,351,-1
 434.62890625 84.7490234375 l 2,352,353
 434.62890625 75.174892983 434.62890625 75.174892983 435.549543491 72.9237477605 c 128,-1,354
 436.470180731 70.6726025381 436.470180731 70.6726025381 440.168945312 71.2021484375 c 0,355,356
 443.4375913 71.6698784551 443.4375913 71.6698784551 443.905273438 84.08203125 c 2,348,-1
464.724609375 84.2099609375 m 2,357,-1
 465.192382812 96.4931640625 l 1,358,-1
 460.3203125 96.4931640625 l 1,359,-1
 455.448242188 96.4931640625 l 1,360,-1
 455.448242188 84.599609375 l 2,361,362
 455.448242188 72.705896589 455.448242188 72.705896589 458.250976562 71.9833984375 c 0,363,364
 462.224075711 70.9588148967 462.224075711 70.9588148967 463.299280954 72.9899368068 c 128,-1,365
 464.374486198 75.021058717 464.374486198 75.021058717 464.724609375 84.2099609375 c 2,357,-1
483.942382812 84.08203125 m 2,366,-1
 484.41015625 96.4931640625 l 1,367,-1
 478.737304688 96.4931640625 l 1,368,-1
 473.064453125 96.4931640625 l 1,369,-1
 473.064453125 84.7490234375 l 2,370,371
 473.064453125 73.0048828125 473.064453125 73.0048828125 474.206054688 71.86328125 c 128,-1,372
 475.348687162 70.7224258084 475.348687162 70.7224258084 479.411132812 71.1962890625 c 0,373,374
 482.346044385 71.538341397 482.346044385 71.538341397 482.975395942 73.3279127516 c 128,-1,375
 483.604747499 75.1174841063 483.604747499 75.1174841063 483.942382812 84.08203125 c 2,366,-1
501.891601562 83.681640625 m 1,376,-1
 501.891601562 96.4931640625 l 1,377,-1
 497.086914062 96.4931640625 l 1,378,-1
 492.282226562 96.4931640625 l 1,379,-1
 492.282226562 83.681640625 l 1,380,-1
 492.282226562 70.8701171875 l 1,381,-1
 497.086914062 70.8701171875 l 1,382,-1
 501.891601562 70.8701171875 l 1,383,-1
 501.891601562 83.681640625 l 1,376,-1
520.818359375 78.8408203125 m 128,-1,385
 521.329579362 86.0103256213 521.329579362 86.0103256213 520.345703125 91.2529296875 c 128,-1,386
 519.36315918 96.4931640625 519.36315918 96.4931640625 514.630859375 96.4931640625 c 2,387,-1
 509.899414062 96.4931640625 l 1,388,-1
 509.899414062 84.7490234375 l 2,389,390
 509.899414062 73.0031089011 509.899414062 73.0031089011 511.040039062 71.8642578125 c 128,-1,391
 512.181954684 70.7223421912 512.181954684 70.7223421912 516.245117188 71.1962890625 c 128,-1,384
 520.30888956 71.671318585 520.30888956 71.671318585 520.818359375 78.8408203125 c 128,-1,385
408.67578125 84.08203125 m 1,392,-1
 408.205078125 95.6923828125 l 1,393,-1
 401.3984375 96.1845703125 l 1,394,-1
 394.592773438 96.677734375 l 1,395,-1
 394.592773438 84.57421875 l 1,396,-1
 394.592773438 72.4716796875 l 1,397,-1
 401.869140625 72.4716796875 l 1,398,-1
 409.146484375 72.4716796875 l 1,399,-1
 408.67578125 84.08203125 l 1,392,-1
207.584960938 109.970703125 m 2,400,401
 208.323310056 113.836386729 208.323310056 113.836386729 208.666015625 163.219726562 c 2,402,-1
 209.0078125 212.600585938 l 1,403,-1
 200.778320312 221.809570312 l 1,404,-1
 192.548828125 231.017578125 l 1,405,-1
 176.9453125 231.017578125 l 1,406,-1
 161.341796875 231.017578125 l 1,407,-1
 152.25 222.141601562 l 1,408,-1
 143.159179688 213.266601562 l 1,409,-1
 143.159179688 159.684570312 l 1,410,-1
 143.159179688 106.102539062 l 1,411,-1
 175.001953125 106.102539062 l 1,412,-1
 206.845703125 106.102539062 l 1,413,-1
 207.584960938 109.970703125 l 2,400,401
269.676757812 160.1015625 m 1,414,-1
 269.676757812 214.1015625 l 1,415,-1
 261.323242188 222.559570312 l 2,416,417
 255.23330178 228.726413155 255.23330178 228.726413155 252.87869352 229.87199564 c 128,-1,418
 250.52408526 231.017578125 250.52408526 231.017578125 243.939453125 231.017578125 c 128,-1,419
 237.296144914 231.017578125 237.296144914 231.017578125 235.01283034 229.865850186 c 128,-1,420
 232.729515766 228.714122246 232.729515766 228.714122246 226.668945312 222.305664062 c 2,421,-1
 218.428710938 213.59375 l 1,422,-1
 218.428710938 159.84765625 l 1,423,-1
 218.428710938 106.102539062 l 1,424,-1
 244.052734375 106.102539062 l 1,425,-1
 269.676757812 106.102539062 l 1,426,-1
 269.676757812 160.1015625 l 1,414,-1
383.381835938 160.1015625 m 1,427,-1
 383.381835938 214.1015625 l 1,428,-1
 375.028320312 222.559570312 l 1,429,-1
 366.67578125 231.017578125 l 1,430,-1
 331.685546875 231.017578125 l 1,431,-1
 296.696289062 231.017578125 l 1,432,-1
 288.852539062 222.610351562 l 1,433,-1
 281.008789062 214.202148438 l 1,434,-1
 280.948242188 160.15234375 l 1,435,-1
 280.88671875 106.102539062 l 1,436,-1
 332.133789062 106.102539062 l 1,437,-1
 383.381835938 106.102539062 l 1,438,-1
 383.381835938 160.1015625 l 1,427,-1
444.23828125 160.1015625 m 1,439,-1
 444.23828125 214.1015625 l 1,440,-1
 435.884765625 222.559570312 l 2,441,442
 427.531538374 231.017578125 427.531538374 231.017578125 418.608398438 231.017578125 c 128,-1,443
 409.685572159 231.017578125 409.685572159 231.017578125 402.046875 223.262695312 c 2,444,-1
 394.407226562 215.506835938 l 1,445,-1
 394.42578125 162.005859375 l 2,446,447
 394.436425485 108.550510587 394.436425485 108.550510587 394.517578125 107.303710938 c 128,-1,448
 394.595645426 106.102539062 394.595645426 106.102539062 419.416992188 106.102539062 c 2,449,-1
 444.239257812 106.102539062 l 1,450,-1
 444.23828125 160.1015625 l 1,439,-1
521.109375 159.305664062 m 1,451,-1
 521.109375 212.5078125 l 1,452,-1
 511.951171875 221.762695312 l 1,453,-1
 502.79296875 231.017578125 l 1,454,-1
 487.255859375 231.017578125 l 1,455,-1
 471.719726562 231.017578125 l 1,456,-1
 463.583984375 221.890625 l 1,457,-1
 455.448242188 212.762695312 l 1,458,-1
 455.448242188 159.432617188 l 1,459,-1
 455.448242188 106.102539062 l 1,460,-1
 488.279296875 106.102539062 l 1,461,-1
 521.109375 106.102539062 l 1,462,-1
 521.109375 159.305664062 l 1,451,-1
104.723632812 250.040039062 m 128,-1,464
 107.118985695 251.509472095 107.118985695 251.509472095 162.376953125 272.329101562 c 128,-1,465
 217.695030601 293.168931315 217.695030601 293.168931315 248.340820312 304.873046875 c 2,466,-1
 279.052734375 316.602539062 l 1,467,-1
 280.1171875 325.772460938 l 2,468,469
 281.182162668 334.940122173 281.182162668 334.940122173 280.138671875 336.62890625 c 128,-1,470
 279.095974507 338.31640625 279.095974507 338.31640625 270.3828125 338.31640625 c 128,-1,471
 261.668945312 338.31640625 261.668945312 338.31640625 261.668945312 340.447265625 c 128,-1,472
 261.668945312 342.578014254 261.668945312 342.578014254 294.37109375 356.697265625 c 0,473,474
 322.9839934 369.051071451 322.9839934 369.051071451 330.469726562 369.680419922 c 128,-1,475
 337.955459725 370.309768393 337.955459725 370.309768393 356.1796875 361.893554688 c 0,476,477
 371.3876738 354.87079243 371.3876738 354.87079243 386.184570312 348.771484375 c 0,478,479
 411.547659756 338.31640625 411.547659756 338.31640625 391.389648438 338.31640625 c 2,480,-1
 381.780273438 338.31640625 l 1,481,-1
 381.780273438 327.872070312 l 2,482,483
 381.780273438 317.428670557 381.780273438 317.428670557 385.383789062 315.901367188 c 0,484,485
 431.88591806 296.20506762 431.88591806 296.20506762 546.37109375 254.995117188 c 0,486,487
 556.419817556 251.379778494 556.419817556 251.379778494 555.689453125 250.649414062 c 128,-1,488
 554.960267966 249.920228904 554.960267966 249.920228904 524.822265625 252.413085938 c 128,-1,489
 494.778664469 254.898281013 494.778664469 254.898281013 469.862304688 256.659179688 c 128,-1,490
 445.04309965 258.413086745 445.04309965 258.413086745 440.234375 259.15234375 c 128,-1,491
 435.432372693 259.891228624 435.432372693 259.891228624 400.998046875 287.067382812 c 128,-1,492
 366.566711211 314.244222831 366.566711211 314.244222831 361.165039062 314.268554688 c 0,493,494
 357.426949482 313.129583207 357.426949482 313.129583207 357.5546875 312.13671875 c 0,495,496
 359.340715691 309.983916913 359.340715691 309.983916913 390.579101562 285.3125 c 2,497,-1
 421.813476562 260.64453125 l 1,498,-1
 377.087890625 260.219726562 l 2,499,500
 332.363367328 259.793592711 332.363367328 259.793592711 286.72265625 260.219726562 c 2,501,-1
 241.083007812 260.64453125 l 1,502,-1
 272.977539062 286.267578125 l 2,503,504
 304.870116299 311.892434749 304.870116299 311.892434749 304.889648438 313.092773438 c 128,-1,505
 304.910939519 314.293945312 304.910939519 314.293945312 300.282226562 314.293945312 c 128,-1,506
 295.655334728 314.293945312 295.655334728 314.293945312 271.0546875 294.629882812 c 128,-1,507
 246.450261024 274.960904668 246.450261024 274.960904668 236.712890625 267.377929688 c 2,508,-1
 226.969726562 259.790039062 l 1,509,-1
 179.059570312 255.833007812 l 2,510,511
 119.477252094 250.912795062 119.477252094 250.912795062 107.926757812 249.333984375 c 0,512,463
 102.320036974 248.566959778 102.320036974 248.566959778 104.723632812 250.040039062 c 128,-1,464
301.305664062 323.185546875 m 0,513,514
 303.307617188 323.802882221 303.307617188 323.802882221 303.307617188 331.237304688 c 2,515,-1
 303.307617188 338.672851562 l 1,516,-1
 297.305664062 337.546875 l 2,517,518
 291.814132369 336.516388858 291.814132369 336.516388858 290.721266252 334.920519451 c 128,-1,519
 289.628400136 333.324650044 289.628400136 333.324650044 290.212890625 327.190429688 c 0,520,521
 290.697006907 322.11416652 290.697006907 322.11416652 292.338867188 321.521484375 c 128,-1,522
 293.980727468 320.92880223 293.980727468 320.92880223 301.305664062 323.185546875 c 0,513,514
348.950195312 330.30859375 m 1,523,-1
 348.950195312 337.515625 l 1,524,-1
 330.93359375 337.96875 l 1,525,-1
 312.916992188 338.420898438 l 1,526,-1
 312.916992188 330.30859375 l 1,527,-1
 312.916992188 322.196289062 l 1,528,-1
 330.93359375 322.649414062 l 1,529,-1
 348.950195312 323.1015625 l 1,530,-1
 348.950195312 330.30859375 l 1,523,-1
372.170898438 329.33984375 m 1,531,-1
 372.170898438 336.377929688 l 1,532,-1
 365.765625 336.989257812 l 1,533,-1
 359.359375 337.600585938 l 1,534,-1
 359.359375 329.951171875 l 1,535,-1
 359.359375 322.301757812 l 1,536,-1
 365.765625 322.301757812 l 1,537,-1
 372.170898438 322.301757812 l 1,538,-1
 372.170898438 329.33984375 l 1,531,-1
322.525390625 379.051757812 m 0,539,540
 322.525390625 380.390001689 322.525390625 380.390001689 326.596331892 396.521313205 c 128,-1,541
 330.667273158 412.652624721 330.667273158 412.652624721 331.119140625 413.104492188 c 128,-1,542
 331.511366077 413.49671764 331.511366077 413.49671764 333.347812222 406.49474196 c 128,-1,543
 335.184258368 399.49276628 335.184258368 399.49276628 336.862148715 391.497120019 c 128,-1,544
 338.540039062 383.501473759 338.540039062 383.501473759 338.540039062 381.435546875 c 0,545,546
 338.540039062 378.353515625 338.540039062 378.353515625 330.533203125 378.353515625 c 128,-1,547
 322.525390625 378.353515625 322.525390625 378.353515625 322.525390625 379.051757812 c 0,539,540
EndSplineSet
EndChar
StartChar: uniE622
Encoding: 58914 58914 36
Width: 1024
Flags: W
LayerCount: 2
Fore
SplineSet
803.5 353.5 m 128,-1,1
 825.5 353.5 825.5 353.5 845.75 345.25 c 128,-1,2
 866 337 866 337 881.5 321.5 c 2,3,-1
 991.5 211.5 l 2,4,5
 1007 196 1007 196 1015.25 175.75 c 128,-1,6
 1023.5 155.5 1023.5 155.5 1023.5 133.5 c 128,-1,7
 1023.5 111.5 1023.5 111.5 1015.25 91.25 c 128,-1,8
 1007 71 1007 71 991.5 55.5 c 2,9,-1
 984.5 48.5 l 2,10,11
 957.5 21.5 957.5 21.5 935 0.5 c 128,-1,12
 912.5 -20.5 912.5 -20.5 888 -34.75 c 128,-1,13
 863.5 -49 863.5 -49 833.5 -56.5 c 128,-1,14
 803.5 -64 803.5 -64 762 -64 c 0,15,16
 699.5 -64 699.5 -64 633.5 -44.5 c 128,-1,17
 567.5 -25 567.5 -25 502.25 9.5 c 128,-1,18
 437 44 437 44 374.25 91.5 c 128,-1,19
 311.5 139 311.5 139 255.75 195.25 c 128,-1,20
 200 251.5 200 251.5 153 314.25 c 128,-1,21
 106 377 106 377 72 442.25 c 128,-1,22
 38 507.5 38 507.5 19 572.5 c 128,-1,23
 0 637.5 0 637.5 0 698.5 c 0,24,25
 0 740 0 740 7.25 769.5 c 128,-1,26
 14.5 799 14.5 799 28.75 823.5 c 128,-1,27
 43 848 43 848 63.75 870.25 c 128,-1,28
 84.5 892.5 84.5 892.5 111.5 919.5 c 2,29,-1
 119.5 927.5 l 2,30,31
 135 943 135 943 155 951.5 c 128,-1,32
 175 960 175 960 197.5 960 c 0,33,34
 219.5 960 219.5 960 239.75 951.5 c 128,-1,35
 260 943 260 943 275.5 927.5 c 2,36,-1
 385.5 817.5 l 2,37,38
 401 802 401 802 409.25 781.75 c 128,-1,39
 417.5 761.5 417.5 761.5 417.5 739.5 c 128,-1,40
 417.5 717.5 417.5 717.5 410 700.25 c 128,-1,41
 402.5 683 402.5 683 391.5 669 c 128,-1,42
 380.5 655 380.5 655 367.25 643.5 c 128,-1,43
 354 632 354 632 343 621 c 128,-1,44
 332 610 332 610 324.5 598.75 c 128,-1,45
 317 587.5 317 587.5 317 574.5 c 0,46,47
 317 555.5 317 555.5 330.5 542 c 2,48,-1
 606 266.5 l 2,49,50
 619.5 253 619.5 253 638.5 253 c 0,51,52
 651.5 253 651.5 253 662.75 260.5 c 128,-1,53
 674 268 674 268 685 279 c 128,-1,54
 696 290 696 290 707.5 303.25 c 128,-1,55
 719 316.5 719 316.5 733 327.5 c 128,-1,56
 747 338.5 747 338.5 764.25 346 c 128,-1,0
 781.5 353.5 781.5 353.5 803.5 353.5 c 128,-1,1
EndSplineSet
EndChar
StartChar: uniE623
Encoding: 58915 58915 37
Width: 1024
Flags: W
LayerCount: 2
Fore
SplineSet
326.454101562 623.854492188 m 128,-1,1
 326.454101562 700.720703125 326.454101562 700.720703125 380.796875 755.0625 c 128,-1,2
 435.138671875 809.405273438 435.138671875 809.405273438 512.00390625 809.405273438 c 128,-1,3
 588.87109375 809.405273438 588.87109375 809.405273438 643.212890625 755.063476562 c 128,-1,4
 697.5546875 700.720703125 697.5546875 700.720703125 697.5546875 623.854492188 c 128,-1,5
 697.5546875 546.98828125 697.5546875 546.98828125 643.212890625 492.646484375 c 128,-1,6
 588.87109375 438.3046875 588.87109375 438.3046875 512.00390625 438.3046875 c 128,-1,7
 435.138671875 438.3046875 435.138671875 438.3046875 380.795898438 492.646484375 c 128,-1,0
 326.454101562 546.98828125 326.454101562 546.98828125 326.454101562 623.854492188 c 128,-1,1
512.797851562 953.749023438 m 0,8,9
 426.309570312 953.749023438 426.309570312 953.749023438 353.033203125 921.98828125 c 128,-1,10
 279.755859375 890.2265625 279.755859375 890.2265625 232.323242188 838.037109375 c 128,-1,11
 184.890625 785.84765625 184.890625 785.84765625 158.879882812 719.9296875 c 128,-1,12
 132.868164062 654.010742188 132.868164062 654.010742188 133.943359375 584.69921875 c 0,13,14
 135.00390625 516.36328125 135.00390625 516.36328125 142.614257812 472.763671875 c 128,-1,15
 150.223632812 429.1640625 150.223632812 429.1640625 171.958984375 392.494140625 c 128,-1,16
 193.6953125 355.82421875 193.6953125 355.82421875 222.990234375 329.220703125 c 128,-1,17
 252.284179688 302.618164062 252.284179688 302.618164062 306.591796875 264.430664062 c 0,18,19
 341.41796875 239.94140625 341.41796875 239.94140625 367.561523438 199.963867188 c 128,-1,20
 393.704101562 159.986328125 393.704101562 159.986328125 408.244140625 121.99609375 c 128,-1,21
 422.784179688 84.0068359375 422.784179688 84.0068359375 436.545898438 48.994140625 c 128,-1,22
 450.307617188 13.9814453125 450.307617188 13.9814453125 468.850585938 -7.4619140625 c 128,-1,23
 487.39453125 -28.9052734375 487.39453125 -28.9052734375 513.064453125 -28.9052734375 c 0,24,25
 542.118164062 -28.9052734375 542.118164062 -28.9052734375 561.471679688 0.5830078125 c 0,26,27
 572.693359375 17.681640625 572.693359375 17.681640625 586.063476562 55.900390625 c 128,-1,28
 599.432617188 94.1201171875 599.432617188 94.1201171875 610.88671875 128.204101562 c 128,-1,29
 622.33984375 162.2890625 622.33984375 162.2890625 648.01171875 200.560546875 c 128,-1,30
 673.68359375 238.833007812 673.68359375 238.833007812 708.92578125 261.64453125 c 0,31,32
 783.459960938 309.890625 783.459960938 309.890625 820.165039062 348.97265625 c 128,-1,33
 856.870117188 388.053710938 856.870117188 388.053710938 873.822265625 442.708984375 c 128,-1,34
 890.774414062 497.364257812 890.774414062 497.364257812 890.071289062 585.130859375 c 0,35,36
 889.54296875 651.166992188 889.54296875 651.166992188 863.032226562 716.234375 c 128,-1,37
 836.520507812 781.301757812 836.520507812 781.301757812 789.62890625 834.521484375 c 128,-1,38
 742.73828125 887.7421875 742.73828125 887.7421875 670.1640625 920.745117188 c 128,-1,39
 597.58984375 953.749023438 597.58984375 953.749023438 512.797851562 953.749023438 c 0,8,9
EndSplineSet
EndChar
